<svg width="40" height="40" viewBox="0 0 40 40" fill="none" xmlns="http://www.w3.org/2000/svg">
<path d="M10 16C10 13.2386 12.2386 11 15 11H25C27.7614 11 30 13.2386 30 16V29H10V16Z" stroke="#230B4A" stroke-width="2"/>
<path d="M22.2948 23.3158L23.2578 24.6126C22.5283 26.0274 21.062 27 19.3769 27C16.9623 27 15 25.0179 15 22.5789C15 20.7884 16.065 19.2632 17.5897 18.5632L17.7429 20.1621C16.9769 20.6926 16.459 21.5695 16.459 22.5789C16.459 24.2074 17.7647 25.5263 19.3769 25.5263C20.7337 25.5263 21.8644 24.5832 22.1927 23.3158H22.2948ZM26.3435 23.3968L25.4316 23.8537L23.3891 21.1053H20.0407L19.8948 19.6316H22.2948V18.1579H19.7416L19.5228 15.9474C20.2596 15.8589 20.8359 15.24 20.8359 14.4737C20.8359 14.0828 20.6822 13.708 20.4085 13.4316C20.1349 13.1553 19.7638 13 19.3769 13C18.99 13 18.6189 13.1553 18.3453 13.4316C18.0716 13.708 17.9179 14.0828 17.9179 14.4737V14.5474L18.7204 22.5789H22.6596L24.9939 25.7253L27 24.7158L26.3435 23.3968Z" fill="#230B4A"/>
</svg>
