<svg width="48" height="48" viewBox="0 0 48 48" fill="none" xmlns="http://www.w3.org/2000/svg">
<path fill-rule="evenodd" clip-rule="evenodd" d="M14 9C10.6863 9 8 11.6863 8 15V39H40V15C40 11.6863 37.3137 9 34 9H14ZM29.2861 31.9061L27.6521 29.6829H27.4788C26.9217 31.8556 25.0029 33.4724 22.7004 33.4724C19.9646 33.4724 17.7488 31.2114 17.7488 28.4198C17.7488 26.6893 18.6277 25.1861 19.9275 24.2766L19.6675 21.5356C17.0803 22.7356 15.2729 25.3503 15.2729 28.4198C15.2729 32.6008 18.6029 35.9987 22.7004 35.9987C25.56 35.9987 28.0482 34.3314 29.2861 31.9061ZM32.9751 30.605L34.5225 29.8219L35.6366 32.0829L32.2323 33.8135L28.271 28.4198H21.5863L20.2246 14.6514V14.525C20.2246 13.855 20.4854 13.2124 20.9497 12.7387C21.4141 12.2649 22.0438 11.9987 22.7004 11.9987C23.357 11.9987 23.9868 12.2649 24.4511 12.7387C24.9154 13.2124 25.1762 13.855 25.1762 14.525C25.1762 15.8387 24.1983 16.8998 22.948 17.0514L23.3194 20.8408H27.6521V23.3671H23.5793L23.8269 25.8935H29.5089L32.9751 30.605Z" fill="#F56F24"/>
</svg>
