<svg width="40" height="40" viewBox="0 0 40 40" fill="none" xmlns="http://www.w3.org/2000/svg">
<path fill-rule="evenodd" clip-rule="evenodd" d="M15 10C11.6863 10 9 12.6863 9 16V30H31V16C31 12.6863 28.3137 10 25 10H15ZM23.634 25.2716L22.5106 23.7895H22.3915C22.0085 25.2379 20.6894 26.3158 19.1064 26.3158C17.2255 26.3158 15.7021 24.8084 15.7021 22.9474C15.7021 21.7937 16.3064 20.7916 17.2 20.1853L17.0213 18.3579C15.2426 19.1579 14 20.9011 14 22.9474C14 25.7347 16.2894 28 19.1064 28C21.0723 28 22.783 26.8884 23.634 25.2716ZM26.1702 24.4042L27.234 23.8821L28 25.3895L25.6596 26.5432L22.9362 22.9474H18.3404L17.4043 13.7684V13.6842C17.4043 13.2375 17.5836 12.8091 17.9028 12.4933C18.222 12.1774 18.655 12 19.1064 12C19.5578 12 19.9908 12.1774 20.31 12.4933C20.6292 12.8091 20.8085 13.2375 20.8085 13.6842C20.8085 14.56 20.1362 15.2674 19.2766 15.3684L19.5319 17.8947H22.5106V19.5789H19.7106L19.8809 21.2632H23.7872L26.1702 24.4042Z" fill="#F56F24"/>
</svg>
