<svg width="48" height="48" viewBox="0 0 48 48" fill="none" xmlns="http://www.w3.org/2000/svg">
<path d="M9 15C9 12.2386 11.2386 10 14 10H34C36.7614 10 39 12.2386 39 15V38H9V15Z" stroke="#230B4A" stroke-width="2"/>
<path d="M27.3343 28.7368L28.6985 30.5895C27.665 32.6105 25.5878 34 23.2006 34C19.7799 34 17 31.1684 17 27.6842C17 25.1263 18.5088 22.9474 20.6687 21.9474L20.8857 24.2316C19.8006 24.9895 19.0669 26.2421 19.0669 27.6842C19.0669 30.0105 20.9167 31.8947 23.2006 31.8947C25.1228 31.8947 26.7246 30.5474 27.1897 28.7368H27.3343ZM33.0699 28.8526L31.7781 29.5053L28.8845 25.5789H24.141L23.9343 23.4737H27.3343V21.3684H23.7173L23.4073 18.2105C24.4511 18.0842 25.2675 17.2 25.2675 16.1053C25.2675 15.5469 25.0497 15.0114 24.6621 14.6166C24.2745 14.2218 23.7488 14 23.2006 14C22.6524 14 22.1267 14.2218 21.7391 14.6166C21.3515 15.0114 21.1337 15.5469 21.1337 16.1053V16.2105L22.2705 27.6842H27.8511L31.1581 32.1789L34 30.7368L33.0699 28.8526Z" fill="#230B4A"/>
</svg>
