<svg width="41" height="41" viewBox="0 0 41 41" fill="none" xmlns="http://www.w3.org/2000/svg">
<path d="M9.19444 5.28711C6.78884 5.28711 4.83301 7.24294 4.83301 9.64854V31.4557C4.83301 33.8613 6.78884 35.8171 9.19444 35.8171H31.0016C33.4072 35.8171 35.363 33.8613 35.363 31.4557V9.64854C35.363 7.24294 33.4072 5.28711 31.0016 5.28711H9.19444ZM20.098 19.966C21.0861 17.9216 23.778 14.119 26.279 12.245C28.0849 10.8888 31.0016 9.84617 31.0016 13.1786C31.0016 13.8464 30.62 18.7735 30.3951 19.5708C29.6182 22.3512 26.7833 23.0599 24.2618 22.6306C28.6709 23.3802 29.7954 25.8676 27.3693 28.355C22.7694 33.0776 20.759 27.1692 20.2411 25.6563L20.2207 25.595C20.1593 25.4178 20.1253 25.3156 20.098 25.3156C20.0707 25.3156 20.0367 25.4178 19.9753 25.595L19.9549 25.6563C19.437 27.1692 17.4266 33.0708 12.8267 28.355C10.4075 25.8676 11.5251 23.3802 15.9342 22.6306C13.4128 23.0599 10.5778 22.3512 9.80095 19.5708C9.57606 18.7735 9.19444 13.8464 9.19444 13.1786C9.19444 9.84617 12.118 10.8956 13.917 12.245C16.4181 14.119 19.1099 17.9284 20.098 19.966Z" fill="white"/>
</svg>
