<svg width="41" height="41" viewBox="0 0 41 41" fill="none" xmlns="http://www.w3.org/2000/svg">
<path d="M31.472 5.28906H9.94648C7.47137 5.28906 5.44629 7.31415 5.44629 9.78925V31.317C5.44629 33.7921 7.47137 35.8172 9.94648 35.8172H31.4743C33.9494 35.8172 35.9745 33.7921 35.9745 31.317V9.78925C35.9722 7.31415 33.9494 5.28906 31.472 5.28906ZM31.1829 21.5831H27.5602V34.6899H22.1397V21.5831H19.4284V17.0649H22.1397V14.3536C22.1397 10.6679 23.6698 8.4752 28.0237 8.4752H31.643V12.9923H29.3794C27.6874 12.9923 27.5749 13.6257 27.5749 14.8036L27.5602 17.0649H31.661L31.1829 21.5831Z" fill="white"/>
</svg>
