<svg width="41" height="41" viewBox="0 0 41 41" fill="none" xmlns="http://www.w3.org/2000/svg">
<path d="M22.8245 5.64062C24.5416 5.6452 25.4131 5.65436 26.1656 5.67573L26.4617 5.68641C26.8036 5.69863 27.1409 5.71389 27.5485 5.7322C29.1725 5.80852 30.2806 6.06495 31.2529 6.44195C32.2602 6.82964 33.1089 7.3547 33.9575 8.20181C34.734 8.96457 35.3346 9.8876 35.7174 10.9065C36.0944 11.8787 36.3508 12.9869 36.4271 14.6124C36.4454 15.0184 36.4607 15.3557 36.4729 15.6991L36.4821 15.9953C36.505 16.7462 36.5141 17.6177 36.5172 19.3349L36.5187 20.4735V22.473C36.5224 23.5863 36.5107 24.6996 36.4836 25.8126L36.4744 26.1087C36.4622 26.4522 36.447 26.7895 36.4287 27.1955C36.3523 28.821 36.0929 29.9276 35.7174 30.9014C35.3346 31.9203 34.734 32.8433 33.9575 33.6061C33.1948 34.3825 32.2717 34.9831 31.2529 35.3659C30.2806 35.7429 29.1725 35.9994 27.5485 36.0757L26.4617 36.1215L26.1656 36.1306C25.4131 36.152 24.5416 36.1627 22.8245 36.1657L21.6858 36.1673H19.6878C18.574 36.1712 17.4602 36.1595 16.3467 36.1321L16.0506 36.123C15.6883 36.1093 15.326 36.0935 14.9639 36.0757C13.3398 35.9994 12.2317 35.7429 11.2579 35.3659C10.2396 34.9829 9.3171 34.3823 8.55479 33.6061C7.7778 32.8435 7.17668 31.9204 6.7934 30.9014C6.4164 29.9291 6.15998 28.821 6.08366 27.1955L6.03787 26.1087L6.03024 25.8126C6.0021 24.6996 5.98938 23.5863 5.99208 22.473V19.3349C5.98785 18.2216 5.99905 17.1083 6.02566 15.9953L6.03634 15.6991C6.04855 15.3557 6.06382 15.0184 6.08213 14.6124C6.15845 12.9869 6.41487 11.8803 6.79188 10.9065C7.17605 9.88718 7.77823 8.96411 8.55632 8.20181C9.31819 7.42574 10.2401 6.82517 11.2579 6.44195C12.2317 6.06495 13.3383 5.80852 14.9639 5.7322C15.3699 5.71389 15.7087 5.69863 16.0506 5.68641L16.3467 5.67726C17.4597 5.65014 18.573 5.63844 19.6863 5.64215L22.8245 5.64062ZM21.2554 13.2723C19.2314 13.2723 17.2902 14.0763 15.859 15.5075C14.4278 16.9388 13.6237 18.8799 13.6237 20.9039C13.6237 22.928 14.4278 24.8691 15.859 26.3003C17.2902 27.7315 19.2314 28.5356 21.2554 28.5356C23.2794 28.5356 25.2206 27.7315 26.6518 26.3003C28.083 24.8691 28.8871 22.928 28.8871 20.9039C28.8871 18.8799 28.083 16.9388 26.6518 15.5075C25.2206 14.0763 23.2794 13.2723 21.2554 13.2723ZM21.2554 16.3249C21.8567 16.3248 22.4522 16.4432 23.0078 16.6732C23.5633 16.9032 24.0682 17.2404 24.4935 17.6656C24.9187 18.0907 25.2561 18.5954 25.4863 19.1509C25.7165 19.7064 25.835 20.3019 25.8351 20.9032C25.8353 21.5045 25.7169 22.1 25.4869 22.6555C25.2569 23.2111 24.9197 23.716 24.4945 24.1412C24.0694 24.5665 23.5647 24.9039 23.0092 25.1341C22.4537 25.3643 21.8582 25.4828 21.2569 25.4829C20.0425 25.4829 18.8778 25.0005 18.0191 24.1418C17.1604 23.2831 16.6779 22.1184 16.6779 20.9039C16.6779 19.6895 17.1604 18.5248 18.0191 17.6661C18.8778 16.8074 20.0425 16.3249 21.2569 16.3249M29.2702 10.9828C28.7641 10.9828 28.2789 11.1838 27.9211 11.5416C27.5633 11.8994 27.3622 12.3847 27.3622 12.8907C27.3622 13.3967 27.5633 13.882 27.9211 14.2398C28.2789 14.5976 28.7641 14.7986 29.2702 14.7986C29.7762 14.7986 30.2615 14.5976 30.6193 14.2398C30.9771 13.882 31.1781 13.3967 31.1781 12.8907C31.1781 12.3847 30.9771 11.8994 30.6193 11.5416C30.2615 11.1838 29.7762 10.9828 29.2702 10.9828Z" fill="white"/>
</svg>
