<svg width="41" height="41" viewBox="0 0 41 41" fill="none" xmlns="http://www.w3.org/2000/svg">
<path fill-rule="evenodd" clip-rule="evenodd" d="M12.6594 5.28906C8.44433 5.28906 5.02734 8.70604 5.02734 12.9211V28.1852C5.02734 32.4002 8.44432 35.8172 12.6594 35.8172H27.9235C32.1385 35.8172 35.5555 32.4003 35.5555 28.1852V12.9211C35.5555 8.70604 32.1385 5.28906 27.9235 5.28906H12.6594ZM30.6398 10.377H27.1285L21.3407 16.8798L16.3428 10.3786H9.09778L17.7509 21.5058L9.54753 30.7291H13.0621L19.3912 23.6152L24.9288 30.7291H31.9939L22.9696 18.9971L30.6398 10.377ZM27.8399 28.6631H25.8937L13.1929 12.3355H15.2797L27.8399 28.6631Z" fill="white"/>
</svg>
