<svg width="43" height="43" viewBox="0 0 43 43" fill="none" xmlns="http://www.w3.org/2000/svg">
<path fill-rule="evenodd" clip-rule="evenodd" d="M24.1217 6.98754C23.5764 6.76355 22.8838 6.76355 21.5001 6.76355C20.1163 6.76355 19.4252 6.76355 18.8785 6.98754C18.1526 7.28553 17.5749 7.85959 17.2722 8.5835C17.1337 8.91212 17.0806 9.29674 17.0585 9.85525C17.0487 10.2599 16.9358 10.6554 16.7306 11.0043C16.5253 11.3532 16.2344 11.6439 15.8855 11.8491C15.53 12.0467 15.1303 12.1514 14.7236 12.1535C14.3168 12.1555 13.9161 12.0549 13.5586 11.8609C13.0605 11.5986 12.6995 11.4542 12.3429 11.407C11.5626 11.3046 10.7735 11.5143 10.1471 11.9906C9.67851 12.3472 9.3322 12.9425 8.64107 14.1318C7.94845 15.321 7.60362 15.9149 7.52552 16.497C7.42236 17.2721 7.63457 18.0561 8.11497 18.6765C8.33307 18.9594 8.64107 19.1967 9.11705 19.4944C9.81998 19.932 10.2709 20.6777 10.2709 21.5C10.2709 22.3223 9.81998 23.0679 9.11853 23.5041C8.64107 23.8033 8.33307 24.0406 8.1135 24.3235C7.87637 24.6299 7.70231 24.9803 7.60139 25.3544C7.50046 25.7285 7.47468 26.1189 7.52552 26.503C7.60362 27.0836 7.94845 27.679 8.64107 28.8682C9.33368 30.0574 9.67851 30.6513 10.1471 31.0094C10.772 31.4854 11.5618 31.6947 12.3429 31.593C12.6995 31.5458 13.0605 31.4014 13.5586 31.1391C13.9163 30.9448 14.3173 30.844 14.7243 30.8461C15.1313 30.8482 15.5313 30.953 15.887 31.1509C16.6032 31.5635 17.0276 32.3224 17.0585 33.1447C17.0806 33.7047 17.1337 34.0879 17.2722 34.4165C17.5728 35.1386 18.1505 35.7133 18.8785 36.0124C19.4237 36.2364 20.1163 36.2364 21.5001 36.2364C22.8838 36.2364 23.5764 36.2364 24.1217 36.0124C24.8475 35.7144 25.4253 35.1404 25.728 34.4165C25.8665 34.0879 25.9195 33.7047 25.9416 33.1447C25.9711 32.3224 26.397 31.562 27.1147 31.1509C27.4702 30.9533 27.8698 30.8486 28.2766 30.8465C28.6833 30.8444 29.084 30.9451 29.4415 31.1391C29.9396 31.4014 30.3007 31.5458 30.6573 31.593C31.4383 31.6961 32.2282 31.4854 32.853 31.0094C33.3217 30.6528 33.668 30.0574 34.3591 28.8682C35.0517 27.679 35.3965 27.0851 35.4746 26.503C35.5253 26.1188 35.4993 25.7283 35.3981 25.3542C35.2969 24.9801 35.1226 24.6298 34.8852 24.3235C34.6671 24.0406 34.3591 23.8033 33.8831 23.5056C33.1802 23.0679 32.7292 22.3223 32.7292 21.5C32.7292 20.6777 33.1802 19.932 33.8816 19.4958C34.3591 19.1967 34.6671 18.9594 34.8867 18.6765C35.1238 18.3701 35.2979 18.0197 35.3988 17.6456C35.4997 17.2715 35.5255 16.8811 35.4746 16.497C35.3965 15.9164 35.0517 15.321 34.3591 14.1318C33.6665 12.9425 33.3217 12.3487 32.853 11.9906C32.2266 11.5143 31.4375 11.3046 30.6573 11.407C30.3007 11.4542 29.9396 11.5986 29.4415 11.8609C29.0839 12.0552 28.6829 12.1559 28.2759 12.1539C27.8688 12.1518 27.4689 12.047 27.1132 11.8491C26.7645 11.6438 26.474 11.3529 26.269 11.004C26.064 10.6552 25.9513 10.2598 25.9416 9.85525C25.9195 9.29527 25.8665 8.91212 25.728 8.5835C25.5782 8.22502 25.3592 7.89956 25.0836 7.62572C24.808 7.35188 24.4811 7.13502 24.1217 6.98754ZM21.5001 25.9209C23.9611 25.9209 25.9549 23.9418 25.9549 21.5C25.9549 19.0582 23.9596 17.0791 21.5001 17.0791C19.0391 17.0791 17.0453 19.0582 17.0453 21.5C17.0453 23.9418 19.0406 25.9209 21.5001 25.9209Z" fill="#E4E2E7"/>
</svg>
