<svg width="43" height="43" viewBox="0 0 43 43" fill="none" xmlns="http://www.w3.org/2000/svg">
<path d="M37.8125 8C37.5018 8 37.25 8.25184 37.25 8.5625V9.40625C37.25 9.87031 36.8703 10.25 36.4062 10.25H33.5938C33.1297 10.25 32.75 9.87031 32.75 9.40625C32.75 8.6296 32.1204 8 31.3438 8H11.6562C10.8796 8 10.25 8.6296 10.25 9.40625C10.25 9.87031 9.87031 10.25 9.40625 10.25H6.59375C6.12969 10.25 5.75 9.87031 5.75 9.40625V8.5625C5.75 8.25184 5.49816 8 5.1875 8C4.25234 8 3.5 8.75234 3.5 9.6875V33.3125C3.5 34.2477 4.25234 35 5.1875 35C5.49816 35 5.75 34.7482 5.75 34.4375V33.5938C5.75 33.1297 6.12969 32.75 6.59375 32.75H9.40625C9.87031 32.75 10.25 33.1297 10.25 33.5938C10.25 34.3704 10.8796 35 11.6562 35H31.3438C32.1204 35 32.75 34.3704 32.75 33.5938C32.75 33.1297 33.1297 32.75 33.5938 32.75H36.4062C36.8703 32.75 37.25 33.1297 37.25 33.5938V34.4375C37.25 34.7482 37.5018 35 37.8125 35C38.7477 35 39.5 34.2477 39.5 33.3125V9.6875C39.5 8.75234 38.7477 8 37.8125 8ZM10.25 29.6562C10.25 30.1203 9.87031 30.5 9.40625 30.5H6.59375C6.12969 30.5 5.75 30.1203 5.75 29.6562V26.8438C5.75 26.3797 6.12969 26 6.59375 26H9.40625C9.87031 26 10.25 26.3797 10.25 26.8438V29.6562ZM10.25 22.9062C10.25 23.3703 9.87031 23.75 9.40625 23.75H6.59375C6.12969 23.75 5.75 23.3703 5.75 22.9062V20.0938C5.75 19.6297 6.12969 19.25 6.59375 19.25H9.40625C9.87031 19.25 10.25 19.6297 10.25 20.0938V22.9062ZM10.25 16.1562C10.25 16.6203 9.87031 17 9.40625 17H6.59375C6.12969 17 5.75 16.6203 5.75 16.1562V13.3438C5.75 12.8797 6.12969 12.5 6.59375 12.5H9.40625C9.87031 12.5 10.25 12.8797 10.25 13.3438V16.1562ZM29.375 30.7812C29.375 31.2453 28.9953 31.625 28.5312 31.625H14.4688C14.0047 31.625 13.625 31.2453 13.625 30.7812V24.0312C13.625 23.5672 14.0047 23.1875 14.4688 23.1875H28.5312C28.9953 23.1875 29.375 23.5672 29.375 24.0312V30.7812ZM29.375 18.9688C29.375 19.4328 28.9953 19.8125 28.5312 19.8125H14.4688C14.0047 19.8125 13.625 19.4328 13.625 18.9688V12.2188C13.625 11.7547 14.0047 11.375 14.4688 11.375H28.5312C28.9953 11.375 29.375 11.7547 29.375 12.2188V18.9688ZM37.25 29.6562C37.25 30.1203 36.8703 30.5 36.4062 30.5H33.5938C33.1297 30.5 32.75 30.1203 32.75 29.6562V26.8438C32.75 26.3797 33.1297 26 33.5938 26H36.4062C36.8703 26 37.25 26.3797 37.25 26.8438V29.6562ZM37.25 22.9062C37.25 23.3703 36.8703 23.75 36.4062 23.75H33.5938C33.1297 23.75 32.75 23.3703 32.75 22.9062V20.0938C32.75 19.6297 33.1297 19.25 33.5938 19.25H36.4062C36.8703 19.25 37.25 19.6297 37.25 20.0938V22.9062ZM37.25 16.1562C37.25 16.6203 36.8703 17 36.4062 17H33.5938C33.1297 17 32.75 16.6203 32.75 16.1562V13.3438C32.75 12.8797 33.1297 12.5 33.5938 12.5H36.4062C36.8703 12.5 37.25 12.8797 37.25 13.3438V16.1562Z" fill="#230B4A"/>
</svg>
