<svg width="70" height="43" viewBox="0 0 70 43" fill="none" xmlns="http://www.w3.org/2000/svg">
<path fill-rule="evenodd" clip-rule="evenodd" d="M0.5 39C0.331543 39 0.164795 39.0076 0 39.0225V35.95C0.161621 35.9828 0.328857 36 0.5 36C1.88062 36 3 34.8807 3 33.5C3 32.1193 1.88062 31 0.5 31C0.328857 31 0.161621 31.0172 0 31.05V26.95C0.161621 26.9828 0.328857 27 0.5 27C1.88062 27 3 25.8807 3 24.5C3 23.1193 1.88062 22 0.5 22C0.328857 22 0.161621 22.0172 0 22.05V18.95C0.108398 18.972 0.219482 18.9871 0.33252 18.9945C0.387939 18.9982 0.443848 19 0.5 19C1.88062 19 3 17.8807 3 16.5C3 15.1193 1.88062 14 0.5 14C0.377686 14 0.257568 14.0088 0.139893 14.0258C0.0927734 14.0326 0.0461426 14.0406 0 14.05V10.95C0.161621 10.9828 0.328857 11 0.5 11C1.88062 11 3 9.88074 3 8.5C3 7.11926 1.88062 6 0.5 6C0.328857 6 0.161621 6.01721 0 6.05005V2.97754C0.164795 2.99243 0.331543 3 0.5 3C2.63745 3 4.48999 1.78088 5.40039 0H65.5996C66.4382 1.64038 68.0764 2.8042 70 2.97754V6.05005C68.8589 6.28162 68 7.29053 68 8.5C68 9.70947 68.8589 10.7184 70 10.95V14.05C68.8589 14.2816 68 15.2905 68 16.5C68 17.7095 68.8589 18.7184 70 18.95V22.05C68.8589 22.2816 68 23.2905 68 24.5C68 25.7095 68.8589 26.7184 70 26.95V31.05C68.8589 31.2816 68 32.2905 68 33.5C68 34.7095 68.8589 35.7184 70 35.95V39.0225C67.7048 39.2292 65.8162 40.8461 65.207 43H5.79297C5.14014 40.6915 3.01758 39 0.5 39ZM50.75 8.5625C50.75 8.25183 51.002 8 51.3125 8C52.2476 8 53 8.75232 53 9.6875V33.3125C53 34.2477 52.2476 35 51.3125 35C51.002 35 50.75 34.7482 50.75 34.4375V33.5938C50.75 33.1296 50.3704 32.75 49.9062 32.75H47.0938C46.6296 32.75 46.25 33.1296 46.25 33.5938C46.25 34.3704 45.6204 35 44.8438 35H25.1562C24.3796 35 23.75 34.3704 23.75 33.5938C23.75 33.1296 23.3704 32.75 22.9062 32.75H20.0938C19.6296 32.75 19.25 33.1296 19.25 33.5938V34.4375C19.25 34.7482 18.998 35 18.6875 35C17.7524 35 17 34.2477 17 33.3125V9.6875C17 8.75232 17.7524 8 18.6875 8C18.998 8 19.25 8.25183 19.25 8.5625V9.40625C19.25 9.87036 19.6296 10.25 20.0938 10.25H22.9062C23.3704 10.25 23.75 9.87036 23.75 9.40625C23.75 8.62964 24.3796 8 25.1562 8H44.8438C45.6204 8 46.25 8.62964 46.25 9.40625C46.25 9.87036 46.6296 10.25 47.0938 10.25H49.9062C50.3704 10.25 50.75 9.87036 50.75 9.40625V8.5625ZM22.9062 30.5C23.3704 30.5 23.75 30.1204 23.75 29.6562V26.8438C23.75 26.3796 23.3704 26 22.9062 26H20.0938C19.6296 26 19.25 26.3796 19.25 26.8438V29.6562C19.25 30.1204 19.6296 30.5 20.0938 30.5H22.9062ZM22.9062 23.75C23.3704 23.75 23.75 23.3704 23.75 22.9062V20.0938C23.75 19.6296 23.3704 19.25 22.9062 19.25H20.0938C19.6296 19.25 19.25 19.6296 19.25 20.0938V22.9062C19.25 23.3704 19.6296 23.75 20.0938 23.75H22.9062ZM22.9062 17C23.3704 17 23.75 16.6204 23.75 16.1562V13.3438C23.75 12.8796 23.3704 12.5 22.9062 12.5H20.0938C19.6296 12.5 19.25 12.8796 19.25 13.3438V16.1562C19.25 16.6204 19.6296 17 20.0938 17H22.9062ZM42.0312 31.625C42.4954 31.625 42.875 31.2454 42.875 30.7812V24.0312C42.875 23.5671 42.4954 23.1875 42.0312 23.1875H27.9688C27.5046 23.1875 27.125 23.5671 27.125 24.0312V30.7812C27.125 31.2454 27.5046 31.625 27.9688 31.625H42.0312ZM42.0312 19.8125C42.4954 19.8125 42.875 19.4329 42.875 18.9688V12.2188C42.875 11.7546 42.4954 11.375 42.0312 11.375H27.9688C27.5046 11.375 27.125 11.7546 27.125 12.2188V18.9688C27.125 19.4329 27.5046 19.8125 27.9688 19.8125H42.0312ZM49.9062 30.5C50.3704 30.5 50.75 30.1204 50.75 29.6562V26.8438C50.75 26.3796 50.3704 26 49.9062 26H47.0938C46.6296 26 46.25 26.3796 46.25 26.8438V29.6562C46.25 30.1204 46.6296 30.5 47.0938 30.5H49.9062ZM49.9062 23.75C50.3704 23.75 50.75 23.3704 50.75 22.9062V20.0938C50.75 19.6296 50.3704 19.25 49.9062 19.25H47.0938C46.6296 19.25 46.25 19.6296 46.25 20.0938V22.9062C46.25 23.3704 46.6296 23.75 47.0938 23.75H49.9062ZM49.9062 17C50.3704 17 50.75 16.6204 50.75 16.1562V13.3438C50.75 12.8796 50.3704 12.5 49.9062 12.5H47.0938C46.6296 12.5 46.25 12.8796 46.25 13.3438V16.1562C46.25 16.6204 46.6296 17 47.0938 17H49.9062Z" fill="#D9D9D9"/>
</svg>
