<svg width="43" height="43" viewBox="0 0 43 43" fill="none" xmlns="http://www.w3.org/2000/svg">
<path d="M6.5 33.0714V17.6429C6.5 17.1 6.63281 16.5857 6.89844 16.1C7.16406 15.6143 7.53125 15.2143 8 14.9L19.25 7.18571C19.9062 6.72857 20.6562 6.5 21.5 6.5C22.3438 6.5 23.0938 6.72857 23.75 7.18571L35 14.9C35.4688 15.2143 35.8359 15.6143 36.1016 16.1C36.3672 16.5857 36.5 17.1 36.5 17.6429V33.0714C36.5 34.0143 36.1328 34.8214 35.3984 35.4929C34.6641 36.1643 33.7812 36.5 32.75 36.5H27.125C26.5938 36.5 26.1484 36.3357 25.7891 36.0071C25.4297 35.6786 25.25 35.2714 25.25 34.7857V26.2143C25.25 25.7286 25.0703 25.3214 24.7109 24.9929C24.3516 24.6643 23.9062 24.5 23.375 24.5H19.625C19.0938 24.5 18.6484 24.6643 18.2891 24.9929C17.9297 25.3214 17.75 25.7286 17.75 26.2143V34.7857C17.75 35.2714 17.5703 35.6786 17.2109 36.0071C16.8516 36.3357 16.4062 36.5 15.875 36.5H10.25C9.21875 36.5 8.33594 36.1643 7.60156 35.4929C6.86719 34.8214 6.5 34.0143 6.5 33.0714Z" fill="#230B4A"/>
</svg>
