<svg width="70" height="43" viewBox="0 0 70 43" fill="none" xmlns="http://www.w3.org/2000/svg">
<path fill-rule="evenodd" clip-rule="evenodd" d="M0.5 39C0.331543 39 0.164795 39.0076 0 39.0225V35.95C0.161621 35.9828 0.328857 36 0.5 36C1.88062 36 3 34.8807 3 33.5C3 32.1193 1.88062 31 0.5 31C0.328857 31 0.161621 31.0172 0 31.05V26.95C0.161621 26.9828 0.328857 27 0.5 27C1.88062 27 3 25.8807 3 24.5C3 23.1193 1.88062 22 0.5 22C0.328857 22 0.161621 22.0172 0 22.05V18.95C0.161621 18.9828 0.328857 19 0.5 19C1.88062 19 3 17.8807 3 16.5C3 15.1193 1.88062 14 0.5 14C0.328857 14 0.161621 14.0172 0 14.05V10.95C0.161621 10.9828 0.328857 11 0.5 11C1.88062 11 3 9.88074 3 8.5C3 7.11926 1.88062 6 0.5 6C0.328857 6 0.161621 6.01721 0 6.05005V2.97754C0.164795 2.99243 0.331543 3 0.5 3C2.63745 3 4.48999 1.78088 5.40039 0H65.5996C66.4382 1.64038 68.0764 2.8042 70 2.97754V6.05005C68.8589 6.28162 68 7.29053 68 8.5C68 9.70947 68.8589 10.7184 70 10.95V14.05C68.8589 14.2816 68 15.2905 68 16.5C68 17.7095 68.8589 18.7184 70 18.95V22.05C68.8589 22.2816 68 23.2905 68 24.5C68 25.7095 68.8589 26.7184 70 26.95V31.05C68.8589 31.2816 68 32.2905 68 33.5C68 34.7095 68.8589 35.7184 70 35.95V39.0225C67.7048 39.2292 65.8162 40.8461 65.207 43H5.79297C5.14014 40.6915 3.01758 39 0.5 39ZM20.5 17.6428V33.0714C20.5 34.0143 20.8672 34.8214 21.6016 35.4928C22.3359 36.1643 23.2188 36.5 24.25 36.5H29.875C30.4062 36.5 30.8516 36.3357 31.2109 36.0072C31.5703 35.6786 31.75 35.2715 31.75 34.7858V26.2142C31.75 25.7285 31.9297 25.3214 32.2891 24.9928C32.6484 24.6643 33.0938 24.5 33.625 24.5H37.375C37.9062 24.5 38.3516 24.6643 38.7109 24.9928C39.0703 25.3214 39.25 25.7285 39.25 26.2142V34.7858C39.25 35.2715 39.4297 35.6786 39.7891 36.0072C40.1484 36.3357 40.5938 36.5 41.125 36.5H46.75C47.7812 36.5 48.6641 36.1643 49.3984 35.4928C50.1328 34.8214 50.5 34.0143 50.5 33.0714V17.6428C50.5 17.1 50.3672 16.5857 50.1016 16.1C49.8359 15.6143 49.4688 15.2142 49 14.9L37.75 7.18567C37.0938 6.72852 36.3438 6.5 35.5 6.5C34.6562 6.5 33.9062 6.72852 33.25 7.18567L22 14.9C21.5312 15.2142 21.1641 15.6143 20.8984 16.1C20.6328 16.5857 20.5 17.1 20.5 17.6428Z" fill="#D9D9D9"/>
</svg>
