<svg width="43" height="43" viewBox="0 0 43 43" fill="none" xmlns="http://www.w3.org/2000/svg">
<mask id="path-1-inside-1_270_2676" fill="white">
<path fill-rule="evenodd" clip-rule="evenodd" d="M15.9521 26.2453C14.8426 26.927 13.9252 27.7515 13.2 28.719C11.5183 26.7871 10.5 24.2625 10.5 21.5C10.5 15.4249 15.4249 10.5 21.5 10.5C27.5751 10.5 32.5 15.4249 32.5 21.5C32.5 24.0826 31.61 26.4572 30.12 28.3341C29.448 27.531 28.6323 26.8347 27.6729 26.2453C25.9149 25.1651 23.9614 24.625 21.8125 24.625C19.6636 24.625 17.7101 25.1651 15.9521 26.2453ZM21.5 36.5C21.5545 36.5 21.609 36.4997 21.6633 36.4991C21.713 36.4997 21.7627 36.5 21.8125 36.5C22.6863 36.5 23.5278 36.4107 24.337 36.2321C31.2647 34.906 36.5 28.8144 36.5 21.5C36.5 13.2157 29.7843 6.5 21.5 6.5C13.2157 6.5 6.5 13.2157 6.5 21.5C6.5 29.7843 13.2157 36.5 21.5 36.5ZM21.5 22.75C24.2614 22.75 26.5 20.5114 26.5 17.75C26.5 14.9886 24.2614 12.75 21.5 12.75C18.7386 12.75 16.5 14.9886 16.5 17.75C16.5 20.5114 18.7386 22.75 21.5 22.75Z"/>
</mask>
<path fill-rule="evenodd" clip-rule="evenodd" d="M15.9521 26.2453C14.8426 26.927 13.9252 27.7515 13.2 28.719C11.5183 26.7871 10.5 24.2625 10.5 21.5C10.5 15.4249 15.4249 10.5 21.5 10.5C27.5751 10.5 32.5 15.4249 32.5 21.5C32.5 24.0826 31.61 26.4572 30.12 28.3341C29.448 27.531 28.6323 26.8347 27.6729 26.2453C25.9149 25.1651 23.9614 24.625 21.8125 24.625C19.6636 24.625 17.7101 25.1651 15.9521 26.2453ZM21.5 36.5C21.5545 36.5 21.609 36.4997 21.6633 36.4991C21.713 36.4997 21.7627 36.5 21.8125 36.5C22.6863 36.5 23.5278 36.4107 24.337 36.2321C31.2647 34.906 36.5 28.8144 36.5 21.5C36.5 13.2157 29.7843 6.5 21.5 6.5C13.2157 6.5 6.5 13.2157 6.5 21.5C6.5 29.7843 13.2157 36.5 21.5 36.5ZM21.5 22.75C24.2614 22.75 26.5 20.5114 26.5 17.75C26.5 14.9886 24.2614 12.75 21.5 12.75C18.7386 12.75 16.5 14.9886 16.5 17.75C16.5 20.5114 18.7386 22.75 21.5 22.75Z" fill="#230B4A"/>
<path d="M13.2 28.719L12.4458 29.3756L13.2581 30.3087L14.0002 29.3188L13.2 28.719ZM15.9521 26.2453L16.4755 27.0973L16.4756 27.0973L15.9521 26.2453ZM30.12 28.3341L29.3531 28.9758L30.1404 29.9167L30.9032 28.9558L30.12 28.3341ZM27.6729 26.2453L27.1494 27.0973L27.1495 27.0973L27.6729 26.2453ZM21.6633 36.4991L21.675 35.4992L21.6639 35.4991L21.6527 35.4992L21.6633 36.4991ZM24.337 36.2321L24.1489 35.2499L24.1351 35.2526L24.1214 35.2556L24.337 36.2321ZM14.0002 29.3188C14.6442 28.4596 15.465 27.7182 16.4755 27.0973L15.4286 25.3933C14.2201 26.1357 13.2062 27.0434 12.3999 28.1192L14.0002 29.3188ZM9.5 21.5C9.5 24.5129 10.6116 27.2686 12.4458 29.3756L13.9543 28.0624C12.425 26.3056 11.5 24.0121 11.5 21.5H9.5ZM21.5 9.5C14.8726 9.5 9.5 14.8726 9.5 21.5H11.5C11.5 15.9772 15.9772 11.5 21.5 11.5V9.5ZM33.5 21.5C33.5 14.8726 28.1274 9.5 21.5 9.5V11.5C27.0228 11.5 31.5 15.9772 31.5 21.5H33.5ZM30.9032 28.9558C32.5286 26.9085 33.5 24.3163 33.5 21.5H31.5C31.5 23.8488 30.6915 26.0059 29.3368 27.7123L30.9032 28.9558ZM27.1495 27.0973C28.0238 27.6345 28.7554 28.2615 29.3531 28.9758L30.8869 27.6923C30.1406 26.8004 29.2408 26.0349 28.1964 25.3933L27.1495 27.0973ZM21.8125 25.625C23.7846 25.625 25.5556 26.118 27.1494 27.0973L28.1965 25.3933C26.2742 24.2122 24.1382 23.625 21.8125 23.625V25.625ZM16.4756 27.0973C18.0694 26.118 19.8404 25.625 21.8125 25.625V23.625C19.4868 23.625 17.3508 24.2122 15.4285 25.3933L16.4756 27.0973ZM21.6527 35.4992C21.6018 35.4997 21.5509 35.5 21.5 35.5V37.5C21.5581 37.5 21.6161 37.4997 21.674 37.4991L21.6527 35.4992ZM21.8125 35.5C21.7666 35.5 21.7208 35.4997 21.675 35.4992L21.6517 37.4991C21.7052 37.4997 21.7588 37.5 21.8125 37.5V35.5ZM24.1214 35.2556C23.3868 35.4178 22.6178 35.5 21.8125 35.5V37.5C22.7549 37.5 23.6688 37.4036 24.5525 37.2086L24.1214 35.2556ZM35.5 21.5C35.5 28.3256 30.6143 34.0123 24.1489 35.2499L24.525 37.2143C31.9151 35.7996 37.5 29.3031 37.5 21.5H35.5ZM21.5 7.5C29.232 7.5 35.5 13.768 35.5 21.5H37.5C37.5 12.6634 30.3366 5.5 21.5 5.5V7.5ZM7.5 21.5C7.5 13.768 13.768 7.5 21.5 7.5V5.5C12.6634 5.5 5.5 12.6634 5.5 21.5H7.5ZM21.5 35.5C13.768 35.5 7.5 29.232 7.5 21.5H5.5C5.5 30.3366 12.6634 37.5 21.5 37.5V35.5ZM25.5 17.75C25.5 19.9591 23.7091 21.75 21.5 21.75V23.75C24.8137 23.75 27.5 21.0637 27.5 17.75H25.5ZM21.5 13.75C23.7091 13.75 25.5 15.5409 25.5 17.75H27.5C27.5 14.4363 24.8137 11.75 21.5 11.75V13.75ZM17.5 17.75C17.5 15.5409 19.2909 13.75 21.5 13.75V11.75C18.1863 11.75 15.5 14.4363 15.5 17.75H17.5ZM21.5 21.75C19.2909 21.75 17.5 19.9591 17.5 17.75H15.5C15.5 21.0637 18.1863 23.75 21.5 23.75V21.75Z" fill="#230B4A" mask="url(#path-1-inside-1_270_2676)"/>
</svg>
