<svg width="70" height="43" viewBox="0 0 70 43" fill="none" xmlns="http://www.w3.org/2000/svg">
<path fill-rule="evenodd" clip-rule="evenodd" d="M0.5 39C0.331455 39 0.164681 39.0076 0 39.0224V35.95C0.161555 35.9828 0.328767 36 0.5 36C1.88071 36 3 34.8807 3 33.5C3 32.1193 1.88071 31 0.5 31C0.328767 31 0.161555 31.0172 0 31.05V26.95C0.161555 26.9828 0.328767 27 0.5 27C1.88071 27 3 25.8807 3 24.5C3 23.1193 1.88071 22 0.5 22C0.328767 22 0.161555 22.0172 0 22.05V18.95C0.161555 18.9828 0.328767 19 0.5 19C1.88071 19 3 17.8807 3 16.5C3 15.1193 1.88071 14 0.5 14C0.328767 14 0.161555 14.0172 0 14.05V10.95C0.161555 10.9828 0.328767 11 0.5 11C1.88071 11 3 9.88071 3 8.5C3 7.11929 1.88071 6 0.5 6C0.328767 6 0.161555 6.01722 0 6.05001V2.97758C0.164681 2.99242 0.331455 3 0.5 3C2.63734 3 4.48993 1.78084 5.40029 0H65.5997C66.4383 1.64041 68.0763 2.80423 70 2.97758V6.05001C68.8589 6.28164 68 7.29052 68 8.5C68 9.70948 68.8589 10.7184 70 10.95V14.05C68.8589 14.2816 68 15.2905 68 16.5C68 17.7095 68.8589 18.7184 70 18.95V22.05C68.8589 22.2816 68 23.2905 68 24.5C68 25.7095 68.8589 26.7184 70 26.95V31.05C68.8589 31.2816 68 32.2905 68 33.5C68 34.7095 68.8589 35.7184 70 35.95V39.0224C67.7048 39.2293 65.8162 40.846 65.207 43H5.79297C5.14004 40.6915 3.01755 39 0.5 39ZM26.7 28.219C27.4252 27.2515 28.3426 26.427 29.4521 25.7453C31.2101 24.6651 33.1636 24.125 35.3125 24.125C37.4614 24.125 39.4149 24.6651 41.1729 25.7453C42.1323 26.3347 42.948 27.031 43.62 27.8341C45.11 25.9572 46 23.5826 46 21C46 14.9249 41.0751 10 35 10C28.9249 10 24 14.9249 24 21C24 23.7625 25.0183 26.2871 26.7 28.219ZM35.1633 35.9991C35.109 35.9997 35.0545 36 35 36C26.7157 36 20 29.2843 20 21C20 12.7157 26.7157 6 35 6C43.2843 6 50 12.7157 50 21C50 28.3144 44.7647 34.406 37.837 35.7321C37.0278 35.9107 36.1863 36 35.3125 36C35.2627 36 35.213 35.9997 35.1633 35.9991ZM40 17.25C40 20.0114 37.7614 22.25 35 22.25C32.2386 22.25 30 20.0114 30 17.25C30 14.4886 32.2386 12.25 35 12.25C37.7614 12.25 40 14.4886 40 17.25Z" fill="#D9D9D9"/>
</svg>
