<svg width="70" height="43" viewBox="0 0 70 43" fill="none" xmlns="http://www.w3.org/2000/svg">
<path fill-rule="evenodd" clip-rule="evenodd" d="M0.5 39C0.331455 39 0.164681 39.0076 0 39.0224V35.95C0.161555 35.9828 0.328767 36 0.5 36C1.88071 36 3 34.8807 3 33.5C3 32.1193 1.88071 31 0.5 31C0.328767 31 0.161555 31.0172 0 31.05V26.95C0.161555 26.9828 0.328767 27 0.5 27C1.88071 27 3 25.8807 3 24.5C3 23.1193 1.88071 22 0.5 22C0.328767 22 0.161555 22.0172 0 22.05V18.95C0.161555 18.9828 0.328767 19 0.5 19C1.88071 19 3 17.8807 3 16.5C3 15.1193 1.88071 14 0.5 14C0.328767 14 0.161555 14.0172 0 14.05V10.95C0.161555 10.9828 0.328767 11 0.5 11C1.88071 11 3 9.88071 3 8.5C3 7.11929 1.88071 6 0.5 6C0.328767 6 0.161555 6.01722 0 6.05001V2.97758C0.164681 2.99242 0.331455 3 0.5 3C2.63734 3 4.48993 1.78084 5.40029 0H65.5997C66.4383 1.64041 68.0763 2.80423 70 2.97758V6.05001C68.8589 6.28164 68 7.29052 68 8.5C68 9.70948 68.8589 10.7184 70 10.95V14.05C68.8589 14.2816 68 15.2905 68 16.5C68 17.7095 68.8589 18.7184 70 18.95V22.05C68.8589 22.2816 68 23.2905 68 24.5C68 25.7095 68.8589 26.7184 70 26.95V31.05C68.8589 31.2816 68 32.2905 68 33.5C68 34.7095 68.8589 35.7184 70 35.95V39.0224C67.7048 39.2293 65.8162 40.846 65.207 43H5.79297C5.14004 40.6915 3.01755 39 0.5 39ZM20.9458 9.17145C20.4461 8.61349 19.6611 8.24912 18.9738 8.5465L17.8804 9.01854C17.3242 9.3061 16.897 9.79299 16.6842 10.3819C16.4715 10.9708 16.4888 11.6182 16.7329 12.1949L23.8552 27.9408C24.2088 28.7226 25.3244 28.7074 25.6565 27.9162L33.6941 8.46386L33.6967 8.45857C33.7746 8.26695 33.7788 8.0514 33.6934 7.86297L32.5098 5.25075C32.241 4.65407 31.7476 4.1875 31.1368 3.95233C30.526 3.71715 29.8471 3.73235 29.2475 3.99463L28.1812 4.51865C27.5309 4.83638 27.2899 5.62707 27.3596 6.34435C27.4234 6.98188 27.32 7.62503 27.0594 8.21037C26.7988 8.79572 26.3902 9.30304 25.8737 9.68231C25.3573 10.0616 24.7509 10.2997 24.1143 10.3732C23.4778 10.4467 22.8331 10.353 22.2438 10.1014C21.7481 9.8905 21.305 9.57298 20.9458 9.17145ZM50.6909 12.6038C49.9945 12.3325 49.22 12.7199 48.7446 13.2989L48.7447 13.2993C48.7447 13.2996 48.7448 13.2999 48.7451 13.2999L48.7454 13.3L48.7457 13.3003C48.7457 13.3004 48.7457 13.3006 48.7457 13.3007C48.7457 13.3008 48.7456 13.3009 48.7456 13.3009C48.412 13.7054 47.9981 14.0362 47.53 14.2724C47.0616 14.5087 46.5491 14.6452 46.0251 14.673C45.5011 14.7008 44.977 14.6194 44.4862 14.4339C43.9953 14.2484 43.5484 13.963 43.1737 13.5956C42.782 13.2102 42.4788 12.7442 42.2849 12.23C42.0911 11.7158 42.0113 11.1656 42.051 10.6175C42.1044 9.89551 41.8369 9.11339 41.1763 8.81773L40.0296 8.30475C39.4054 8.05704 38.7086 8.06546 38.0905 8.32819C37.4725 8.59091 36.9829 9.08674 36.7281 9.70809L28.6828 29.1763L27.4701 32.0626C27.2224 32.6868 27.2308 33.3835 27.4935 34.0016C27.7563 34.6196 28.2522 35.1091 28.8736 35.3638L29.3634 35.5629C30.3582 35.9671 31.4719 35.4525 32.3055 34.7757C33.3637 33.9165 34.8012 33.6339 36.1007 34.1625C37.3993 34.6907 38.2311 35.895 38.39 37.2476C38.5153 38.3142 38.9545 39.4598 39.9494 39.864L40.5916 40.1249C41.2158 40.3736 41.913 40.366 42.5316 40.1037C43.1503 39.8414 43.6405 39.3457 43.8957 38.7242L53.147 16.2806C53.3768 15.6809 53.372 15.0166 53.1335 14.4204C52.895 13.8241 52.4404 13.3397 51.8604 13.0639L50.6909 12.6038ZM44.7337 23.5807C45.0219 25.8675 43.4016 27.955 41.1148 28.2431C38.8279 28.5313 36.7405 26.911 36.4523 24.6242C36.1642 22.3374 37.7844 20.2499 40.0713 19.9618C42.3581 19.6736 44.4455 21.2938 44.7337 23.5807Z" fill="#D9D9D9"/>
</svg>
