<svg width="43" height="43" viewBox="0 0 43 43" fill="none" xmlns="http://www.w3.org/2000/svg">
<path d="M8.474 9.54652C9.16129 9.24914 9.94625 9.61351 10.446 10.1715C10.8051 10.573 11.2483 10.8905 11.744 11.1014C12.3333 11.353 12.978 11.4467 13.6145 11.3732C14.2511 11.2997 14.8575 11.0616 15.3739 10.6823C15.8903 10.3031 16.299 9.79573 16.5596 9.21039C16.8201 8.62504 16.9236 7.98189 16.8598 7.34437C16.79 6.62709 17.0311 5.8364 17.6813 5.51866L18.7477 4.99465C19.3473 4.73237 20.0262 4.71717 20.637 4.95234C21.2478 5.18752 21.7411 5.65408 22.01 6.25077L23.1936 8.86298C23.279 9.05142 23.2748 9.26697 23.1969 9.45859L23.1943 9.46387L15.1566 28.9162C14.8245 29.7074 13.709 29.7226 13.3554 28.9409L6.23303 13.1949C5.98901 12.6183 5.97164 11.9708 6.18439 11.3819C6.39714 10.793 6.82434 10.3061 7.38057 10.0186L8.474 9.54652Z" fill="#230B4A"/>
<path fill-rule="evenodd" clip-rule="evenodd" d="M38.2448 14.299C38.7202 13.7199 39.4946 13.3325 40.1911 13.6038L41.3605 14.064C41.9405 14.3397 42.3952 14.8241 42.6337 15.4204C42.8722 16.0166 42.877 16.6809 42.6472 17.2806L33.3959 39.7242C33.1406 40.3457 32.6505 40.8414 32.0318 41.1037C31.4132 41.366 30.716 41.3736 30.0918 41.1249L29.4496 40.864C28.4547 40.4598 28.0155 39.3142 27.8902 38.2477C27.7312 36.8951 26.8994 35.6907 25.6009 35.1625C24.3014 34.6339 22.8639 34.9165 21.8057 35.7757C20.9721 36.4525 19.8584 36.9671 18.8636 36.5629L18.3737 36.3638C17.7523 36.1091 17.2565 35.6196 16.9937 35.0016C16.731 34.3835 16.7226 33.6868 16.9703 33.0627L18.183 30.1763L26.2283 10.7081C26.4831 10.0868 26.9726 9.59093 27.5907 9.3282C28.2088 9.06548 28.9055 9.05706 29.5298 9.30476L30.6765 9.81774C31.3371 10.1134 31.6046 10.8955 31.5512 11.6175C31.5114 12.1656 31.5913 12.7158 31.7851 13.23C31.9789 13.7442 32.2822 14.2102 32.6739 14.5957C33.0485 14.963 33.4955 15.2485 33.9863 15.4339C34.4772 15.6194 35.0013 15.7008 35.5252 15.673C36.0492 15.6452 36.5617 15.5088 37.0302 15.2724C37.4983 15.0362 37.9122 14.7054 38.2457 14.3009C38.2461 14.3005 38.2458 14.2999 38.2453 14.3C38.2449 14.3 38.2448 14.2993 38.2448 14.299ZM30.615 29.2431C32.9018 28.955 34.522 26.8675 34.2339 24.5807C33.9457 22.2939 31.8583 20.6736 29.5714 20.9618C27.2846 21.2499 25.6644 23.3374 25.9525 25.6242C26.2407 27.911 28.3281 29.5313 30.615 29.2431Z" fill="#230B4A"/>
</svg>
