<svg width="868" height="154" viewBox="0 0 868 154" fill="none" xmlns="http://www.w3.org/2000/svg">
<path fill-rule="evenodd" clip-rule="evenodd" d="M865.769 70.0774L861.817 18.2815L855.724 18.7463C855.05 18.7977 854.463 18.2937 854.412 17.6206L853.668 7.87076C853.617 7.19768 854.121 6.61041 854.794 6.55906L860.887 6.09417L860.423 0.000526859L0 65.6426L0.464887 71.7362L6.55853 71.2713C7.23162 71.22 7.81889 71.724 7.87024 72.3971L8.61406 82.1469C8.66541 82.82 8.16139 83.4073 7.4883 83.4586L1.39466 83.9235L5.3462 135.719L12.6586 135.162L13.5883 147.349L6.27597 147.907L6.74086 154L867.163 88.3584L866.698 82.2647L860.605 82.7296C859.932 82.7809 859.344 82.2769 859.293 81.6038L858.549 71.854C858.498 71.1809 859.002 70.5937 859.675 70.5423L865.769 70.0774ZM16.3084 70.5275C15.6353 70.5789 15.1313 71.1661 15.1826 71.8392L15.9264 81.5891C15.9778 82.2621 16.5651 82.7662 17.2381 82.7148L26.988 81.971C27.661 81.9196 28.1651 81.3324 28.1137 80.6593L27.3699 70.9094C27.3185 70.2364 26.7313 69.7323 26.0582 69.7837L16.3084 70.5275ZM34.6823 70.3516C34.6309 69.6785 35.1349 69.0912 35.808 69.0399L45.5579 68.2961C46.2309 68.2447 46.8182 68.7487 46.8696 69.4218L47.6134 79.1716C47.6647 79.8447 47.1607 80.432 46.4876 80.4833L36.7378 81.2272C36.0647 81.2785 35.4774 80.7745 35.4261 80.1014L34.6823 70.3516ZM55.3077 67.5522C54.6346 67.6036 54.1306 68.1909 54.1819 68.8639L54.9257 78.6138C54.9771 79.2869 55.5644 79.7909 56.2375 79.7395L65.9873 78.9957C66.6604 78.9444 67.1644 78.3571 67.113 77.684L66.3692 67.9342C66.3179 67.2611 65.7306 66.7571 65.0575 66.8084L55.3077 67.5522ZM73.6816 67.3763C73.6302 66.7032 74.1343 66.1159 74.8073 66.0646L84.5572 65.3208C85.2303 65.2694 85.8175 65.7734 85.8689 66.4465L86.6127 76.1964C86.664 76.8694 86.16 77.4567 85.4869 77.5081L75.7371 78.2519C75.064 78.3032 74.4768 77.7992 74.4254 77.1261L73.6816 67.3763ZM94.307 64.577C93.6339 64.6283 93.1299 65.2156 93.1813 65.8887L93.9251 75.6385C93.9764 76.3116 94.5637 76.8156 95.2368 76.7642L104.987 76.0204C105.66 75.9691 106.164 75.3818 106.112 74.7087L105.369 64.9589C105.317 64.2858 104.73 63.7818 104.057 63.8331L94.307 64.577ZM112.681 64.401C112.63 63.7279 113.134 63.1407 113.807 63.0893L123.556 62.3455C124.23 62.2942 124.817 62.7982 124.868 63.4713L125.612 73.2211C125.663 73.8942 125.159 74.4814 124.486 74.5328L114.736 75.2766C114.063 75.328 113.476 74.8239 113.425 74.1509L112.681 64.401ZM133.306 61.6017C132.633 61.653 132.129 62.2403 132.181 62.9134L132.924 72.6632C132.976 73.3363 133.563 73.8403 134.236 73.789L143.986 73.0452C144.659 72.9938 145.163 72.4065 145.112 71.7334L144.368 61.9836C144.317 61.3105 143.729 60.8065 143.056 60.8579L133.306 61.6017ZM151.68 61.4258C151.629 60.7527 152.133 60.1654 152.806 60.114L162.556 59.3702C163.229 59.3189 163.816 59.8229 163.868 60.496L164.611 70.2458C164.663 70.9189 164.159 71.5062 163.486 71.5575L153.736 72.3013C153.063 72.3527 152.475 71.8487 152.424 71.1756L151.68 61.4258ZM172.306 58.6264C171.633 58.6778 171.129 59.265 171.18 59.9381L171.924 69.6879C171.975 70.361 172.562 70.865 173.235 70.8137L182.985 70.0699C183.658 70.0185 184.162 69.4313 184.111 68.7582L183.367 59.0083C183.316 58.3353 182.729 57.8312 182.055 57.8826L172.306 58.6264ZM190.68 58.4505C190.628 57.7774 191.132 57.1901 191.805 57.1388L201.555 56.3949C202.228 56.3436 202.815 56.8476 202.867 57.5207L203.611 67.2705C203.662 67.9436 203.158 68.5309 202.485 68.5822L192.735 69.3261C192.062 69.3774 191.475 68.8734 191.423 68.2003L190.68 58.4505ZM211.305 55.6511C210.632 55.7025 210.128 56.2898 210.179 56.9628L210.923 66.7127C210.974 67.3858 211.562 67.8898 212.235 67.8384L221.985 67.0946C222.658 67.0432 223.162 66.456 223.11 65.7829L222.367 56.0331C222.315 55.36 221.728 54.856 221.055 54.9073L211.305 55.6511ZM229.679 55.4752C229.628 54.8021 230.132 54.2148 230.805 54.1635L240.554 53.4197C241.228 53.3683 241.815 53.8723 241.866 54.5454L242.61 64.2953C242.661 64.9683 242.157 65.5556 241.484 65.607L231.734 66.3508C231.061 66.4021 230.474 65.8981 230.423 65.225L229.679 55.4752ZM250.304 52.6759C249.631 52.7272 249.127 53.3145 249.179 53.9876L249.922 63.7374C249.974 64.4105 250.561 64.9145 251.234 64.8631L260.984 64.1193C261.657 64.068 262.161 63.4807 262.11 62.8076L261.366 53.0578C261.314 52.3847 260.727 51.8807 260.054 51.932L250.304 52.6759ZM268.678 52.4999C268.627 51.8268 269.131 51.2396 269.804 51.1882L279.554 50.4444C280.227 50.393 280.814 50.8971 280.865 51.5701L281.609 61.32C281.661 61.9931 281.157 62.5803 280.484 62.6317L270.734 63.3755C270.061 63.4269 269.473 62.9228 269.422 62.2497L268.678 52.4999ZM289.304 49.7006C288.631 49.7519 288.127 50.3392 288.178 51.0123L288.922 60.7621C288.973 61.4352 289.56 61.9392 290.233 61.8879L299.983 61.144C300.656 61.0927 301.16 60.5054 301.109 59.8323L300.365 50.0825C300.314 49.4094 299.727 48.9054 299.053 48.9568L289.304 49.7006ZM307.678 49.5246C307.626 48.8516 308.13 48.2643 308.803 48.2129L318.553 47.4691C319.226 47.4178 319.813 47.9218 319.865 48.5949L320.609 58.3447C320.66 59.0178 320.156 59.6051 319.483 59.6564L309.733 60.4002C309.06 60.4516 308.473 59.9476 308.421 59.2745L307.678 49.5246ZM328.303 46.7253C327.63 46.7766 327.126 47.3639 327.177 48.037L327.921 57.7868C327.972 58.4599 328.56 58.9639 329.233 58.9126L338.983 58.1688C339.656 58.1174 340.16 57.5301 340.108 56.8571L339.364 47.1072C339.313 46.4341 338.726 45.9301 338.053 45.9815L328.303 46.7253ZM346.677 46.5494C346.625 45.8763 347.13 45.289 347.803 45.2377L357.552 44.4938C358.225 44.4425 358.813 44.9465 358.864 45.6196L359.608 55.3694C359.659 56.0425 359.155 56.6298 358.482 56.6811L348.732 57.4249C348.059 57.4763 347.472 56.9723 347.421 56.2992L346.677 46.5494ZM367.302 43.75C366.629 43.8014 366.125 44.3886 366.176 45.0617L366.92 54.8116C366.972 55.4846 367.559 55.9887 368.232 55.9373L377.982 55.1935C378.655 55.1421 379.159 54.5549 379.108 53.8818L378.364 44.132C378.312 43.4589 377.725 42.9549 377.052 43.0062L367.302 43.75ZM385.676 43.5741C385.625 42.901 386.129 42.3137 386.802 42.2624L396.552 41.5186C397.225 41.4672 397.812 41.9712 397.863 42.6443L398.607 52.3941C398.659 53.0672 398.155 53.6545 397.482 53.7058L387.732 54.4497C387.059 54.501 386.471 53.997 386.42 53.3239L385.676 43.5741ZM406.302 40.7747C405.628 40.8261 405.124 41.4134 405.176 42.0864L405.92 51.8363C405.971 52.5094 406.558 53.0134 407.231 52.962L416.981 52.2182C417.654 52.1669 418.158 51.5796 418.107 50.9065L417.363 41.1567C417.312 40.4836 416.724 39.9796 416.051 40.0309L406.302 40.7747ZM424.675 40.5988C424.624 39.9257 425.128 39.3385 425.801 39.2871L435.551 38.5433C436.224 38.4919 436.811 38.996 436.863 39.669L437.607 49.4189C437.658 50.092 437.154 50.6792 436.481 50.7306L426.731 51.4744C426.058 51.5257 425.471 51.0217 425.419 50.3486L424.675 40.5988ZM445.301 37.7995C444.628 37.8508 444.124 38.4381 444.175 39.1112L444.919 48.861C444.97 49.5341 445.558 50.0381 446.231 49.9868L455.98 49.2429C456.654 49.1916 457.158 48.6043 457.106 47.9312L456.362 38.1814C456.311 37.5083 455.724 37.0043 455.051 37.0556L445.301 37.7995ZM463.675 37.6235C463.623 36.9504 464.127 36.3632 464.801 36.3118L474.55 35.568C475.223 35.5167 475.811 36.0207 475.862 36.6938L476.606 46.4436C476.657 47.1167 476.153 47.7039 475.48 47.7553L465.73 48.4991C465.057 48.5505 464.47 48.0464 464.419 47.3734L463.675 37.6235ZM484.3 34.8242C483.627 34.8755 483.123 35.4628 483.174 36.1359L483.918 45.8857C483.97 46.5588 484.557 47.0628 485.23 47.0115L494.98 46.2677C495.653 46.2163 496.157 45.629 496.106 44.956L495.362 35.2061C495.31 34.533 494.723 34.029 494.05 34.0804L484.3 34.8242ZM502.674 34.6483C502.623 33.9752 503.127 33.3879 503.8 33.3366L513.55 32.5927C514.223 32.5414 514.81 33.0454 514.861 33.7185L515.605 43.4683C515.657 44.1414 515.153 44.7287 514.479 44.78L504.73 45.5238C504.057 45.5752 503.469 45.0712 503.418 44.3981L502.674 34.6483ZM523.3 31.8489C522.626 31.9003 522.122 32.4875 522.174 33.1606L522.918 42.9104C522.969 43.5835 523.556 44.0875 524.229 44.0362L533.979 43.2924C534.652 43.241 535.156 42.6538 535.105 41.9807L534.361 32.2308C534.31 31.5578 533.722 31.0537 533.049 31.1051L523.3 31.8489ZM541.673 31.673C541.622 30.9999 542.126 30.4126 542.799 30.3613L552.549 29.6175C553.222 29.5661 553.809 30.0701 553.861 30.7432L554.605 40.493C554.656 41.1661 554.152 41.7534 553.479 41.8047L543.729 42.5486C543.056 42.5999 542.469 42.0959 542.417 41.4228L541.673 31.673ZM562.299 28.8736C561.626 28.925 561.122 29.5123 561.173 30.1853L561.917 39.9352C561.968 40.6083 562.556 41.1123 563.229 41.0609L572.978 40.3171C573.652 40.2658 574.156 39.6785 574.104 39.0054L573.36 29.2556C573.309 28.5825 572.722 28.0785 572.049 28.1298L562.299 28.8736ZM580.673 28.6977C580.621 28.0246 581.125 27.4373 581.799 27.386L591.548 26.6422C592.221 26.5908 592.809 27.0948 592.86 27.7679L593.604 37.5178C593.655 38.1908 593.151 38.7781 592.478 38.8295L582.728 39.5733C582.055 39.6246 581.468 39.1206 581.417 38.4475L580.673 28.6977ZM601.298 25.8984C600.625 25.9497 600.121 26.537 600.172 27.2101L600.916 36.9599C600.968 37.633 601.555 38.137 602.228 38.0856L611.978 37.3418C612.651 37.2905 613.155 36.7032 613.104 36.0301L612.36 26.2803C612.308 25.6072 611.721 25.1032 611.048 25.1545L601.298 25.8984ZM619.672 25.7224C619.621 25.0493 620.125 24.4621 620.798 24.4107L630.548 23.6669C631.221 23.6155 631.808 24.1196 631.859 24.7927L632.603 34.5425C632.655 35.2156 632.151 35.8028 631.477 35.8542L621.728 36.598C621.055 36.6494 620.467 36.1453 620.416 35.4723L619.672 25.7224ZM640.297 22.9231C639.624 22.9744 639.12 23.5617 639.172 24.2348L639.916 33.9846C639.967 34.6577 640.554 35.1617 641.227 35.1104L650.977 34.3665C651.65 34.3152 652.154 33.7279 652.103 33.0548L651.359 23.305C651.308 22.6319 650.72 22.1279 650.047 22.1793L640.297 22.9231ZM658.671 22.7471C658.62 22.0741 659.124 21.4868 659.797 21.4354L669.547 20.6916C670.22 20.6403 670.807 21.1443 670.859 21.8174L671.603 31.5672C671.654 32.2403 671.15 32.8276 670.477 32.8789L660.727 33.6227C660.054 33.6741 659.467 33.1701 659.415 32.497L658.671 22.7471ZM679.297 19.9478C678.624 19.9992 678.12 20.5864 678.171 21.2595L678.915 31.0093C678.966 31.6824 679.553 32.1864 680.227 32.1351L689.976 31.3913C690.65 31.3399 691.154 30.7526 691.102 30.0796L690.358 20.3297C690.307 19.6567 689.72 19.1526 689.047 19.204L679.297 19.9478ZM697.671 19.7719C697.619 19.0988 698.123 18.5115 698.796 18.4602L708.546 17.7163C709.219 17.665 709.807 18.169 709.858 18.8421L710.602 28.5919C710.653 29.265 710.149 29.8523 709.476 29.9036L699.726 30.6475C699.053 30.6988 698.466 30.1948 698.415 29.5217L697.671 19.7719ZM718.296 16.9725C717.623 17.0239 717.119 17.6111 717.17 18.2842L717.914 28.0341C717.966 28.7071 718.553 29.2112 719.226 29.1598L728.976 28.416C729.649 28.3646 730.153 27.7774 730.101 27.1043L729.358 17.3545C729.306 16.6814 728.719 16.1774 728.046 16.2287L718.296 16.9725ZM736.67 16.7966C736.619 16.1235 737.123 15.5362 737.796 15.4849L747.546 14.7411C748.219 14.6897 748.806 15.1937 748.857 15.8668L749.601 25.6166C749.652 26.2897 749.149 26.877 748.475 26.9284L738.726 27.6722C738.052 27.7235 737.465 27.2195 737.414 26.5464L736.67 16.7966ZM757.295 13.9972C756.622 14.0486 756.118 14.6359 756.17 15.309L756.914 25.0588C756.965 25.7319 757.552 26.2359 758.225 26.1845L767.975 25.4407C768.648 25.3894 769.152 24.8021 769.101 24.129L768.357 14.3792C768.306 13.7061 767.718 13.2021 767.045 13.2534L757.295 13.9972ZM775.669 13.8213C775.618 13.1482 776.122 12.561 776.795 12.5096L786.545 11.7658C787.218 11.7144 787.805 12.2185 787.857 12.8915L788.6 22.6414C788.652 23.3145 788.148 23.9017 787.475 23.9531L777.725 24.6969C777.052 24.7482 776.465 24.2442 776.413 23.5711L775.669 13.8213ZM796.295 11.022C795.622 11.0733 795.118 11.6606 795.169 12.3337L795.913 22.0835C795.964 22.7566 796.551 23.2606 797.225 23.2093L806.974 22.4654C807.647 22.4141 808.151 21.8268 808.1 21.1537L807.356 11.4039C807.305 10.7308 806.718 10.2268 806.045 10.2782L796.295 11.022ZM814.669 10.846C814.617 10.173 815.121 9.58569 815.794 9.53433L825.544 8.79051C826.217 8.73916 826.805 9.24318 826.856 9.91627L827.6 19.6661C827.651 20.3392 827.147 20.9264 826.474 20.9778L816.724 21.7216C816.051 21.773 815.464 21.269 815.413 20.5959L814.669 10.846ZM835.294 8.0467C834.621 8.09805 834.117 8.68532 834.168 9.3584L834.912 19.1082C834.964 19.7813 835.551 20.2853 836.224 20.234L845.974 19.4902C846.647 19.4388 847.151 18.8515 847.099 18.1785L846.356 8.42863C846.304 7.75554 845.717 7.25152 845.044 7.30288L835.294 8.0467ZM19.9709 134.604L32.1582 133.674L33.088 145.861L20.9007 146.791L19.9709 134.604ZM51.6579 132.186L39.4706 133.116L40.4004 145.303L52.5877 144.374L51.6579 132.186ZM58.9703 131.628L71.1576 130.699L72.0873 142.886L59.9 143.816L58.9703 131.628ZM90.6572 129.211L78.4699 130.141L79.3997 142.328L91.587 141.398L90.6572 129.211ZM97.9696 128.653L110.157 127.723L111.087 139.911L98.8994 140.84L97.9696 128.653ZM129.657 126.236L117.469 127.166L118.399 139.353L130.586 138.423L129.657 126.236ZM136.969 125.678L149.156 124.748L150.086 136.935L137.899 137.865L136.969 125.678ZM168.656 123.261L156.469 124.19L157.398 136.378L169.586 135.448L168.656 123.261ZM175.968 122.703L188.156 121.773L189.085 133.96L176.898 134.89L175.968 122.703ZM207.655 120.285L195.468 121.215L196.398 133.402L208.585 132.473L207.655 120.285ZM215.061 120.946C215.009 120.273 215.513 119.686 216.186 119.634L225.936 118.891C226.609 118.839 227.196 119.343 227.248 120.016L227.992 129.766C228.043 130.439 227.539 131.027 226.866 131.078L217.116 131.822C216.443 131.873 215.856 131.369 215.804 130.696L215.061 120.946ZM235.686 118.147C235.013 118.198 234.509 118.785 234.56 119.458L235.304 129.208C235.355 129.881 235.943 130.385 236.616 130.334L246.366 129.59C247.039 129.539 247.543 128.952 247.491 128.279L246.747 118.529C246.696 117.856 246.109 117.352 245.436 117.403L235.686 118.147ZM254.06 117.971C254.008 117.298 254.513 116.71 255.186 116.659L264.935 115.915C265.609 115.864 266.196 116.368 266.247 117.041L266.991 126.791C267.042 127.464 266.538 128.051 265.865 128.103L256.115 128.846C255.442 128.898 254.855 128.394 254.804 127.721L254.06 117.971ZM274.685 115.171C274.012 115.223 273.508 115.81 273.56 116.483L274.303 126.233C274.355 126.906 274.942 127.41 275.615 127.359L285.365 126.615C286.038 126.564 286.542 125.976 286.491 125.303L285.747 115.553C285.695 114.88 285.108 114.376 284.435 114.428L274.685 115.171ZM293.059 114.996C293.008 114.322 293.512 113.735 294.185 113.684L303.935 112.94C304.608 112.889 305.195 113.393 305.246 114.066L305.99 123.816C306.042 124.489 305.538 125.076 304.865 125.127L295.115 125.871C294.442 125.922 293.854 125.418 293.803 124.745L293.059 114.996ZM313.685 112.196C313.011 112.248 312.507 112.835 312.559 113.508L313.303 123.258C313.354 123.931 313.941 124.435 314.614 124.383L324.364 123.64C325.037 123.588 325.541 123.001 325.49 122.328L324.746 112.578C324.695 111.905 324.107 111.401 323.434 111.452L313.685 112.196ZM332.058 112.02C332.007 111.347 332.511 110.76 333.184 110.709L342.934 109.965C343.607 109.913 344.194 110.417 344.246 111.09L344.99 120.84C345.041 121.513 344.537 122.101 343.864 122.152L334.114 122.896C333.441 122.947 332.854 122.443 332.802 121.77L332.058 112.02ZM352.684 109.221C352.011 109.272 351.507 109.86 351.558 110.533L352.302 120.282C352.353 120.956 352.941 121.46 353.614 121.408L363.364 120.664C364.037 120.613 364.541 120.026 364.489 119.353L363.745 109.603C363.694 108.93 363.107 108.426 362.434 108.477L352.684 109.221ZM371.058 109.045C371.006 108.372 371.51 107.785 372.184 107.733L381.933 106.989C382.606 106.938 383.194 107.442 383.245 108.115L383.989 117.865C384.04 118.538 383.536 119.125 382.863 119.177L373.113 119.921C372.44 119.972 371.853 119.468 371.802 118.795L371.058 109.045ZM391.683 106.246C391.01 106.297 390.506 106.884 390.557 107.557L391.301 117.307C391.353 117.98 391.94 118.484 392.613 118.433L402.363 117.689C403.036 117.638 403.54 117.05 403.489 116.377L402.745 106.628C402.693 105.954 402.106 105.45 401.433 105.502L391.683 106.246ZM410.057 106.07C410.006 105.397 410.51 104.809 411.183 104.758L420.933 104.014C421.606 103.963 422.193 104.467 422.244 105.14L422.988 114.89C423.04 115.563 422.536 116.15 421.862 116.201L412.113 116.945C411.44 116.997 410.852 116.493 410.801 115.82L410.057 106.07ZM430.683 103.27C430.009 103.322 429.505 103.909 429.557 104.582L430.301 114.332C430.352 115.005 430.939 115.509 431.612 115.458L441.362 114.714C442.035 114.662 442.539 114.075 442.488 113.402L441.744 103.652C441.693 102.979 441.105 102.475 440.432 102.527L430.683 103.27ZM449.056 103.094C449.005 102.421 449.509 101.834 450.182 101.783L459.932 101.039C460.605 100.988 461.192 101.492 461.244 102.165L461.988 111.914C462.039 112.588 461.535 113.175 460.862 113.226L451.112 113.97C450.439 114.021 449.852 113.517 449.8 112.844L449.056 103.094ZM469.682 100.295C469.009 100.346 468.505 100.934 468.556 101.607L469.3 111.357C469.351 112.03 469.939 112.534 470.612 112.482L480.361 111.739C481.035 111.687 481.539 111.1 481.487 110.427L480.743 100.677C480.692 100.004 480.105 99.4999 479.432 99.5513L469.682 100.295ZM488.056 100.119C488.004 99.4461 488.508 98.8588 489.182 98.8074L498.931 98.0636C499.604 98.0123 500.192 98.5163 500.243 99.1894L500.987 108.939C501.038 109.612 500.534 110.2 499.861 110.251L490.111 110.995C489.438 111.046 488.851 110.542 488.8 109.869L488.056 100.119ZM508.681 97.3198C508.008 97.3712 507.504 97.9584 507.555 98.6315L508.299 108.381C508.351 109.054 508.938 109.558 509.611 109.507L519.361 108.763C520.034 108.712 520.538 108.125 520.487 107.452L519.743 97.7017C519.691 97.0287 519.104 96.5246 518.431 96.576L508.681 97.3198ZM527.055 97.1439C527.004 96.4708 527.508 95.8835 528.181 95.8322L537.931 95.0883C538.604 95.037 539.191 95.541 539.242 96.2141L539.986 105.964C540.038 106.637 539.534 107.224 538.86 107.276L529.111 108.019C528.438 108.071 527.85 107.567 527.799 106.894L527.055 97.1439ZM547.681 94.3445C547.007 94.3959 546.503 94.9831 546.555 95.6562L547.299 105.406C547.35 106.079 547.937 106.583 548.61 106.532L558.36 105.788C559.033 105.737 559.537 105.149 559.486 104.476L558.742 94.7265C558.691 94.0534 558.103 93.5494 557.43 93.6007L547.681 94.3445ZM566.054 94.1686C566.003 93.4955 566.507 92.9082 567.18 92.8569L576.93 92.1131C577.603 92.0617 578.19 92.5657 578.242 93.2388L578.986 102.989C579.037 103.662 578.533 104.249 577.86 104.3L568.11 105.044C567.437 105.096 566.85 104.592 566.798 103.918L566.054 94.1686ZM586.68 91.3693C586.007 91.4206 585.503 92.0079 585.554 92.681L586.298 102.431C586.349 103.104 586.937 103.608 587.61 103.557L597.359 102.813C598.033 102.761 598.537 102.174 598.485 101.501L597.741 91.7512C597.69 91.0781 597.103 90.5741 596.43 90.6254L586.68 91.3693ZM605.054 91.1933C605.002 90.5202 605.506 89.933 606.179 89.8816L615.929 89.1378C616.602 89.0864 617.19 89.5905 617.241 90.2635L617.985 100.013C618.036 100.686 617.532 101.274 616.859 101.325L607.109 102.069C606.436 102.12 605.849 101.616 605.798 100.943L605.054 91.1933ZM625.679 88.394C625.006 88.4453 624.502 89.0326 624.553 89.7057L625.297 99.4555C625.349 100.129 625.936 100.633 626.609 100.581L636.359 99.8374C637.032 99.7861 637.536 99.1988 637.484 98.5257L636.741 88.7759C636.689 88.1028 636.102 87.5988 635.429 87.6502L625.679 88.394ZM644.053 88.218C644.002 87.545 644.506 86.9577 645.179 86.9063L654.929 86.1625C655.602 86.1112 656.189 86.6152 656.24 87.2883L656.984 97.0381C657.036 97.7112 656.532 98.2985 655.858 98.3498L646.109 99.0936C645.435 99.145 644.848 98.641 644.797 97.9679L644.053 88.218ZM664.678 85.4187C664.005 85.47 663.501 86.0573 663.553 86.7304L664.297 96.4802C664.348 97.1533 664.935 97.6573 665.608 97.606L675.358 96.8622C676.031 96.8108 676.535 96.2235 676.484 95.5505L675.74 85.8006C675.689 85.1275 675.101 84.6235 674.428 84.6749L664.678 85.4187ZM683.052 85.2428C683.001 84.5697 683.505 83.9824 684.178 83.9311L693.928 83.1872C694.601 83.1359 695.188 83.6399 695.24 84.313L695.983 94.0628C696.035 94.7359 695.531 95.3232 694.858 95.3745L685.108 96.1183C684.435 96.1697 683.848 95.6657 683.796 94.9926L683.052 85.2428ZM703.678 82.4434C703.005 82.4948 702.501 83.082 702.552 83.7551L703.296 93.505C703.347 94.178 703.934 94.6821 704.608 94.6307L714.357 93.8869C715.031 93.8355 715.534 93.2483 715.483 92.5752L714.739 82.8254C714.688 82.1523 714.101 81.6482 713.428 81.6996L703.678 82.4434ZM722.052 82.2675C722 81.5944 722.504 81.0071 723.177 80.9558L732.927 80.212C733.6 80.1606 734.188 80.6646 734.239 81.3377L734.983 91.0875C735.034 91.7606 734.53 92.3479 733.857 92.3992L724.107 93.1431C723.434 93.1944 722.847 92.6904 722.796 92.0173L722.052 82.2675ZM742.677 79.4681C742.004 79.5195 741.5 80.1068 741.551 80.7798L742.295 90.5297C742.347 91.2028 742.934 91.7068 743.607 91.6554L753.357 90.9116C754.03 90.8603 754.534 90.273 754.482 89.5999L753.739 79.8501C753.687 79.177 753.1 78.673 752.427 78.7243L742.677 79.4681ZM761.051 79.2922C761 78.6191 761.504 78.0319 762.177 77.9805L771.927 77.2367C772.6 77.1853 773.187 77.6894 773.238 78.3624L773.982 88.1123C774.033 88.7853 773.529 89.3726 772.856 89.424L763.107 90.1678C762.433 90.2191 761.846 89.7151 761.795 89.042L761.051 79.2922ZM781.676 76.4929C781.003 76.5442 780.499 77.1315 780.551 77.8046L781.294 87.5544C781.346 88.2275 781.933 88.7315 782.606 88.6802L792.356 87.9363C793.029 87.885 793.533 87.2977 793.482 86.6246L792.738 76.8748C792.687 76.2017 792.099 75.6977 791.426 75.749L781.676 76.4929ZM800.05 76.3169C799.999 75.6438 800.503 75.0566 801.176 75.0052L810.926 74.2614C811.599 74.2101 812.186 74.7141 812.238 75.3872L812.981 85.137C813.033 85.8101 812.529 86.3973 811.856 86.4487L802.106 87.1925C801.433 87.2439 800.846 86.7398 800.794 86.0668L800.05 76.3169ZM820.676 73.5176C820.003 73.5689 819.499 74.1562 819.55 74.8293L820.294 84.5791C820.345 85.2522 820.932 85.7562 821.606 85.7049L831.355 84.9611C832.028 84.9097 832.532 84.3224 832.481 83.6493L831.737 73.8995C831.686 73.2264 831.099 72.7224 830.426 72.7738L820.676 73.5176ZM839.05 73.3417C838.998 72.6686 839.502 72.0813 840.175 72.0299L849.925 71.2861C850.598 71.2348 851.186 71.7388 851.237 72.4119L851.981 82.1617C852.032 82.8348 851.528 83.4221 850.855 83.4734L841.105 84.2172C840.432 84.2686 839.845 83.7646 839.793 83.0915L839.05 73.3417Z" fill="#A58CCF"/>
</svg>
