<svg width="1419" height="252" viewBox="0 0 1419 252" fill="none" xmlns="http://www.w3.org/2000/svg">
<path fill-rule="evenodd" clip-rule="evenodd" d="M1416.66 114.667L1410.19 29.9132L1400.22 30.6739C1399.12 30.7579 1398.16 29.9332 1398.07 28.8318L1396.86 12.8782C1396.77 11.7768 1397.6 10.8159 1398.7 10.7318L1408.67 9.97115L1407.91 0.000121772L0 107.41L0.760694 117.381L10.7317 116.62C11.8331 116.536 12.794 117.361 12.8781 118.463L14.0952 134.416C14.1792 135.518 13.3545 136.479 12.2531 136.563L2.28208 137.323L8.74798 222.077L20.7132 221.164L22.2346 241.106L10.2694 242.019L11.0301 251.99L1418.94 144.58L1418.18 134.609L1408.21 135.37C1407.11 135.454 1406.14 134.629 1406.06 133.528L1404.84 117.574C1404.76 116.473 1405.58 115.512 1406.69 115.428L1416.66 114.667ZM26.6854 115.403C25.584 115.487 24.7593 116.448 24.8433 117.55L26.0604 133.503C26.1444 134.605 27.1054 135.429 28.2067 135.345L44.1604 134.128C45.2618 134.044 46.0865 133.083 46.0025 131.982L44.7853 116.028C44.7013 114.927 43.7404 114.102 42.639 114.186L26.6854 115.403ZM56.7506 115.115C56.6665 114.014 57.4913 113.053 58.5926 112.969L74.5463 111.752C75.6476 111.668 76.6086 112.493 76.6926 113.594L77.9097 129.548C77.9938 130.649 77.169 131.61 76.0677 131.694L60.114 132.911C59.0127 132.995 58.0517 132.171 57.9677 131.069L56.7506 115.115ZM90.4999 110.535C89.3985 110.619 88.5738 111.58 88.6578 112.681L89.875 128.635C89.959 129.736 90.9199 130.561 92.0213 130.477L107.975 129.26C109.076 129.176 109.901 128.215 109.817 127.114L108.6 111.16C108.516 110.059 107.555 109.234 106.454 109.318L90.4999 110.535ZM120.565 110.247C120.481 109.146 121.306 108.185 122.407 108.101L138.361 106.884C139.462 106.8 140.423 107.624 140.507 108.726L141.724 124.679C141.808 125.781 140.984 126.742 139.882 126.826L123.929 128.043C122.827 128.127 121.866 127.302 121.782 126.201L120.565 110.247ZM154.314 105.666C153.213 105.751 152.388 106.711 152.472 107.813L153.69 123.766C153.774 124.868 154.734 125.693 155.836 125.609L171.789 124.391C172.891 124.307 173.716 123.346 173.632 122.245L172.414 106.291C172.33 105.19 171.369 104.365 170.268 104.449L154.314 105.666ZM184.38 105.379C184.296 104.277 185.12 103.316 186.222 103.232L202.175 102.015C203.277 101.931 204.238 102.756 204.322 103.857L205.539 119.811C205.623 120.912 204.798 121.873 203.697 121.957L187.743 123.174C186.642 123.258 185.681 122.434 185.597 121.332L184.38 105.379ZM218.129 100.798C217.028 100.882 216.203 101.843 216.287 102.944L217.504 118.898C217.588 119.999 218.549 120.824 219.65 120.74L235.604 119.523C236.705 119.439 237.53 118.478 237.446 117.377L236.229 101.423C236.145 100.322 235.184 99.4969 234.083 99.5809L218.129 100.798ZM248.194 100.51C248.11 99.4088 248.935 98.4478 250.036 98.3638L265.99 97.1467C267.091 97.0627 268.052 97.8874 268.136 98.9888L269.353 114.942C269.437 116.044 268.613 117.005 267.511 117.089L251.558 118.306C250.456 118.39 249.495 117.565 249.411 116.464L248.194 100.51ZM281.944 95.9296C280.842 96.0136 280.017 96.9746 280.102 98.0759L281.319 114.03C281.403 115.131 282.364 115.956 283.465 115.872L299.419 114.655C300.52 114.571 301.345 113.61 301.261 112.508L300.044 96.5546C299.96 95.4532 298.999 94.6285 297.897 94.7125L281.944 95.9296ZM312.009 95.6417C311.925 94.5404 312.749 93.5794 313.851 93.4954L329.804 92.2783C330.906 92.1942 331.867 93.019 331.951 94.1203L333.168 110.074C333.252 111.175 332.427 112.136 331.326 112.22L315.372 113.437C314.271 113.521 313.31 112.697 313.226 111.595L312.009 95.6417ZM345.758 91.0612C344.657 91.1452 343.832 92.1061 343.916 93.2075L345.133 109.161C345.217 110.263 346.178 111.087 347.28 111.003L363.233 109.786C364.335 109.702 365.159 108.741 365.075 107.64L363.858 91.6861C363.774 90.5847 362.813 89.76 361.712 89.844L345.758 91.0612ZM375.823 90.7733C375.739 89.6719 376.564 88.711 377.665 88.6269L393.619 87.4098C394.72 87.3258 395.681 88.1505 395.765 89.2519L396.983 105.206C397.067 106.307 396.242 107.268 395.14 107.352L379.187 108.569C378.085 108.653 377.124 107.828 377.04 106.727L375.823 90.7733ZM409.573 86.1927C408.471 86.2767 407.647 87.2377 407.731 88.3391L408.948 104.293C409.032 105.394 409.993 106.219 411.094 106.135L427.048 104.918C428.149 104.834 428.974 103.873 428.89 102.771L427.673 86.8177C427.589 85.7163 426.628 84.8916 425.526 84.9756L409.573 86.1927ZM439.638 85.9048C439.554 84.8035 440.379 83.8425 441.48 83.7585L457.434 82.5414C458.535 82.4574 459.496 83.2821 459.58 84.3834L460.797 100.337C460.881 101.438 460.056 102.399 458.955 102.483L443.001 103.701C441.9 103.785 440.939 102.96 440.855 101.858L439.638 85.9048ZM473.387 81.3243C472.286 81.4083 471.461 82.3692 471.545 83.4706L472.762 99.4243C472.846 100.526 473.807 101.35 474.909 101.266L490.862 100.049C491.964 99.9652 492.788 99.0042 492.704 97.9029L491.487 81.9492C491.403 80.8479 490.442 80.0231 489.341 80.1072L473.387 81.3243ZM503.452 81.0364C503.368 79.935 504.193 78.9741 505.295 78.89L521.248 77.6729C522.35 77.5889 523.31 78.4136 523.395 79.515L524.612 95.4686C524.696 96.57 523.871 97.531 522.77 97.615L506.816 98.8321C505.715 98.9161 504.754 98.0914 504.67 96.99L503.452 81.0364ZM537.202 76.4558C536.1 76.5399 535.276 77.5008 535.36 78.6022L536.577 94.5558C536.661 95.6572 537.622 96.4819 538.723 96.3979L554.677 95.1808C555.778 95.0967 556.603 94.1358 556.519 93.0344L555.302 77.0808C555.218 75.9794 554.257 75.1547 553.155 75.2387L537.202 76.4558ZM567.267 76.1679C567.183 75.0666 568.008 74.1056 569.109 74.0216L585.063 72.8045C586.164 72.7205 587.125 73.5452 587.209 74.6466L588.426 90.6002C588.51 91.7016 587.685 92.6625 586.584 92.7465L570.63 93.9637C569.529 94.0477 568.568 93.223 568.484 92.1216L567.267 76.1679ZM601.016 71.5874C599.915 71.6714 599.09 72.6324 599.174 73.7337L600.391 89.6874C600.475 90.7887 601.436 91.6135 602.538 91.5294L618.491 90.3123C619.593 90.2283 620.417 89.2673 620.333 88.166L619.116 72.2123C619.032 71.111 618.071 70.2863 616.97 70.3703L601.016 71.5874ZM631.082 71.2995C630.998 70.1981 631.822 69.2372 632.924 69.1532L648.877 67.9361C649.979 67.852 650.94 68.6767 651.024 69.7781L652.241 85.7318C652.325 86.8331 651.5 87.7941 650.399 87.8781L634.445 89.0952C633.344 89.1792 632.383 88.3545 632.299 87.2531L631.082 71.2995ZM664.831 66.7189C663.73 66.803 662.905 67.7639 662.989 68.8653L664.206 84.8189C664.29 85.9203 665.251 86.745 666.352 86.661L682.306 85.4439C683.407 85.3599 684.232 84.3989 684.148 83.2975L682.931 67.3439C682.847 66.2425 681.886 65.4178 680.785 65.5018L664.831 66.7189ZM694.896 66.4311C694.812 65.3297 695.637 64.3687 696.738 64.2847L712.692 63.0676C713.793 62.9836 714.754 63.8083 714.838 64.9097L716.055 80.8633C716.139 81.9647 715.315 82.9256 714.213 83.0097L698.26 84.2268C697.158 84.3108 696.197 83.4861 696.113 82.3847L694.896 66.4311ZM728.645 61.8505C727.544 61.9345 726.719 62.8955 726.803 63.9968L728.021 79.9505C728.105 81.0518 729.066 81.8766 730.167 81.7925L746.121 80.5754C747.222 80.4914 748.047 79.5305 747.963 78.4291L746.745 62.4755C746.661 61.3741 745.7 60.5494 744.599 60.6334L728.645 61.8505ZM758.711 61.5626C758.627 60.4613 759.451 59.5003 760.553 59.4163L776.506 58.1992C777.608 58.1151 778.569 58.9399 778.653 60.0412L779.87 75.9949C779.954 77.0962 779.129 78.0572 778.028 78.1412L762.074 79.3583C760.973 79.4423 760.012 78.6176 759.928 77.5163L758.711 61.5626ZM792.46 56.9821C791.359 57.0661 790.534 58.027 790.618 59.1284L791.835 75.082C791.919 76.1834 792.88 77.0081 793.981 76.9241L809.935 75.707C811.036 75.623 811.861 74.662 811.777 73.5606L810.56 57.607C810.476 56.5056 809.515 55.6809 808.414 55.7649L792.46 56.9821ZM822.525 56.6942C822.441 55.5928 823.266 54.6319 824.367 54.5478L840.321 53.3307C841.422 53.2467 842.383 54.0714 842.467 55.1728L843.684 71.1264C843.768 72.2278 842.944 73.1887 841.842 73.2728L825.889 74.4899C824.787 74.5739 823.826 73.7492 823.742 72.6478L822.525 56.6942ZM856.275 52.1136C855.173 52.1976 854.348 53.1586 854.433 54.26L855.65 70.2136C855.734 71.315 856.695 72.1397 857.796 72.0557L873.75 70.8385C874.851 70.7545 875.676 69.7936 875.592 68.6922L874.375 52.7386C874.291 51.6372 873.33 50.8125 872.228 50.8965L856.275 52.1136ZM886.34 51.8257C886.256 50.7244 887.081 49.7634 888.182 49.6794L904.136 48.4623C905.237 48.3783 906.198 49.203 906.282 50.3043L907.499 66.258C907.583 67.3594 906.758 68.3203 905.657 68.4043L889.703 69.6214C888.602 69.7055 887.641 68.8807 887.557 67.7794L886.34 51.8257ZM920.089 47.2452C918.988 47.3292 918.163 48.2901 918.247 49.3915L919.464 65.3451C919.548 66.4465 920.509 67.2712 921.611 67.1872L937.564 65.9701C938.666 65.8861 939.49 64.9251 939.406 63.8238L938.189 47.8701C938.105 46.7688 937.144 45.944 936.043 46.0281L920.089 47.2452ZM950.154 46.9573C950.07 45.8559 950.895 44.895 951.996 44.8109L967.95 43.5938C969.051 43.5098 970.012 44.3345 970.096 45.4359L971.314 61.3895C971.398 62.4909 970.573 63.4519 969.471 63.5359L953.518 64.753C952.416 64.837 951.455 64.0123 951.371 62.9109L950.154 46.9573ZM983.904 42.3767C982.802 42.4607 981.978 43.4217 982.062 44.5231L983.279 60.4767C983.363 61.5781 984.324 62.4028 985.425 62.3188L1001.38 61.1017C1002.48 61.0176 1003.3 60.0567 1003.22 58.9553L1002 43.0017C1001.92 41.9003 1000.96 41.0756 999.857 41.1596L983.904 42.3767ZM1013.97 42.0888C1013.88 40.9875 1014.71 40.0265 1015.81 39.9425L1031.76 38.7254C1032.87 38.6414 1033.83 39.4661 1033.91 40.5675L1035.13 56.5211C1035.21 57.6225 1034.39 58.5834 1033.29 58.6674L1017.33 59.8846C1016.23 59.9686 1015.27 59.1439 1015.19 58.0425L1013.97 42.0888ZM1047.72 37.5083C1046.62 37.5923 1045.79 38.5533 1045.88 39.6546L1047.09 55.6083C1047.18 56.7096 1048.14 57.5344 1049.24 57.4503L1065.19 56.2332C1066.29 56.1492 1067.12 55.1882 1067.04 54.0869L1065.82 38.1332C1065.73 37.0319 1064.77 36.2071 1063.67 36.2912L1047.72 37.5083ZM1077.78 37.2204C1077.7 36.119 1078.52 35.1581 1079.63 35.0741L1095.58 33.8569C1096.68 33.7729 1097.64 34.5976 1097.73 35.699L1098.94 51.6527C1099.03 52.754 1098.2 53.715 1097.1 53.799L1081.15 55.0161C1080.05 55.1001 1079.08 54.2754 1079 53.174L1077.78 37.2204ZM1111.53 32.6398C1110.43 32.7239 1109.61 33.6848 1109.69 34.7862L1110.91 50.7398C1110.99 51.8412 1111.95 52.6659 1113.05 52.5819L1129.01 51.3648C1130.11 51.2807 1130.93 50.3198 1130.85 49.2184L1129.63 33.2648C1129.55 32.1634 1128.59 31.3387 1127.49 31.4227L1111.53 32.6398ZM1141.6 32.352C1141.51 31.2506 1142.34 30.2896 1143.44 30.2056L1159.39 28.9885C1160.5 28.9045 1161.46 29.7292 1161.54 30.8306L1162.76 46.7842C1162.84 47.8856 1162.02 48.8465 1160.92 48.9306L1144.96 50.1477C1143.86 50.2317 1142.9 49.407 1142.82 48.3056L1141.6 32.352ZM1175.35 27.7714C1174.25 27.8554 1173.42 28.8164 1173.51 29.9177L1174.72 45.8714C1174.81 46.9727 1175.77 47.7975 1176.87 47.7134L1192.82 46.4963C1193.92 46.4123 1194.75 45.4514 1194.66 44.35L1193.45 28.3963C1193.36 27.295 1192.4 26.4703 1191.3 26.5543L1175.35 27.7714ZM1205.41 27.4835C1205.33 26.3821 1206.15 25.4212 1207.25 25.3372L1223.21 24.1201C1224.31 24.036 1225.27 24.8608 1225.35 25.9621L1226.57 41.9158C1226.66 43.0171 1225.83 43.9781 1224.73 44.0621L1208.78 45.2792C1207.67 45.3632 1206.71 44.5385 1206.63 43.4372L1205.41 27.4835ZM1239.16 22.9029C1238.06 22.987 1237.24 23.9479 1237.32 25.0493L1238.54 41.0029C1238.62 42.1043 1239.58 42.929 1240.68 42.845L1256.64 41.6279C1257.74 41.5439 1258.56 40.5829 1258.48 39.4815L1257.26 23.5279C1257.18 22.4265 1256.22 21.6018 1255.12 21.6858L1239.16 22.9029ZM1269.23 22.6151C1269.14 21.5137 1269.97 20.5528 1271.07 20.4687L1287.02 19.2516C1288.12 19.1676 1289.09 19.9923 1289.17 21.0937L1290.39 37.0473C1290.47 38.1487 1289.65 39.1096 1288.54 39.1937L1272.59 40.4108C1271.49 40.4948 1270.53 39.6701 1270.44 38.5687L1269.23 22.6151ZM1302.98 18.0345C1301.88 18.1185 1301.05 19.0795 1301.13 20.1808L1302.35 36.1345C1302.44 37.2359 1303.4 38.0606 1304.5 37.9766L1320.45 36.7594C1321.55 36.6754 1322.38 35.7145 1322.29 34.6131L1321.08 18.6595C1320.99 17.5581 1320.03 16.7334 1318.93 16.8174L1302.98 18.0345ZM1333.04 17.7466C1332.96 16.6453 1333.78 15.6843 1334.88 15.6003L1350.84 14.3832C1351.94 14.2991 1352.9 15.1239 1352.98 16.2252L1354.2 32.1789C1354.28 33.2802 1353.46 34.2412 1352.36 34.3252L1336.41 35.5423C1335.3 35.6264 1334.34 34.8016 1334.26 33.7003L1333.04 17.7466ZM1366.79 13.1661C1365.69 13.2501 1364.86 14.211 1364.95 15.3124L1366.17 31.266C1366.25 32.3674 1367.21 33.1921 1368.31 33.1081L1384.27 31.891C1385.37 31.807 1386.19 30.846 1386.11 29.7447L1384.89 13.791C1384.81 12.6896 1383.85 11.8649 1382.74 11.949L1366.79 13.1661ZM32.6784 220.251L52.6205 218.73L54.1419 238.672L34.1998 240.193L32.6784 220.251ZM84.5278 216.296L64.5857 217.817L66.1071 237.759L86.0492 236.238L84.5278 216.296ZM96.493 215.383L116.435 213.861L117.956 233.803L98.0144 235.325L96.493 215.383ZM148.342 211.427L128.4 212.949L129.922 232.891L149.864 231.369L148.342 211.427ZM160.308 210.514L180.25 208.993L181.771 228.935L161.829 230.456L160.308 210.514ZM212.157 206.559L192.215 208.08L193.736 228.022L213.678 226.501L212.157 206.559ZM224.122 205.646L244.064 204.125L245.586 224.067L225.643 225.588L224.122 205.646ZM275.971 201.69L256.029 203.212L257.551 223.154L277.493 221.632L275.971 201.69ZM287.937 200.777L307.879 199.256L309.4 219.198L289.458 220.72L287.937 200.777ZM339.786 196.822L319.844 198.343L321.365 218.285L341.307 216.764L339.786 196.822ZM351.903 197.903C351.819 196.802 352.644 195.841 353.745 195.757L369.699 194.54C370.8 194.456 371.761 195.281 371.845 196.382L373.063 212.336C373.147 213.437 372.322 214.398 371.22 214.482L355.267 215.699C354.165 215.783 353.204 214.958 353.12 213.857L351.903 197.903ZM385.653 193.323C384.551 193.407 383.727 194.368 383.811 195.469L385.028 211.423C385.112 212.524 386.073 213.349 387.174 213.265L403.128 212.048C404.229 211.964 405.054 211.003 404.97 209.901L403.753 193.948C403.669 192.846 402.708 192.022 401.606 192.106L385.653 193.323ZM415.718 193.035C415.634 191.933 416.459 190.972 417.56 190.888L433.514 189.671C434.615 189.587 435.576 190.412 435.66 191.513L436.877 207.467C436.961 208.568 436.136 209.529 435.035 209.613L419.081 210.831C417.98 210.915 417.019 210.09 416.935 208.988L415.718 193.035ZM449.467 188.454C448.366 188.538 447.541 189.499 447.625 190.601L448.842 206.554C448.926 207.656 449.887 208.48 450.989 208.396L466.942 207.179C468.044 207.095 468.868 206.134 468.784 205.033L467.567 189.079C467.483 187.978 466.522 187.153 465.421 187.237L449.467 188.454ZM479.532 188.166C479.448 187.065 480.273 186.104 481.375 186.02L497.328 184.803C498.43 184.719 499.39 185.544 499.475 186.645L500.692 202.599C500.776 203.7 499.951 204.661 498.85 204.745L482.896 205.962C481.795 206.046 480.834 205.221 480.75 204.12L479.532 188.166ZM513.282 183.586C512.18 183.67 511.356 184.631 511.44 185.732L512.657 201.686C512.741 202.787 513.702 203.612 514.803 203.528L530.757 202.311C531.858 202.227 532.683 201.266 532.599 200.164L531.382 184.211C531.298 183.109 530.337 182.285 529.235 182.369L513.282 183.586ZM543.347 183.298C543.263 182.197 544.088 181.236 545.189 181.152L561.143 179.934C562.244 179.85 563.205 180.675 563.289 181.777L564.506 197.73C564.59 198.832 563.765 199.792 562.664 199.877L546.71 201.094C545.609 201.178 544.648 200.353 544.564 199.252L543.347 183.298ZM577.096 178.717C575.995 178.801 575.17 179.762 575.254 180.864L576.471 196.817C576.555 197.919 577.516 198.743 578.618 198.659L594.571 197.442C595.673 197.358 596.497 196.397 596.413 195.296L595.196 179.342C595.112 178.241 594.151 177.416 593.05 177.5L577.096 178.717ZM607.162 178.429C607.078 177.328 607.902 176.367 609.004 176.283L624.957 175.066C626.059 174.982 627.02 175.807 627.104 176.908L628.321 192.862C628.405 193.963 627.58 194.924 626.479 195.008L610.525 196.225C609.424 196.309 608.463 195.484 608.379 194.383L607.162 178.429ZM640.911 173.849C639.81 173.933 638.985 174.894 639.069 175.995L640.286 191.949C640.37 193.05 641.331 193.875 642.432 193.791L658.386 192.574C659.487 192.49 660.312 191.529 660.228 190.428L659.011 174.474C658.927 173.373 657.966 172.548 656.865 172.632L640.911 173.849ZM670.976 173.561C670.892 172.46 671.717 171.499 672.818 171.415L688.772 170.198C689.873 170.114 690.834 170.938 690.918 172.04L692.135 187.993C692.219 189.095 691.395 190.056 690.293 190.14L674.34 191.357C673.238 191.441 672.277 190.616 672.193 189.515L670.976 173.561ZM704.725 168.98C703.624 169.064 702.799 170.025 702.883 171.127L704.101 187.08C704.185 188.182 705.146 189.007 706.247 188.923L722.201 187.705C723.302 187.621 724.127 186.66 724.043 185.559L722.825 169.605C722.741 168.504 721.78 167.679 720.679 167.763L704.725 168.98ZM734.791 168.693C734.707 167.591 735.531 166.63 736.633 166.546L752.586 165.329C753.688 165.245 754.649 166.07 754.733 167.171L755.95 183.125C756.034 184.226 755.209 185.187 754.108 185.271L738.154 186.488C737.053 186.572 736.092 185.748 736.008 184.646L734.791 168.693ZM768.54 164.112C767.439 164.196 766.614 165.157 766.698 166.258L767.915 182.212C767.999 183.313 768.96 184.138 770.061 184.054L786.015 182.837C787.116 182.753 787.941 181.792 787.857 180.691L786.64 164.737C786.556 163.636 785.595 162.811 784.494 162.895L768.54 164.112ZM798.605 163.824C798.521 162.723 799.346 161.762 800.447 161.678L816.401 160.461C817.502 160.377 818.463 161.201 818.547 162.303L819.764 178.256C819.848 179.358 819.024 180.319 817.922 180.403L801.969 181.62C800.867 181.704 799.906 180.879 799.822 179.778L798.605 163.824ZM832.355 159.244C831.253 159.328 830.429 160.289 830.513 161.39L831.73 177.344C831.814 178.445 832.775 179.27 833.876 179.186L849.83 177.969C850.931 177.885 851.756 176.924 851.672 175.822L850.455 159.869C850.371 158.767 849.41 157.942 848.308 158.026L832.355 159.244ZM862.42 158.956C862.336 157.854 863.161 156.893 864.262 156.809L880.216 155.592C881.317 155.508 882.278 156.333 882.362 157.434L883.579 173.388C883.663 174.489 882.838 175.45 881.737 175.534L865.783 176.751C864.682 176.835 863.721 176.011 863.637 174.909L862.42 158.956ZM896.169 154.375C895.068 154.459 894.243 155.42 894.327 156.521L895.544 172.475C895.628 173.576 896.589 174.401 897.691 174.317L913.644 173.1C914.746 173.016 915.57 172.055 915.486 170.954L914.269 155C914.185 153.899 913.224 153.074 912.123 153.158L896.169 154.375ZM926.234 154.087C926.15 152.986 926.975 152.025 928.076 151.941L944.03 150.724C945.131 150.64 946.092 151.465 946.176 152.566L947.394 168.52C947.478 169.621 946.653 170.582 945.551 170.666L929.598 171.883C928.496 171.967 927.536 171.142 927.451 170.041L926.234 154.087ZM959.984 149.507C958.882 149.591 958.058 150.552 958.142 151.653L959.359 167.607C959.443 168.708 960.404 169.533 961.505 169.449L977.459 168.232C978.56 168.148 979.385 167.187 979.301 166.085L978.084 150.132C978 149.03 977.039 148.206 975.937 148.29L959.984 149.507ZM990.049 149.219C989.965 148.117 990.79 147.157 991.891 147.072L1007.84 145.855C1008.95 145.771 1009.91 146.596 1009.99 147.697L1011.21 163.651C1011.29 164.752 1010.47 165.713 1009.37 165.797L993.412 167.015C992.311 167.099 991.35 166.274 991.266 165.172L990.049 149.219ZM1023.8 144.638C1022.7 144.722 1021.87 145.683 1021.96 146.785L1023.17 162.738C1023.26 163.84 1024.22 164.664 1025.32 164.58L1041.27 163.363C1042.37 163.279 1043.2 162.318 1043.12 161.217L1041.9 145.263C1041.81 144.162 1040.85 143.337 1039.75 143.421L1023.8 144.638ZM1053.86 144.35C1053.78 143.249 1054.6 142.288 1055.71 142.204L1071.66 140.987C1072.76 140.903 1073.72 141.728 1073.81 142.829L1075.02 158.783C1075.11 159.884 1074.28 160.845 1073.18 160.929L1057.23 162.146C1056.13 162.23 1055.16 161.405 1055.08 160.304L1053.86 144.35ZM1087.61 139.77C1086.51 139.854 1085.69 140.815 1085.77 141.916L1086.99 157.87C1087.07 158.971 1088.03 159.796 1089.13 159.712L1105.09 158.495C1106.19 158.411 1107.01 157.45 1106.93 156.348L1105.71 140.395C1105.63 139.293 1104.67 138.469 1103.57 138.553L1087.61 139.77ZM1117.68 139.482C1117.59 138.381 1118.42 137.42 1119.52 137.336L1135.47 136.118C1136.58 136.034 1137.54 136.859 1137.62 137.961L1138.84 153.914C1138.92 155.016 1138.1 155.977 1137 156.061L1121.04 157.278C1119.94 157.362 1118.98 156.537 1118.9 155.436L1117.68 139.482ZM1151.43 134.901C1150.33 134.985 1149.5 135.946 1149.59 137.048L1150.8 153.001C1150.89 154.103 1151.85 154.927 1152.95 154.843L1168.9 153.626C1170 153.542 1170.83 152.581 1170.74 151.48L1169.53 135.526C1169.44 134.425 1168.48 133.6 1167.38 133.684L1151.43 134.901ZM1181.49 134.613C1181.41 133.512 1182.23 132.551 1183.33 132.467L1199.29 131.25C1200.39 131.166 1201.35 131.991 1201.43 133.092L1202.65 149.046C1202.74 150.147 1201.91 151.108 1200.81 151.192L1184.86 152.409C1183.75 152.493 1182.79 151.668 1182.71 150.567L1181.49 134.613ZM1215.24 130.033C1214.14 130.117 1213.32 131.078 1213.4 132.179L1214.62 148.133C1214.7 149.234 1215.66 150.059 1216.76 149.975L1232.72 148.758C1233.82 148.674 1234.64 147.713 1234.56 146.612L1233.34 130.658C1233.26 129.557 1232.3 128.732 1231.2 128.816L1215.24 130.033ZM1245.31 129.745C1245.22 128.644 1246.05 127.683 1247.15 127.599L1263.1 126.382C1264.2 126.298 1265.17 127.122 1265.25 128.224L1266.47 144.177C1266.55 145.279 1265.73 146.24 1264.62 146.324L1248.67 147.541C1247.57 147.625 1246.61 146.8 1246.52 145.699L1245.31 129.745ZM1279.06 125.164C1277.96 125.249 1277.13 126.209 1277.21 127.311L1278.43 143.264C1278.52 144.366 1279.48 145.191 1280.58 145.107L1296.53 143.889C1297.63 143.805 1298.46 142.844 1298.37 141.743L1297.16 125.789C1297.07 124.688 1296.11 123.863 1295.01 123.947L1279.06 125.164ZM1309.12 124.877C1309.04 123.775 1309.86 122.814 1310.96 122.73L1326.92 121.513C1328.02 121.429 1328.98 122.254 1329.06 123.355L1330.28 139.309C1330.36 140.41 1329.54 141.371 1328.44 141.455L1312.49 142.672C1311.38 142.756 1310.42 141.932 1310.34 140.83L1309.12 124.877ZM1342.87 120.296C1341.77 120.38 1340.94 121.341 1341.03 122.442L1342.25 138.396C1342.33 139.497 1343.29 140.322 1344.39 140.238L1360.35 139.021C1361.45 138.937 1362.27 137.976 1362.19 136.875L1360.97 120.921C1360.89 119.82 1359.93 118.995 1358.82 119.079L1342.87 120.296ZM1372.94 120.008C1372.85 118.907 1373.68 117.946 1374.78 117.862L1390.73 116.645C1391.83 116.561 1392.79 117.385 1392.88 118.487L1394.1 134.44C1394.18 135.542 1393.35 136.503 1392.25 136.587L1376.3 137.804C1375.2 137.888 1374.24 137.063 1374.15 135.962L1372.94 120.008Z" fill="#A58CCF"/>
</svg>
