<svg width="43" height="145" viewBox="0 0 43 145" fill="none" xmlns="http://www.w3.org/2000/svg">
<path fill-rule="evenodd" clip-rule="evenodd" d="M43 0H0V145H43V0ZM11.9999 12C11.9999 10.8954 12.8953 10 13.9999 10H29.9999C31.1045 10 31.9999 10.8954 31.9999 12V28C31.9999 29.1046 31.1045 30 29.9999 30H13.9999C12.8953 30 11.9999 29.1046 11.9999 28V12ZM13.9999 115C12.8953 115 11.9999 115.895 11.9999 117V133C11.9999 134.105 12.8953 135 13.9999 135H29.9999C31.1045 135 31.9999 134.105 31.9999 133V117C31.9999 115.895 31.1045 115 29.9999 115H13.9999Z" fill="#A58CCF"/>
</svg>
