<svg width="40" height="40" viewBox="0 0 40 40" fill="none" xmlns="http://www.w3.org/2000/svg">
<path d="M19.0224 24.4365L11.2982 16.745C11.2074 16.6539 11.135 16.5534 11.081 16.4434C11.027 16.3331 11 16.2161 11 16.0925C11 15.8377 11.0861 15.6173 11.2582 15.4312C11.4303 15.245 11.6543 15.152 11.9303 15.152H28.0697C28.3457 15.152 28.5697 15.2465 28.7418 15.4355C28.9139 15.6246 29 15.845 29 16.0969C29 16.1626 28.9003 16.379 28.7008 16.746L20.9776 24.4365C20.8435 24.5703 20.6942 24.6723 20.5296 24.7425C20.3646 24.8128 20.1879 24.848 19.9995 24.848C19.8108 24.848 19.6343 24.8128 19.47 24.7425C19.3056 24.6723 19.1565 24.5703 19.0224 24.4365Z" fill="#230B4A"/>
</svg>
