<svg width="40" height="40" viewBox="0 0 40 40" fill="none" xmlns="http://www.w3.org/2000/svg">
<path d="M20.7974 29.8021L20.7975 29.8023L20.8051 29.7945C21.1033 29.4882 21.2645 29.1218 21.2772 28.7044C21.29 28.2815 21.1389 27.909 20.8372 27.5991L14.9583 21.5604H28.7159C29.1448 21.5604 29.5151 21.4084 29.8099 21.1056C30.1044 20.8032 30.25 20.426 30.25 19.9914C30.25 19.5568 30.1044 19.1797 29.8099 18.8772C29.5151 18.5744 29.1448 18.4224 28.7159 18.4224H14.9583L20.8051 12.4167C21.1066 12.107 21.2612 11.7315 21.2612 11.3025C21.2612 10.8736 21.1066 10.498 20.8051 10.1883L20.8053 10.1882L20.7974 10.1807C20.4941 9.89517 20.1278 9.75 19.7111 9.75C19.294 9.75 18.934 9.89573 18.6491 10.1883L10.174 18.8937C10.0234 19.0484 9.91112 19.222 9.84412 19.4147C9.78074 19.597 9.75 19.7898 9.75 19.9914C9.75 20.193 9.78074 20.3858 9.84412 20.5682C9.91112 20.7608 10.0234 20.9344 10.174 21.0891L10.3531 20.9147L10.174 21.0891L18.6491 29.7945C18.9508 30.1044 19.3168 30.2626 19.7351 30.2492C20.1404 30.2362 20.4976 30.0844 20.7974 29.8021Z" fill="#E4E2E7" stroke="#E4E2E7" stroke-width="0.5" stroke-linejoin="round"/>
</svg>
