<svg width="40" height="50" viewBox="0 0 40 50" fill="none" xmlns="http://www.w3.org/2000/svg">
<path fill-rule="evenodd" clip-rule="evenodd" d="M12.5 38.125C11.8125 38.125 11.2241 37.8804 10.735 37.3912C10.2458 36.9021 10.0009 36.3134 10 35.625V23.125C10 22.4375 10.245 21.8492 10.735 21.36C11.225 20.8709 11.8134 20.6259 12.5 20.625H13.75V18.125C13.75 16.3958 14.3596 14.9221 15.5787 13.7037C16.798 12.4854 18.2716 11.8759 20 11.875C21.7283 11.8741 23.2025 12.4838 24.4225 13.7037C25.6425 14.9238 26.2517 16.3975 26.25 18.125V20.625H27.5C28.1875 20.625 28.7762 20.87 29.2662 21.36C29.7562 21.85 30.0009 22.4384 30 23.125V35.625C30 36.3125 29.7554 36.9012 29.2662 37.3912C28.7771 37.8812 28.1884 38.1259 27.5 38.125H12.5ZM16.25 18.125V20.625H23.75V18.125C23.75 17.0833 23.3854 16.1979 22.6562 15.4688C21.9271 14.7396 21.0416 14.375 20 14.375C18.9584 14.375 18.0729 14.7396 17.3438 15.4688C16.6146 16.1979 16.25 17.0833 16.25 18.125ZM22.1702 29.3254C22.1702 30.1183 21.9806 30.8391 21.6012 31.4878C21.3232 31.9631 20.9778 32.3428 20.5646 32.627C20.2759 32.8254 19.8943 32.8254 19.6057 32.627C19.1925 32.3428 18.8469 31.9631 18.569 31.4878C18.1897 30.8391 18 30.1183 18 29.3254C18 28.5325 18.1897 27.8117 18.569 27.163C18.8469 26.6877 19.1925 26.308 19.6057 26.0239C19.8943 25.8254 20.2759 25.8254 20.5646 26.0239C20.9778 26.308 21.3232 26.6877 21.6012 27.163C21.9806 27.8117 22.1702 28.5325 22.1702 29.3254Z" fill="#E4E2E7"/>
</svg>
