<svg width="24" height="24" viewBox="0 0 24 24" fill="none" xmlns="http://www.w3.org/2000/svg">
<path d="M12 12.9966L7.20227 17.7945C7.07128 17.9254 6.90665 17.9924 6.70836 17.9955C6.51023 17.9985 6.34259 17.9315 6.20546 17.7945C6.06849 17.6574 6 17.4913 6 17.2961C6 17.101 6.06849 16.9349 6.20546 16.7977L11.0034 12L6.20546 7.20227C6.07463 7.07129 6.00764 6.90665 6.00449 6.70836C6.0015 6.51023 6.06849 6.34259 6.20546 6.20546C6.34259 6.06849 6.50873 6 6.70387 6C6.899 6 7.06514 6.06849 7.20227 6.20546L12 11.0034L16.7977 6.20546C16.9287 6.07463 17.0934 6.00764 17.2916 6.00449C17.4898 6.0015 17.6574 6.06849 17.7945 6.20546C17.9315 6.34259 18 6.50873 18 6.70387C18 6.899 17.9315 7.06514 17.7945 7.20227L12.9966 12L17.7945 16.7977C17.9254 16.9287 17.9924 17.0934 17.9955 17.2916C17.9985 17.4898 17.9315 17.6574 17.7945 17.7945C17.6574 17.9315 17.4913 18 17.2961 18C17.101 18 16.9349 17.9315 16.7977 17.7945L12 12.9966Z" fill="#230B4A"/>
</svg>
