<svg width="40" height="40" viewBox="0 0 40 40" fill="none" xmlns="http://www.w3.org/2000/svg">
<path d="M20 22.6844L13.2261 29.458C12.865 29.8193 12.4176 30 11.8841 30C11.3505 30 10.9031 29.8193 10.542 29.458C10.1807 29.0969 10 28.6495 10 28.1159C10 27.5824 10.1807 27.135 10.542 26.7739L17.3156 20L10.542 13.2261C10.1807 12.865 10 12.4176 10 11.8841C10 11.3505 10.1807 10.9031 10.542 10.542C10.9031 10.1807 11.3505 10 11.8841 10C12.4176 10 12.865 10.1807 13.2261 10.542L20 17.3156L26.7739 10.542C27.135 10.1807 27.5824 10 28.1159 10C28.6495 10 29.0969 10.1807 29.458 10.542C29.8193 10.9031 30 11.3505 30 11.8841C30 12.4176 29.8193 12.865 29.458 13.2261L22.6844 20L29.458 26.7739C29.8193 27.135 30 27.5824 30 28.1159C30 28.6495 29.8193 29.0969 29.458 29.458C29.0969 29.8193 28.6495 30 28.1159 30C27.5824 30 27.135 29.8193 26.7739 29.458L20 22.6844Z" fill="#230B4A"/>
</svg>
