<svg width="40" height="40" viewBox="0 0 40 40" fill="none" xmlns="http://www.w3.org/2000/svg">
<path d="M13 11.875C12.2044 11.875 11.4413 12.1911 10.8787 12.7537C10.3161 13.3163 10 14.0794 10 14.875V15.625H31V14.875C31 14.0794 30.6839 13.3163 30.1213 12.7537C29.5587 12.1911 28.7956 11.875 28 11.875H13Z" fill="#E4E2E7"/>
<path fill-rule="evenodd" clip-rule="evenodd" d="M31 17.625H10V25.125C10 25.9206 10.3161 26.6837 10.8787 27.2463C11.4413 27.8089 12.2044 28.125 13 28.125H28C28.7956 28.125 29.5587 27.8089 30.1213 27.2463C30.6839 26.6837 31 25.9206 31 25.125V17.625ZM13 21.375C13 21.1761 13.079 20.9853 13.2197 20.8447C13.3603 20.704 13.5511 20.625 13.75 20.625H19.75C19.9489 20.625 20.1397 20.704 20.2803 20.8447C20.421 20.9853 20.5 21.1761 20.5 21.375C20.5 21.5739 20.421 21.7647 20.2803 21.9053C20.1397 22.046 19.9489 22.125 19.75 22.125H13.75C13.5511 22.125 13.3603 22.046 13.2197 21.9053C13.079 21.7647 13 21.5739 13 21.375ZM13.75 23.625C13.5511 23.625 13.3603 23.704 13.2197 23.8447C13.079 23.9853 13 24.1761 13 24.375C13 24.5739 13.079 24.7647 13.2197 24.9053C13.3603 25.046 13.5511 25.125 13.75 25.125H16.75C16.9489 25.125 17.1397 25.046 17.2803 24.9053C17.421 24.7647 17.5 24.5739 17.5 24.375C17.5 24.1761 17.421 23.9853 17.2803 23.8447C17.1397 23.704 16.9489 23.625 16.75 23.625H13.75Z" fill="#E4E2E7"/>
</svg>
