<svg width="40" height="40" viewBox="0 0 40 40" fill="none" xmlns="http://www.w3.org/2000/svg">
<path d="M22 21H27V19H22V21ZM22 18H27V16H22V18ZM13 24H21V23.45C21 22.7 20.6333 22.1043 19.9 21.663C19.1667 21.2217 18.2 21.0007 17 21C15.8 20.9993 14.8333 21.2203 14.1 21.663C13.3667 22.1057 13 22.7013 13 23.45V24ZM17 20C17.55 20 18.021 19.8043 18.413 19.413C18.805 19.0217 19.0007 18.5507 19 18C18.9993 17.4493 18.8037 16.9787 18.413 16.588C18.0223 16.1973 17.5513 16.0013 17 16C16.4487 15.9987 15.978 16.1947 15.588 16.588C15.198 16.9813 15.002 17.452 15 18C14.998 18.548 15.194 19.019 15.588 19.413C15.982 19.807 16.4527 20.0027 17 20ZM12 28C11.45 28 10.9793 27.8043 10.588 27.413C10.1967 27.0217 10.0007 26.5507 10 26V14C10 13.45 10.196 12.9793 10.588 12.588C10.98 12.1967 11.4507 12.0007 12 12H28C28.55 12 29.021 12.196 29.413 12.588C29.805 12.98 30.0007 13.4507 30 14V26C30 26.55 29.8043 27.021 29.413 27.413C29.0217 27.805 28.5507 28.0007 28 28H12Z" fill="#230B4A"/>
</svg>
