<svg width="43" height="43" viewBox="0 0 43 43" fill="none" xmlns="http://www.w3.org/2000/svg">
<path d="M25 32C24.3583 32 23.809 31.7715 23.3521 31.3146C22.8951 30.8576 22.6667 30.3083 22.6667 29.6667V13.3333C22.6667 12.6917 22.8951 12.1424 23.3521 11.6854C23.809 11.2285 24.3583 11 25 11H29.6667C30.3083 11 30.8576 11.2285 31.3146 11.6854C31.7715 12.1424 32 12.6917 32 13.3333V29.6667C32 30.3083 31.7715 30.8576 31.3146 31.3146C30.8576 31.7715 30.3083 32 29.6667 32H25ZM25 13.3333V29.6667H29.6667V13.3333H25ZM13.3333 32C12.6917 32 12.1424 31.7715 11.6854 31.3146C11.2285 30.8576 11 30.3083 11 29.6667V13.3333C11 12.6917 11.2285 12.1424 11.6854 11.6854C12.1424 11.2285 12.6917 11 13.3333 11H18C18.6417 11 19.191 11.2285 19.6479 11.6854C20.1049 12.1424 20.3333 12.6917 20.3333 13.3333V29.6667C20.3333 30.3083 20.1049 30.8576 19.6479 31.3146C19.191 31.7715 18.6417 32 18 32H13.3333ZM13.3333 13.3333V29.6667H18V13.3333H13.3333Z" fill="#230B4A"/>
</svg>
