<svg width="40" height="40" viewBox="0 0 40 40" fill="none" xmlns="http://www.w3.org/2000/svg">
<path fill-rule="evenodd" clip-rule="evenodd" d="M10 16.6666C10 17.1269 10.3833 17.4864 10.8182 17.6369C11.7971 17.9758 12.5 18.9058 12.5 20C12.5 21.0941 11.7971 22.0241 10.8182 22.363C10.3833 22.5136 10 22.8731 10 23.3333V25.8333C10 27.214 11.1193 28.3333 12.5 28.3333H27.5C28.8807 28.3333 30 27.214 30 25.8333V23.3333C30 22.8731 29.6167 22.5136 29.1818 22.363C28.2029 22.0241 27.5 21.0941 27.5 20C27.5 18.9058 28.2029 17.9758 29.1818 17.6369C29.6167 17.4864 30 17.1269 30 16.6666V14.1666C30 12.7859 28.8807 11.6666 27.5 11.6666H12.5C11.1193 11.6666 10 12.7859 10 14.1666V16.6666ZM15.727 24.3032C16.0926 24.6502 16.6703 24.6351 17.0173 24.2695L23.9239 16.9925C24.2709 16.6269 24.2558 16.0492 23.8902 15.7022C23.5246 15.3552 22.9469 15.3703 22.5999 15.7359L15.6933 23.0129C15.3463 23.3785 15.3614 23.9562 15.727 24.3032ZM17.3605 15.5117C18.1182 15.7846 18.5112 16.6202 18.2383 17.3779C17.9653 18.1357 17.1298 18.5287 16.372 18.2558C15.6143 17.9828 15.2213 17.1473 15.4942 16.3895C15.7671 15.6317 16.6027 15.2387 17.3605 15.5117ZM24.0716 23.6279C24.3446 22.8702 23.9515 22.0346 23.1938 21.7617C22.436 21.4887 21.6005 21.8817 21.3275 22.6395C21.0546 23.3973 21.4476 24.2328 22.2054 24.5058C22.9631 24.7787 23.7987 24.3857 24.0716 23.6279Z" fill="#230B4A"/>
</svg>
