<svg width="43" height="68" viewBox="0 0 43 68" fill="none" xmlns="http://www.w3.org/2000/svg">
<path d="M12.8063 10.9269L18.5765 3.44049C18.954 2.95203 19.3963 2.58834 19.9034 2.34944C20.4109 2.11054 20.9413 1.99109 21.4948 1.99109C22.0482 1.99109 22.5775 2.11054 23.0826 2.34944C23.5881 2.58834 24.0295 2.95203 24.4071 3.44049L30.1772 10.9269L38.9346 13.8697C39.7342 14.1362 40.3618 14.6012 40.8173 15.2646C41.2724 15.9277 41.5 16.6604 41.5 17.4627C41.5 17.8329 41.4469 18.2027 41.3406 18.5723C41.2346 18.9414 41.0602 19.2953 40.8173 19.6338L35.1861 27.664L35.386 36.1605C35.397 37.2377 35.036 38.1485 34.303 38.8929C33.5699 39.6369 32.7018 40.0089 31.6985 40.0089C31.6356 40.0089 31.3042 39.9589 30.7045 39.859L21.4918 37.2935L12.2861 39.8565C12.1148 39.9248 11.9345 39.9673 11.7453 39.9839C11.5564 40.0006 11.3831 40.0089 11.2255 40.0089C10.2172 40.0089 9.35226 39.6347 8.63056 38.8864C7.90852 38.138 7.56417 37.2182 7.59749 36.127L7.7974 27.6055L2.18322 19.6008C1.94032 19.2603 1.76572 18.9043 1.65943 18.5328C1.55314 18.1613 1.5 17.7897 1.5 17.4182C1.5 16.6295 1.72407 15.9092 2.17222 15.2571C2.62004 14.6051 3.24561 14.1426 4.04895 13.8697L12.8063 10.9269Z" fill="#4682B4"/>
<path d="M10.9688 54H9.97477V44.62H16.2468V45.53H10.9688V49.1H16.0368V50.024H10.9688V54ZM18.3073 46.16H17.3133V44.62H18.3073V46.16ZM18.3073 54H17.3133V47H18.3073V54ZM20.8379 54H19.8299V44.62H20.8379V54ZM23.4082 54H22.4002V47.084H23.3102V48.512H23.3522C23.6182 47.784 24.3462 46.944 25.7742 46.944C27.0342 46.944 27.7902 47.546 28.0982 48.526H28.1402C28.4202 47.784 29.1342 46.944 30.5622 46.944C32.3402 46.944 33.1522 48.092 33.1522 49.744V54H32.1582V49.982C32.1582 48.484 31.6542 47.826 30.2542 47.826C28.9382 47.826 28.2802 48.47 28.2802 50.01V54H27.2862V49.982C27.2862 48.484 26.7962 47.826 25.3962 47.826C24.0802 47.826 23.4082 48.47 23.4082 50.01V54Z" fill="#F8C700"/>
<path d="M2.31338 65H1.26338L5.05738 55.62H6.48538L10.2794 65H9.20138L8.06738 62.256H3.43338L2.31338 65ZM5.16938 58L3.79738 61.346H7.68938L6.31738 58L5.78538 56.572H5.71538L5.16938 58ZM12.2325 65H11.2385V58.952H10.2165V58.084H11.2385V57.818C11.2385 56.39 12.0365 55.62 13.5625 55.62H14.1785V56.446H13.3805C12.5825 56.446 12.2185 56.782 12.2185 57.482V58.084H15.0045V57.818C15.0045 56.39 15.8025 55.62 17.3285 55.62H17.9445V56.446H17.1465C16.3485 56.446 15.9845 56.782 15.9845 57.482V58.084H17.9445V58.952H15.9985V65H15.0045V58.952H12.2325V65ZM19.6805 57.16H18.6865V55.62H19.6805V57.16ZM19.6805 65H18.6865V58H19.6805V65ZM22.2188 65H21.2108V58.084H22.1208V59.512H22.1628C22.4288 58.784 23.2128 57.944 24.6408 57.944C26.4188 57.944 27.2308 59.092 27.2308 60.758V65H26.2368V60.982C26.2368 59.484 25.7468 58.826 24.3328 58.826C22.9608 58.826 22.2188 59.47 22.2188 61.01V65ZM29.7096 57.16H28.7156V55.62H29.7096V57.16ZM29.7096 65H28.7156V58H29.7096V65ZM33.7402 65.014C32.4662 65.014 31.7242 64.51 31.7242 63.04V58.952H30.5622V58.084H31.7382L31.9762 56.32H32.7322V58.084H34.9162V58.952H32.7322V63.096C32.7322 63.908 33.1102 64.09 34.0062 64.09H34.9162V64.902C34.6782 64.944 34.2442 65.014 33.7402 65.014ZM36.5596 67.38C36.2236 67.38 35.8596 67.324 35.6636 67.282V66.47H36.4476C37.0776 66.47 37.2876 66.344 37.5396 65.798L37.9316 64.902L34.9636 58.084H36.0556L37.6796 61.934L38.4076 63.628H38.4916L39.1776 61.934L40.7036 58.084H41.7956L38.4216 66.106C37.9736 67.156 37.3156 67.38 36.5596 67.38Z" fill="white"/>
</svg>
