<svg width="40" height="40" viewBox="0 0 40 40" fill="none" xmlns="http://www.w3.org/2000/svg">
<path d="M12.5492 20C12.5474 21.788 13.1782 23.519 14.33 24.8866C15.4818 26.2542 17.0803 27.1702 18.8425 27.4725C20.6048 27.7748 22.4172 27.4439 23.9589 26.5384C25.5006 25.6328 26.6723 24.211 27.2665 22.5246H20.1231V17.4754H32.5V22.5246H32.4937C31.3235 28.2858 26.2301 32.6231 20.1231 32.6231C13.1514 32.6231 7.5 26.9718 7.5 20C7.5 13.0283 13.1514 7.37696 20.1231 7.37696C22.1863 7.37549 24.2184 7.8803 26.0412 8.84712C27.8639 9.81394 29.4215 11.2132 30.5775 12.9223L26.4397 15.8193C25.5414 14.4615 24.2296 13.4294 22.6986 12.8758C21.1677 12.3222 19.4991 12.2766 17.9402 12.7458C16.3813 13.215 15.0151 14.174 14.0441 15.4806C13.073 16.7873 12.5488 18.3721 12.5492 20Z" fill="#230B4A"/>
</svg>
