<svg width="40" height="40" viewBox="0 0 40 40" fill="none" xmlns="http://www.w3.org/2000/svg">
<path d="M20.399 27.6782C20.1445 27.5674 19.8555 27.5674 19.601 27.6782L14.6666 29.8256C14.0317 30.1028 13.4286 30.0496 12.8571 29.666C12.2857 29.2825 12 28.7457 12 28.0558V11.934C12 11.4118 12.1889 10.9589 12.5666 10.5753C12.9445 10.1918 13.3906 10 13.9049 10H26.0951C26.6094 10 27.0555 10.1918 27.4334 10.5753C27.8111 10.9589 28 11.4118 28 11.934V28.0558C28 28.7457 27.7143 29.2825 27.1429 29.666C26.5714 30.0496 25.9683 30.1028 25.3334 29.8256L20.399 27.6782Z" fill="#230B4A"/>
</svg>
