<svg width="40" height="40" viewBox="0 0 40 40" fill="none" xmlns="http://www.w3.org/2000/svg">
<path d="M14.4665 29.3665L14.4671 29.3663L19.4015 27.219L19.601 27.6775L19.4015 27.219C19.7832 27.0529 20.2168 27.0529 20.5985 27.219L25.5329 29.3663L25.5335 29.3665C26.0142 29.5764 26.4374 29.5388 26.8658 29.2537C27.2956 28.9675 27.5 28.5867 27.5 28.055V11.9339C27.5 11.5475 27.3659 11.2194 27.0772 10.9261C26.7883 10.633 26.4686 10.5 26.0951 10.5H13.9049C13.5314 10.5 13.2117 10.633 12.9228 10.9261L14.4665 29.3665ZM14.4665 29.3665C13.9858 29.5764 13.5626 29.5388 13.1342 29.2537M14.4665 29.3665L13.1342 29.2537M13.1342 29.2537C12.7044 28.9675 12.5 28.5867 12.5 28.055M13.1342 29.2537L12.5 28.055M12.5 28.055V11.9339M12.5 28.055V11.9339M12.5 11.9339C12.5 11.5475 12.634 11.2194 12.9227 10.9262L12.5 11.9339ZM19.8019 26.045C19.9283 25.9905 20.0717 25.9905 20.1981 26.045L24.5008 27.902C25.491 28.3293 26.5951 27.6033 26.5951 26.5247V12.9339C26.5951 12.1055 25.9236 11.4339 25.0951 11.4339H14.9049C14.0764 11.4339 13.4049 12.1055 13.4049 12.9339V26.5247C13.4049 27.6032 14.509 28.3293 15.4992 27.902L19.8019 26.045Z" fill="#230B4A" stroke="#230B4A"/>
</svg>
