<svg width="40" height="40" viewBox="0 0 40 40" fill="none" xmlns="http://www.w3.org/2000/svg">
<path d="M20 28.8375C19.7667 28.8375 19.5292 28.7958 19.2875 28.7125C19.0458 28.6291 18.8333 28.4958 18.65 28.3125L16.925 26.7375C15.1583 25.1208 13.5625 23.5166 12.1375 21.925C10.7125 20.3333 10 18.5791 10 16.6625C10 15.0958 10.525 13.7875 11.575 12.7375C12.625 11.6875 13.9333 11.1625 15.5 11.1625C16.3833 11.1625 17.2167 11.35 18 11.725C18.7833 12.1 19.45 12.6125 20 13.2625C20.55 12.6125 21.2167 12.1 22 11.725C22.7833 11.35 23.6167 11.1625 24.5 11.1625C26.0667 11.1625 27.375 11.6875 28.425 12.7375C29.475 13.7875 30 15.0958 30 16.6625C30 18.5791 29.2917 20.3375 27.875 21.9375C26.4583 23.5375 24.85 25.1458 23.05 26.7625L21.35 28.3125C21.1667 28.4958 20.9542 28.6291 20.7125 28.7125C20.4708 28.7958 20.2333 28.8375 20 28.8375ZM19.05 15.2625C18.5667 14.5791 18.05 14.0583 17.5 13.7C16.95 13.3416 16.2833 13.1625 15.5 13.1625C14.5 13.1625 13.6667 13.4958 13 14.1625C12.3333 14.8291 12 15.6625 12 16.6625C12 17.5291 12.3083 18.45 12.925 19.425C13.5417 20.4 14.2792 21.3458 15.1375 22.2625C15.9958 23.1791 16.8792 24.0375 17.7875 24.8375C18.6958 25.6375 19.4333 26.2958 20 26.8125C20.5667 26.2958 21.3042 25.6375 22.2125 24.8375C23.1208 24.0375 24.0042 23.1791 24.8625 22.2625C25.7208 21.3458 26.4583 20.4 27.075 19.425C27.6917 18.45 28 17.5291 28 16.6625C28 15.6625 27.6667 14.8291 27 14.1625C26.3333 13.4958 25.5 13.1625 24.5 13.1625C23.7167 13.1625 23.05 13.3416 22.5 13.7C21.95 14.0583 21.4333 14.5791 20.95 15.2625C20.8333 15.4291 20.6917 15.5541 20.525 15.6375C20.3583 15.7208 20.1833 15.7625 20 15.7625C19.8167 15.7625 19.6417 15.7208 19.475 15.6375C19.3083 15.5541 19.1667 15.4291 19.05 15.2625Z" fill="#230B4A"/>
</svg>
