<svg width="40" height="40" viewBox="0 0 40 40" fill="none" xmlns="http://www.w3.org/2000/svg">
<path d="M20 28.8375C19.7667 28.8375 19.5292 28.7958 19.2875 28.7125C19.0458 28.6291 18.8333 28.4958 18.65 28.3125L16.925 26.7375C15.1583 25.1208 13.5625 23.5166 12.1375 21.925C10.7125 20.3333 10 18.5791 10 16.6625C10 15.0958 10.525 13.7875 11.575 12.7375C12.625 11.6875 13.9333 11.1625 15.5 11.1625C16.3833 11.1625 17.2167 11.35 18 11.725C18.7833 12.1 19.45 12.6125 20 13.2625C20.55 12.6125 21.2167 12.1 22 11.725C22.7833 11.35 23.6167 11.1625 24.5 11.1625C26.0667 11.1625 27.375 11.6875 28.425 12.7375C29.475 13.7875 30 15.0958 30 16.6625C30 18.5791 29.2917 20.3375 27.875 21.9375C26.4583 23.5375 24.85 25.1458 23.05 26.7625L21.35 28.3125C21.1667 28.4958 20.9542 28.6291 20.7125 28.7125C20.4708 28.7958 20.2333 28.8375 20 28.8375Z" fill="#230B4A"/>
</svg>
