<svg width="43" height="43" viewBox="0 0 43 43" fill="none" xmlns="http://www.w3.org/2000/svg">
<path d="M17.75 29.375H31.5V25.8641H17.75V29.375ZM11.5 17.1359H15.25V13.625H11.5V17.1359ZM11.5 23.2719H15.25V19.7609H11.5V23.2719ZM11.5 29.375H15.25V25.8641H11.5V29.375ZM17.75 23.2719H31.5V19.7609H17.75V23.2719ZM17.75 17.1359H31.5V13.625H17.75V17.1359ZM11.5 32C10.8125 32 10.224 31.743 9.73438 31.2289C9.24479 30.7148 9 30.0969 9 29.375V13.625C9 12.9031 9.24479 12.2852 9.73438 11.7711C10.224 11.257 10.8125 11 11.5 11H31.5C32.1875 11 32.776 11.257 33.2656 11.7711C33.7552 12.2852 34 12.9031 34 13.625V29.375C34 30.0969 33.7552 30.7148 33.2656 31.2289C32.776 31.743 32.1875 32 31.5 32H11.5Z" fill="#230B4A"/>
</svg>
