<svg width="40" height="40" viewBox="0 0 40 40" fill="none" xmlns="http://www.w3.org/2000/svg">
<path d="M9.40675 28.3987C9.01315 28.3987 8.68029 28.2624 8.40818 27.9896C8.13606 27.7171 8 27.3794 8 26.9767C8 26.582 8.13606 26.2496 8.40818 25.9794C8.68029 25.7089 9.01315 25.5737 9.40675 25.5737H30.5814C30.975 25.5737 31.3099 25.7101 31.5861 25.9829C31.862 26.2556 32 26.5893 32 26.984C32 27.3868 31.862 27.7232 31.5861 27.9934C31.3099 28.2636 30.975 28.3987 30.5814 28.3987H9.40675ZM9.40675 21.4065C9.01315 21.4065 8.68029 21.2701 8.40818 20.9973C8.13606 20.7246 8 20.3909 8 19.9962C8 19.6015 8.13606 19.2691 8.40818 18.9989C8.68029 18.7287 9.01315 18.5936 9.40675 18.5936H30.5814C30.975 18.5936 31.3099 18.73 31.5861 19.0027C31.862 19.2755 32 19.6092 32 20.0039C32 20.3985 31.862 20.731 31.5861 21.0012C31.3099 21.2714 30.975 21.4065 30.5814 21.4065H9.40675ZM9.40675 14.4263C9.01315 14.4263 8.68029 14.2899 8.40818 14.0172C8.13606 13.7444 8 13.4067 8 13.0039C8 12.6093 8.13606 12.2768 8.40818 12.0066C8.68029 11.7364 9.01315 11.6013 9.40675 11.6013H30.5814C30.975 11.6013 31.3099 11.7377 31.5861 12.0105C31.862 12.283 32 12.6166 32 13.0113C32 13.414 31.862 13.7505 31.5861 14.0207C31.3099 14.2911 30.975 14.4263 30.5814 14.4263H9.40675Z" fill="#E4E2E7"/>
</svg>
