<svg width="62" height="62" viewBox="0 0 62 62" fill="none" xmlns="http://www.w3.org/2000/svg">
<path d="M13.3446 44.9979C12.6886 44.9979 12.1338 44.7706 11.6803 44.316C11.2268 43.8618 11 43.299 11 42.6278C11 41.97 11.2268 41.4159 11.6803 40.9656C12.1338 40.5149 12.6886 40.2896 13.3446 40.2896H48.6357C49.2917 40.2896 49.8499 40.5169 50.3101 40.9715C50.77 41.426 51 41.9822 51 42.64C51 43.3113 50.77 43.872 50.3101 44.3224C49.8499 44.7727 49.2917 44.9979 48.6357 44.9979H13.3446ZM13.3446 33.3441C12.6886 33.3441 12.1338 33.1168 11.6803 32.6622C11.2268 32.2076 11 31.6514 11 30.9937C11 30.3359 11.2268 29.7818 11.6803 29.3315C12.1338 28.8812 12.6886 28.656 13.3446 28.656H48.6357C49.2917 28.656 49.8499 28.8833 50.3101 29.3379C50.77 29.7925 51 30.3486 51 31.0064C51 31.6642 50.77 32.2183 50.3101 32.6686C49.8499 33.1189 49.2917 33.3441 48.6357 33.3441H13.3446ZM13.3446 21.7105C12.6886 21.7105 12.1338 21.4832 11.6803 21.0286C11.2268 20.574 11 20.0111 11 19.3399C11 18.6821 11.2268 18.128 11.6803 17.6777C12.1338 17.2274 12.6886 17.0022 13.3446 17.0022H48.6357C49.2917 17.0022 49.8499 17.2295 50.3101 17.6841C50.77 18.1383 51 18.6943 51 19.3521C51 20.0234 50.77 20.5841 50.3101 21.0345C49.8499 21.4852 49.2917 21.7105 48.6357 21.7105H13.3446Z" fill="#E4E2E7"/>
</svg>
