<svg width="40" height="40" viewBox="0 0 40 40" fill="none" xmlns="http://www.w3.org/2000/svg">
<path d="M12.8332 27C12.5944 27 12.3958 26.9208 12.2375 26.7625C12.0792 26.6042 12 26.4056 12 26.1667C12 25.9278 12.0792 25.7291 12.2375 25.5708C12.3958 25.4124 12.5944 25.3333 12.8332 25.3333H14V17.9333C14 16.5389 14.4139 15.2931 15.2418 14.1958C16.0694 13.0986 17.1555 12.4 18.5 12.1V11.5C18.5 11.0833 18.6458 10.7292 18.9375 10.4375C19.2292 10.1458 19.5833 10 20 10C20.4167 10 20.7708 10.1458 21.0625 10.4375C21.3542 10.7292 21.5 11.0833 21.5 11.5V12.1C22.8445 12.4 23.9306 13.0986 24.7583 14.1958C25.5861 15.2931 26 16.5389 26 17.9333V25.3333H27.1667C27.4056 25.3333 27.6042 25.4124 27.7625 25.5708C27.9208 25.7291 28 25.9278 28 26.1667C28 26.4056 27.9208 26.6042 27.7625 26.7625C27.6042 26.9208 27.4056 27 27.1667 27H12.8332ZM20 30C19.45 30 18.9792 29.8042 18.5875 29.4125C18.1958 29.0208 18 28.55 18 28H22C22 28.55 21.8042 29.0208 21.4125 29.4125C21.0208 29.8042 20.55 30 20 30Z" fill="#230B4A"/>
</svg>
