<svg width="40" height="40" viewBox="0 0 40 40" fill="none" xmlns="http://www.w3.org/2000/svg">
<path d="M15.6409 14.4969L15.6409 14.4969C16.287 13.6404 17.0966 13.057 18.078 12.7338C18.5877 12.5659 19 12.095 19 11.5C19 11.2144 19.0942 10.9879 19.2911 10.7911C19.4879 10.5942 19.7144 10.5 20 10.5C20.2856 10.5 20.5121 10.5942 20.7089 10.7911C20.9058 10.9879 21 11.2144 21 11.5C21 12.095 21.4123 12.5659 21.922 12.7338C22.9034 13.057 23.713 13.6404 24.3591 14.4969L24.3591 14.4969C25.1205 15.5061 25.5 16.6459 25.5 17.9333V24.3332C25.5 25.1617 26.1716 25.8333 27 25.8333H27.1667C27.2762 25.8333 27.3447 25.8649 27.4064 25.9268C27.4679 25.9886 27.5 26.0582 27.5 26.1695C27.5 26.2811 27.4679 26.3484 27.4086 26.4073C27.3474 26.4679 27.2781 26.5 27.1667 26.5H12.8332C12.7238 26.5 12.6553 26.4684 12.5936 26.4065C12.5322 26.3449 12.5 26.2755 12.5 26.1638C12.5 26.0522 12.5321 25.9849 12.5914 25.926C12.6526 25.8653 12.7219 25.8333 12.8332 25.8333H13C13.8284 25.8333 14.5 25.1617 14.5 24.3333V17.9333C14.5 16.6459 14.8795 15.5061 15.6409 14.4969ZM20 29.5C19.5837 29.5 19.2397 29.3576 18.9411 29.0589C18.8302 28.9481 18.7434 28.8334 18.6773 28.7152C18.6677 28.698 18.6649 28.6872 18.664 28.6827C18.6631 28.6782 18.6633 28.6756 18.6635 28.6737C18.664 28.6702 18.6675 28.6526 18.6913 28.6249C18.7444 28.5632 18.8594 28.5 19 28.5H21C21.1406 28.5 21.2556 28.5632 21.3087 28.6249C21.3325 28.6526 21.336 28.6702 21.3365 28.6737C21.3367 28.6756 21.3369 28.6782 21.336 28.6827C21.3351 28.6872 21.3323 28.698 21.3227 28.7152C21.2566 28.8334 21.1698 28.9481 21.0589 29.059C20.7603 29.3576 20.4163 29.5 20 29.5ZM15.1668 24.3332C15.1668 25.1617 15.8383 25.8333 16.6668 25.8333H23.3333C24.1617 25.8333 24.8333 25.1617 24.8333 24.3333V17.9333C24.8333 16.6014 24.3589 15.4518 23.4203 14.5132C22.4815 13.5744 21.3319 13.1 20 13.1C18.6681 13.1 17.5185 13.5744 16.5797 14.5132C15.6411 15.4518 15.1668 16.6014 15.1668 17.9333V24.3332Z" fill="#230B4A" stroke="#230B4A"/>
</svg>
