<svg width="43" height="43" viewBox="0 0 43 43" fill="none" xmlns="http://www.w3.org/2000/svg">
<path d="M21.5 27.0813C23.0646 27.0813 24.3944 26.5387 25.4896 25.4535C26.5848 24.3682 27.1324 23.0504 27.1324 21.5001C27.1324 19.9497 26.5848 18.6319 25.4896 17.5466C24.3944 16.4614 23.0646 15.9188 21.5 15.9188C19.9354 15.9188 18.6056 16.4614 17.5104 17.5466C16.4152 18.6319 15.8676 19.9497 15.8676 21.5001C15.8676 23.0504 16.4152 24.3682 17.5104 25.4535C18.6056 26.5387 19.9354 27.0813 21.5 27.0813ZM21.5 31.032C18.3945 31.032 15.5714 30.1649 13.0307 28.4308C10.5546 26.7408 8.74065 24.5037 7.58893 21.7194C7.53084 21.579 7.53084 21.4211 7.58893 21.2807C8.74065 18.4964 10.5546 16.2593 13.0307 14.5693C15.5714 12.8352 18.3945 11.9681 21.5 11.9681C24.6056 11.9681 27.4286 12.8352 29.9693 14.5693C32.4454 16.2593 34.2594 18.4964 35.4111 21.2807C35.4692 21.4211 35.4692 21.579 35.4111 21.7194C34.2594 24.5037 32.4454 26.7408 29.9693 28.4308C27.4286 30.1649 24.6056 31.032 21.5 31.032Z" fill="#230B4A"/>
<path d="M23.0162 23.6011C23.3956 22.9524 23.5853 22.2316 23.5853 21.4387C23.5853 20.6458 23.3956 19.925 23.0162 19.2763C22.7383 18.801 22.3928 18.4213 21.9796 18.1372C21.6909 17.9387 21.3094 17.9387 21.0207 18.1372C20.6075 18.4213 20.262 18.801 19.984 19.2763C19.6047 19.925 19.415 20.6458 19.415 21.4387C19.415 22.2316 19.6047 22.9524 19.984 23.6011C20.262 24.0763 20.6075 24.4561 21.0207 24.7402C21.3094 24.9387 21.6909 24.9387 21.9796 24.7402C22.3928 24.4561 22.7383 24.0763 23.0162 23.6011Z" fill="#230B4A"/>
</svg>
