<svg width="38" height="38" viewBox="0 0 38 38" fill="none" xmlns="http://www.w3.org/2000/svg">
<path d="M19 23.5C20.245 23.5 21.3062 23.0612 22.1838 22.1838C23.0612 21.3062 23.5 20.245 23.5 19C23.5 17.755 23.0612 16.6937 22.1838 15.8162C21.3062 14.9387 20.245 14.5 19 14.5C17.755 14.5 16.6937 14.9387 15.8162 15.8162C14.9387 16.6937 14.5 17.755 14.5 19C14.5 20.245 14.9387 21.3062 15.8162 22.1838C16.6937 23.0612 17.755 23.5 19 23.5ZM19 28C17.755 28 16.585 27.7638 15.49 27.2912C14.395 26.8187 13.4425 26.1775 12.6325 25.3675C11.8225 24.5575 11.1812 23.605 10.7088 22.51C10.2362 21.415 10 20.245 10 19C10 17.755 10.2362 16.585 10.7088 15.49C11.1812 14.395 11.8225 13.4425 12.6325 12.6325C13.4425 11.8225 14.395 11.1812 15.49 10.7088C16.585 10.2362 17.755 10 19 10C20.245 10 21.415 10.2362 22.51 10.7088C23.605 11.1812 24.5575 11.8225 25.3675 12.6325C26.1775 13.4425 26.8187 14.395 27.2912 15.49C27.7638 16.585 28 17.755 28 19C28 20.245 27.7638 21.415 27.2912 22.51C26.8187 23.605 26.1775 24.5575 25.3675 25.3675C24.5575 26.1775 23.605 26.8187 22.51 27.2912C21.415 27.7638 20.245 28 19 28ZM19 26.2C21.01 26.2 22.7125 25.5025 24.1075 24.1075C25.5025 22.7125 26.2 21.01 26.2 19C26.2 16.99 25.5025 15.2875 24.1075 13.8925C22.7125 12.4975 21.01 11.8 19 11.8C16.99 11.8 15.2875 12.4975 13.8925 13.8925C12.4975 15.2875 11.8 16.99 11.8 19C11.8 21.01 12.4975 22.7125 13.8925 24.1075C15.2875 25.5025 16.99 26.2 19 26.2Z" fill="#230B4A"/>
</svg>
