<svg width="38" height="39" viewBox="0 0 38 39" fill="none" xmlns="http://www.w3.org/2000/svg">
<path d="M19 28.5C17.755 28.5 16.585 28.2637 15.49 27.7912C14.395 27.3187 13.4425 26.6775 12.6325 25.8675C11.8225 25.0575 11.1813 24.105 10.7088 23.01C10.2362 21.915 10 20.745 10 19.5C10 18.255 10.2362 17.085 10.7088 15.99C11.1813 14.895 11.8225 13.9425 12.6325 13.1325C13.4425 12.3225 14.395 11.6813 15.49 11.2088C16.585 10.7362 17.755 10.5 19 10.5C20.245 10.5 21.415 10.7362 22.51 11.2088C23.605 11.6813 24.5575 12.3225 25.3675 13.1325C26.1775 13.9425 26.8187 14.895 27.2912 15.99C27.7637 17.085 28 18.255 28 19.5C28 20.745 27.7637 21.915 27.2912 23.01C26.8187 24.105 26.1775 25.0575 25.3675 25.8675C24.5575 26.6775 23.605 27.3187 22.51 27.7912C21.415 28.2637 20.245 28.5 19 28.5ZM19 26.7C21.01 26.7 22.7125 26.0025 24.1075 24.6075C25.5025 23.2125 26.2 21.51 26.2 19.5C26.2 17.49 25.5025 15.7875 24.1075 14.3925C22.7125 12.9975 21.01 12.3 19 12.3C16.99 12.3 15.2875 12.9975 13.8925 14.3925C12.4975 15.7875 11.8 17.49 11.8 19.5C11.8 21.51 12.4975 23.2125 13.8925 24.6075C15.2875 26.0025 16.99 26.7 19 26.7Z" fill="#230B4A"/>
</svg>
