<svg width="39" height="40" viewBox="0 0 39 40" fill="none" xmlns="http://www.w3.org/2000/svg">
<path d="M26.7733 29.1824L20.4315 22.8404C19.9355 23.2245 19.3635 23.5293 18.7155 23.7546C18.0675 23.98 17.3748 24.0926 16.6375 24.0926C14.7848 24.0926 13.2154 23.4495 11.9293 22.1634C10.6431 20.877 10 19.3076 10 17.4551C10 15.6026 10.6431 14.0332 11.9293 12.7469C13.2154 11.4607 14.7848 10.8176 16.6375 10.8176C18.49 10.8176 20.0593 11.4607 21.3455 12.7469C22.6318 14.0332 23.275 15.6026 23.275 17.4551C23.275 18.1965 23.1623 18.8891 22.937 19.5331C22.7115 20.1771 22.4067 20.7451 22.0227 21.2371L28.3705 27.5909L26.7733 29.1824ZM16.6375 21.8176C17.8515 21.8176 18.8821 21.394 19.7293 20.5469C20.5764 19.6999 21 18.6693 21 17.4551C21 16.241 20.5764 15.2104 19.7293 14.3634C18.8821 13.5162 17.8515 13.0926 16.6375 13.0926C15.4233 13.0926 14.3927 13.5162 13.5455 14.3634C12.6985 15.2104 12.275 16.241 12.275 17.4551C12.275 18.6693 12.6985 19.6999 13.5455 20.5469C14.3927 21.394 15.4233 21.8176 16.6375 21.8176Z" fill="#230B4A"/>
</svg>
