<svg width="40" height="40" viewBox="0 0 40 40" fill="none" xmlns="http://www.w3.org/2000/svg">
<path d="M22.3071 25.8571L16.629 22.7602C16.084 23.3012 15.3909 23.6688 14.6373 23.8165C13.8837 23.9643 13.1032 23.8856 12.3942 23.5904C11.6852 23.2952 11.0795 22.7967 10.6534 22.1577C10.2274 21.5188 10 20.768 10 20C10 19.232 10.2274 18.4813 10.6534 17.8423C11.0795 17.2034 11.6852 16.7049 12.3942 16.4097C13.1032 16.1145 13.8837 16.0358 14.6373 16.1835C15.3909 16.3313 16.084 16.6988 16.629 17.2398L22.3071 14.143C22.1124 13.2293 22.2531 12.276 22.7034 11.4575C23.1537 10.639 23.8836 10.01 24.7596 9.68539C25.6357 9.36081 26.5992 9.36241 27.4742 9.68989C28.3491 10.0174 29.0769 10.6488 29.5245 11.4688C29.9721 12.2888 30.1096 13.2426 29.9118 14.1556C29.7141 15.0686 29.1943 15.88 28.4474 16.4412C27.7006 17.0025 26.7767 17.2762 25.8447 17.2123C24.9127 17.1484 24.0348 16.7511 23.3717 16.0931L17.6935 19.19C17.8071 19.7237 17.8071 20.2753 17.6935 20.809L23.3717 23.9069C24.0348 23.249 24.9127 22.8517 25.8447 22.7878C26.7767 22.7238 27.7006 22.9975 28.4474 23.5588C29.1943 24.1201 29.7141 24.9314 29.9118 25.8445C30.1096 26.7575 29.9721 27.7112 29.5245 28.5312C29.0769 29.3512 28.3491 29.9827 27.4742 30.3102C26.5992 30.6376 25.6357 30.6392 24.7596 30.3147C23.8836 29.9901 23.1537 29.361 22.7034 28.5425C22.2531 27.724 22.1124 26.7708 22.3071 25.8571Z" fill="#230B4A"/>
</svg>
