<svg width="40" height="40" viewBox="0 0 40 40" fill="none" xmlns="http://www.w3.org/2000/svg">
<path d="M18.5324 22.0906L16.2312 19.7895C16.0677 19.626 15.8673 19.5442 15.6299 19.5442C15.3925 19.5442 15.1823 19.6342 14.9993 19.8141C14.8359 19.9814 14.7542 20.1835 14.7542 20.4206C14.7542 20.6575 14.8379 20.8577 15.0052 21.0212L17.9387 23.9793C18.1079 24.1466 18.3053 24.2302 18.5309 24.2302C18.7565 24.2302 18.9549 24.1466 19.1261 23.9793L24.9407 18.1588C25.1245 17.9789 25.2165 17.7712 25.2165 17.5358C25.2165 17.3004 25.1245 17.0913 24.9407 16.9084C24.7607 16.7449 24.548 16.6672 24.3024 16.6754C24.0568 16.6837 23.8508 16.7695 23.6843 16.933L18.5324 22.0906ZM19.9978 30C18.6277 30 17.3346 29.7383 16.1184 29.215C14.9025 28.6916 13.8404 27.9759 12.9323 27.0677C12.0241 26.1596 11.3084 25.0978 10.785 23.8823C10.2617 22.6668 10 21.374 10 20.0037C10 18.6172 10.2617 17.3158 10.785 16.0997C11.3084 14.8838 12.0238 13.8257 12.9313 12.9256C13.8388 12.0254 14.9004 11.3127 16.1162 10.7877C17.332 10.2626 18.6252 10 19.9958 10C21.3827 10 22.6844 10.2624 23.901 10.7872C25.1175 11.3121 26.1756 12.0243 27.0754 12.9239C27.9753 13.8235 28.6877 14.8814 29.2125 16.0975C29.7375 17.3136 30 18.6154 30 20.003C30 21.3737 29.7374 22.6671 29.2123 23.883C28.6873 25.099 27.9746 26.1608 27.0744 27.0685C26.1743 27.9761 25.1165 28.6916 23.901 29.215C22.6855 29.7383 21.3845 30 19.9978 30Z" fill="#230B4A"/>
</svg>
