<svg width="60" height="60" viewBox="0 0 60 60" fill="none" xmlns="http://www.w3.org/2000/svg">
<path d="M25.5971 36.2719L18.6937 29.3684C18.2032 28.8779 17.6018 28.6326 16.8897 28.6326C16.1775 28.6326 15.5469 28.9025 14.9978 29.4423C14.5078 29.9441 14.2627 30.5506 14.2627 31.2618C14.2627 31.9724 14.5137 32.573 15.0155 33.0635L23.8161 41.9379C24.3238 42.4398 24.916 42.6907 25.5927 42.6907C26.2694 42.6907 26.8646 42.4398 27.3782 41.9379L44.822 24.4765C45.3736 23.9367 45.6494 23.3137 45.6494 22.6075C45.6494 21.9013 45.3736 21.2738 44.822 20.7252C44.2822 20.2347 43.6439 20.0017 42.9072 20.0263C42.1704 20.051 41.5523 20.3085 41.0529 20.7991L25.5971 36.2719ZM29.9934 60C25.883 60 22.0037 59.215 18.3553 57.6449C14.7075 56.0749 11.5213 53.9276 8.79685 51.2032C6.0724 48.4787 3.92514 45.2933 2.35509 41.6469C0.785029 38.0005 0 34.1219 0 30.0111C0 25.8515 0.785029 21.9475 2.35509 18.2992C3.92514 14.6513 6.07141 11.4772 8.79389 8.7769C11.5164 6.07609 14.7013 3.93819 18.3487 2.36321C21.9961 0.787737 25.8757 0 29.9874 0C34.148 0 38.0532 0.787242 41.703 2.36173C45.3524 3.93622 48.5267 6.07289 51.2261 8.77173C53.9259 11.4706 56.063 14.6442 57.6375 18.2925C59.2125 21.9409 60 25.8463 60 30.0089C60 34.1212 59.2123 38.0012 57.6368 41.6491C56.0618 45.297 53.9239 48.4824 51.2231 51.2054C48.5228 53.9283 45.3494 56.0749 41.703 57.6449C38.0566 59.215 34.1534 60 29.9934 60Z" fill="#2EB263"/>
</svg>
