<svg width="85" height="112" viewBox="0 0 85 112" fill="none" xmlns="http://www.w3.org/2000/svg">
<g filter="url(#filter0_d_1422_6979)">
<path fill-rule="evenodd" clip-rule="evenodd" d="M70 51.704C70 64.0693 61.0116 74.4341 48.921 77.1898L57.3695 81.5248C57.7972 80.1226 59.0114 79.0273 60.5617 78.8243C62.6754 78.5476 64.6136 80.0341 64.8907 82.1445C65.1679 84.2549 63.6791 86.1901 61.5655 86.4669C61.1008 86.5277 60.6445 86.5033 60.2126 86.4058L60.1946 86.4408L60.0447 86.3639C59.5254 86.2218 59.0453 85.973 58.6333 85.6397L43.5295 77.8899C43.1879 77.9019 42.8447 77.908 42.5 77.908C27.3122 77.908 15 66.176 15 51.704C15 37.2319 27.3122 25.5 42.5 25.5C57.6878 25.5 70 37.2319 70 51.704ZM61.9353 51.7161C61.9353 55.6904 60.8119 59.3033 58.5651 62.5547C56.3182 65.8064 53.3249 68.1657 49.5852 69.6327C45.8455 68.1657 42.8522 65.8064 40.6053 62.5547C38.3585 59.3033 37.2351 55.6904 37.2351 51.7161C37.2351 47.7417 38.3585 44.1289 40.6053 40.8775C42.8522 37.6258 45.8455 35.2665 49.5852 33.7995C53.3249 35.2665 56.3182 37.6258 58.5651 40.8775C60.8119 44.1289 61.9353 47.7417 61.9353 51.7161Z" fill="#230B4A"/>
<path d="M58.4347 58.9022C59.6067 56.9012 60.1927 54.6777 60.1927 52.2318C60.1927 49.7858 59.6067 47.5624 58.4347 45.5613C57.2866 43.601 55.765 42.1676 53.8696 41.2613C53.7945 41.2253 53.707 41.2253 53.6318 41.2613C51.7365 42.1676 50.2148 43.601 49.0668 45.5613C47.8948 47.5624 47.3088 49.7858 47.3088 52.2318C47.3088 54.6777 47.8948 56.9012 49.0668 58.9022C50.2148 60.8626 51.7365 62.2959 53.6318 63.2023C53.707 63.2382 53.7945 63.2382 53.8696 63.2023C55.765 62.2959 57.2866 60.8626 58.4347 58.9022Z" fill="#230B4A"/>
</g>
<defs>
<filter id="filter0_d_1422_6979" x="13" y="23.5" width="63" height="69" filterUnits="userSpaceOnUse" color-interpolation-filters="sRGB">
<feFlood flood-opacity="0" result="BackgroundImageFix"/>
<feColorMatrix in="SourceAlpha" type="matrix" values="0 0 0 0 0 0 0 0 0 0 0 0 0 0 0 0 0 0 127 0" result="hardAlpha"/>
<feOffset dx="2" dy="2"/>
<feGaussianBlur stdDeviation="2"/>
<feComposite in2="hardAlpha" operator="out"/>
<feColorMatrix type="matrix" values="0 0 0 0 0.137255 0 0 0 0 0.0431373 0 0 0 0 0.290196 0 0 0 0.25 0"/>
<feBlend mode="normal" in2="BackgroundImageFix" result="effect1_dropShadow_1422_6979"/>
<feBlend mode="normal" in="SourceGraphic" in2="effect1_dropShadow_1422_6979" result="shape"/>
</filter>
</defs>
</svg>
