<svg width="294" height="42" viewBox="0 0 294 42" fill="none" xmlns="http://www.w3.org/2000/svg">
<path fill-rule="evenodd" clip-rule="evenodd" d="M15.5537 9.15955C15.6192 9.15955 15.6846 9.15998 15.75 9.16083C15.8154 9.15998 15.8808 9.15955 15.9463 9.15955C19.5323 9.15955 31.5 11.4341 31.5 24.3496C31.5 30.8691 28.3184 34.678 24.7727 36.8516L27.0071 38.397C27.3582 37.6232 28.1375 37.0851 29.0426 37.0851C30.2764 37.0851 31.2766 38.0853 31.2766 39.3191C31.2766 40.5529 30.2764 41.5532 29.0426 41.5532C28.7713 41.5532 28.5113 41.5048 28.2708 41.4163L28.2578 41.435L28.1776 41.3796C27.8903 41.2588 27.6335 41.0797 27.4221 40.857L23.0625 37.8418C21.166 38.7927 19.0049 39.3547 16.7603 39.5028C16.4444 39.5304 16.1703 39.5425 15.9463 39.5425C15.8808 39.5425 15.8154 39.5422 15.75 39.5415C15.6846 39.5422 15.6192 39.5425 15.5537 39.5425C15.3297 39.5425 15.0556 39.5304 14.7397 39.5028C11.9259 39.3171 9.24324 38.4811 7.04874 37.0437C3.37623 34.9051 0 31.0656 0 24.3496C0 11.4341 11.9677 9.15955 15.5537 9.15955ZM22.0053 34.9376V12.8152C20.1287 11.8377 17.9816 11.2621 15.75 11.2301C13.5184 11.2621 11.3713 11.8377 9.49468 12.8152V26.285L22.0053 34.9376ZM9.49468 28.458L20.9357 36.3709C19.3304 37.031 17.5684 37.4063 15.75 37.4315C13.5182 37.4005 11.3713 36.8423 9.49468 35.8772V28.458Z" fill="white"/>
<path d="M44.6875 41.5532C39.5125 41.5532 35.2979 38.1398 35.2979 33.9485V11.8405C35.2979 11.5937 35.4979 11.3937 35.7447 11.3937H44.2407C44.4875 11.3937 44.6875 11.5937 44.6875 11.8405V38.946C44.6875 39.1928 44.8875 39.3928 45.1343 39.3928H45.1677C50.0759 39.3928 54.9574 36.1522 54.9574 32.177V11.8405C54.9574 11.5937 55.1575 11.3937 55.4042 11.3937H56.2978C56.5446 11.3937 56.7447 11.5937 56.7447 11.8405V32.177C56.7447 37.362 51.5697 41.5532 45.1677 41.5532H44.6875Z" fill="white"/>
<path d="M67.6919 3.61915C67.6919 5.58511 66.0834 7.19362 64.1174 7.19362C62.1515 7.19362 60.543 5.58511 60.543 3.61915C60.543 1.60851 62.1515 0 64.1174 0C66.0834 0 67.6919 1.60851 67.6919 3.61915ZM63.0004 11.1702H64.7876V41.5532H63.0004V11.1702Z" fill="white"/>
<path d="M87.6915 41.5533C87.5478 41.5533 87.4129 41.4841 87.3289 41.3675L74.1976 23.1296C73.9441 22.7775 73.3882 22.9568 73.3882 23.3906V41.1065C73.3882 41.3532 73.1882 41.5533 72.9414 41.5533H71.9361C71.6893 41.5533 71.4893 41.3532 71.4893 41.1065V11.6171C71.4893 11.3703 71.6893 11.1703 71.9361 11.1703H76.6194C76.7646 11.1703 76.9007 11.2408 76.9845 11.3594L89.4434 29.0095C89.6948 29.3657 90.2552 29.1878 90.2552 28.7519V11.6171C90.2552 11.3703 90.4553 11.1703 90.702 11.1703H95.3854C95.5306 11.1703 95.6667 11.2408 95.7504 11.3594L116.566 40.8488C116.775 41.1448 116.564 41.5533 116.201 41.5533H106.457C106.314 41.5533 106.179 41.4841 106.095 41.3675L92.9636 23.1296C92.7101 22.7775 92.1542 22.9568 92.1542 23.3906V41.1065C92.1542 41.3532 91.9541 41.5533 91.7073 41.5533H87.6915Z" fill="white"/>
<path d="M141.894 41.5533L141.894 39.766H131.282L131.282 20.2182H141.894L141.894 18.4309H131.282L131.282 13.0692H142.117L142.117 11.3265V11.1703H120.447V11.3265V13.4852V39.2384V41.5533H131.763H141.894Z" fill="white"/>
<path fill-rule="evenodd" clip-rule="evenodd" d="M163.899 22.4877C163.899 16.2631 159.483 11.1703 153.064 11.1703H145.915V41.5533H153.064V34.6464L154.963 36.8618L158.537 41.5533H163.787L156.61 32.278C161.053 31.0722 163.899 27.5195 163.899 22.4877ZM162 22.4877C162 27.537 158.235 30.9416 153.064 30.9416V12.9575C158.235 12.9575 162 17.4384 162 22.4877Z" fill="white" stroke="white" stroke-width="0.223404"/>
<path d="M186.422 41.5533C186.249 41.5533 186.092 41.4537 186.018 41.2975L183.358 35.6717C183.285 35.5167 183.129 35.4173 182.958 35.4159L173.045 35.3331C172.862 35.3316 172.697 35.4416 172.628 35.6108L170.312 41.2756C170.243 41.4435 170.079 41.5533 169.898 41.5533H168.367C168.048 41.5533 167.832 41.2292 167.954 40.9349L179.963 12.0492C180.108 11.6997 180.595 11.6778 180.771 12.0129L195.949 40.8986C196.105 41.1961 195.89 41.5533 195.554 41.5533H186.422ZM181.65 33.367C181.981 33.3699 182.2 33.0243 182.056 32.7261L177.887 24.0831C177.717 23.7299 177.206 23.7518 177.067 24.1184L173.803 32.6971C173.692 32.988 173.906 33.3001 174.217 33.3028L181.65 33.367Z" fill="white"/>
<path d="M246.92 3.61915C246.92 5.58511 245.312 7.19362 243.346 7.19362C241.38 7.19362 239.771 5.58511 239.771 3.61915C239.771 1.60851 241.38 0 243.346 0C245.312 0 246.92 1.60851 246.92 3.61915ZM242.229 11.1702H244.016V41.5532H242.229V11.1702Z" fill="#230B4A"/>
<path d="M227.847 11.1702C231.332 11.1702 234.696 12.3885 237.283 14.2753C237.303 14.2898 237.314 14.3129 237.314 14.3361V16.7959C237.314 16.8596 237.239 16.8914 237.193 16.848C234.782 14.6342 231.415 13.2393 227.847 13.2393C225.66 13.2393 224.929 13.4853 222.913 14.0641C222.913 14.0641 222.913 14.776 222.913 14.802V37.9213C222.913 37.9502 222.913 38.3699 222.913 38.3699C223.777 38.9486 225.66 39.4435 227.847 39.4435C231.358 39.4435 234.673 38.1355 237.075 35.9853C237.167 35.9014 237.314 35.965 237.314 36.0924V38.6216C237.314 38.6448 237.303 38.6679 237.283 38.6824C234.696 40.5663 231.332 41.5531 227.847 41.5531C224.779 41.5531 212.293 39.2757 212.293 26.3602C212.293 13.4448 224.261 11.1702 227.847 11.1702Z" fill="#230B4A"/>
<path d="M292.942 41.5531L292.942 39.7659H282.33L282.33 20.218H292.942L292.942 18.4308H282.33L282.33 13.0691H293.165L293.165 11.3264V11.1702H271.495V11.3264V13.4851V39.2383V41.5531H282.811H292.942Z" fill="#230B4A"/>
<path d="M268.144 11.1702C268.391 11.1702 268.591 11.3702 268.591 11.617V41.4019C268.509 41.4946 268.39 41.5531 268.256 41.5531H264.24C264.097 41.5531 263.962 41.484 263.878 41.3674L250.746 23.1295C250.493 22.7774 249.937 22.9567 249.937 23.3905V41.1063C249.937 41.3531 249.737 41.5531 249.49 41.5531H248.485C248.238 41.5531 248.038 41.3531 248.038 41.1063V11.617C248.038 11.3702 248.238 11.1702 248.485 11.1702H253.168C253.313 11.1702 253.45 11.2407 253.533 11.3593L265.992 29.0094C266.244 29.3656 266.804 29.1877 266.804 28.7518V11.617C266.804 11.3702 267.004 11.1702 267.251 11.1702H268.144Z" fill="#230B4A"/>
</svg>
