<svg width="120" height="120" viewBox="0 0 120 120" fill="none" xmlns="http://www.w3.org/2000/svg">
<g filter="url(#filter0_d_1422_6983)">
<path fill-rule="evenodd" clip-rule="evenodd" d="M104 53.1263C104 72.9108 89.6186 89.4946 70.2736 93.9037L83.7913 100.84C84.4755 98.5961 86.4182 96.8436 88.8988 96.5188C92.2807 96.076 95.3817 98.4544 95.8251 101.831C96.2686 105.208 93.8866 108.304 90.5047 108.747C89.7612 108.844 89.0312 108.805 88.3401 108.649L88.3113 108.705L88.0715 108.582C87.2406 108.355 86.4725 107.957 85.8132 107.423L61.6472 95.0238C61.1006 95.043 60.5515 95.0527 60 95.0527C35.6995 95.0527 16 76.2816 16 53.1263C16 29.971 35.6995 11.2 60 11.2C84.3005 11.2 104 29.971 104 53.1263ZM91.0965 53.1457C91.0965 59.5047 89.2991 65.2852 85.7041 70.4875C82.1092 75.6901 77.3199 79.4651 71.3363 81.8123C65.3527 79.4651 60.5635 75.6901 56.9685 70.4875C53.3736 65.2852 51.5761 59.5047 51.5761 53.1457C51.5761 46.7867 53.3736 41.0061 56.9685 35.8039C60.5635 30.6012 65.3527 26.8263 71.3363 24.4791C77.3199 26.8263 82.1092 30.6012 85.7041 35.8039C89.2991 41.0061 91.0965 46.7867 91.0965 53.1457Z" fill="#230B4A"/>
<path d="M85.4955 64.6435C87.3707 61.4419 88.3083 57.8843 88.3083 53.9708C88.3083 50.0573 87.3707 46.4997 85.4955 43.2981C83.6586 40.1615 81.2239 37.8682 78.1914 36.418C78.0712 36.3605 77.9312 36.3605 77.8109 36.418C74.7784 37.8682 72.3437 40.1615 70.5068 43.2981C68.6317 46.4997 67.6941 50.0573 67.6941 53.9708C67.6941 57.8843 68.6317 61.4419 70.5068 64.6435C72.3437 67.78 74.7784 70.0734 77.8109 71.5236C77.9312 71.5811 78.0712 71.5811 78.1914 71.5236C81.2239 70.0734 83.6586 67.78 85.4955 64.6435Z" fill="#230B4A"/>
</g>
<defs>
<filter id="filter0_d_1422_6983" x="14" y="9.19995" width="96" height="105.6" filterUnits="userSpaceOnUse" color-interpolation-filters="sRGB">
<feFlood flood-opacity="0" result="BackgroundImageFix"/>
<feColorMatrix in="SourceAlpha" type="matrix" values="0 0 0 0 0 0 0 0 0 0 0 0 0 0 0 0 0 0 127 0" result="hardAlpha"/>
<feOffset dx="2" dy="2"/>
<feGaussianBlur stdDeviation="2"/>
<feComposite in2="hardAlpha" operator="out"/>
<feColorMatrix type="matrix" values="0 0 0 0 0.137255 0 0 0 0 0.0431373 0 0 0 0 0.290196 0 0 0 0.25 0"/>
<feBlend mode="normal" in2="BackgroundImageFix" result="effect1_dropShadow_1422_6983"/>
<feBlend mode="normal" in="SourceGraphic" in2="effect1_dropShadow_1422_6983" result="shape"/>
</filter>
</defs>
</svg>
