<svg width="294" height="43" viewBox="0 0 294 43" fill="none" xmlns="http://www.w3.org/2000/svg">
<path fill-rule="evenodd" clip-rule="evenodd" d="M15.5537 9.99487C15.6192 9.99487 15.6846 9.9953 15.75 9.99616C15.8154 9.9953 15.8808 9.99487 15.9463 9.99487C19.5323 9.99487 31.5 12.2695 31.5 25.1849C31.5 31.7045 28.3184 35.5133 24.7727 37.6869L27.0071 39.2323C27.3582 38.4585 28.1375 37.9204 29.0426 37.9204C30.2764 37.9204 31.2766 38.9206 31.2766 40.1544C31.2766 41.3883 30.2764 42.3885 29.0426 42.3885C28.7713 42.3885 28.5113 42.3401 28.2708 42.2516L28.2578 42.2704L28.1776 42.2149C27.8903 42.0941 27.6335 41.915 27.4221 41.6924L23.0625 38.6771C21.166 39.628 19.0049 40.19 16.7603 40.3382C16.4444 40.3657 16.1703 40.3778 15.9463 40.3778C15.8808 40.3778 15.8154 40.3775 15.75 40.3768C15.6846 40.3775 15.6192 40.3778 15.5537 40.3778C15.3297 40.3778 15.0556 40.3657 14.7397 40.3382C11.9259 40.1524 9.24324 39.3164 7.04874 37.879C3.37623 35.7404 0 31.9009 0 25.1849C0 12.2695 11.9677 9.99487 15.5537 9.99487ZM22.0053 35.7729V13.6505C20.1287 12.673 17.9816 12.0974 15.75 12.0654C13.5184 12.0974 11.3713 12.673 9.49468 13.6505V27.1203L22.0053 35.7729ZM9.49468 29.2933L20.9357 37.2062C19.3304 37.8663 17.5684 38.2416 15.75 38.2668C13.5182 38.2358 11.3713 37.6776 9.49468 36.7125V29.2933Z" fill="white"/>
<path d="M44.6875 42.3886C39.5125 42.3886 35.2979 38.9751 35.2979 34.7839V12.6758C35.2979 12.429 35.4979 12.229 35.7447 12.229H44.2407C44.4875 12.229 44.6875 12.429 44.6875 12.6758V39.7813C44.6875 40.0281 44.8875 40.2281 45.1343 40.2281H45.1677C50.0759 40.2281 54.9574 36.9875 54.9574 33.0123V12.6758C54.9574 12.429 55.1575 12.229 55.4042 12.229H56.2978C56.5446 12.229 56.7447 12.429 56.7447 12.6758V33.0123C56.7447 38.1973 51.5697 42.3886 45.1677 42.3886H44.6875Z" fill="white"/>
<path d="M67.6919 4.45448C67.6919 6.42043 66.0834 8.02894 64.1174 8.02894C62.1515 8.02894 60.543 6.42043 60.543 4.45448C60.543 2.44384 62.1515 0.835327 64.1174 0.835327C66.0834 0.835327 67.6919 2.44384 67.6919 4.45448ZM63.0004 12.0055H64.7876V42.3885H63.0004V12.0055Z" fill="white"/>
<path d="M87.6915 42.3886C87.5478 42.3886 87.4129 42.3195 87.3289 42.2029L74.1976 23.9649C73.9441 23.6128 73.3882 23.7922 73.3882 24.226V41.9418C73.3882 42.1885 73.1882 42.3886 72.9414 42.3886H71.9361C71.6893 42.3886 71.4893 42.1885 71.4893 41.9418V12.4524C71.4893 12.2057 71.6893 12.0056 71.9361 12.0056H76.6194C76.7646 12.0056 76.9007 12.0761 76.9845 12.1948L89.4434 29.8449C89.6948 30.201 90.2552 30.0232 90.2552 29.5872V12.4524C90.2552 12.2057 90.4553 12.0056 90.702 12.0056H95.3854C95.5306 12.0056 95.6667 12.0762 95.7504 12.1948L116.566 41.6841C116.775 41.9801 116.564 42.3886 116.201 42.3886H106.457C106.314 42.3886 106.179 42.3195 106.095 42.2029L92.9636 23.9649C92.7101 23.6128 92.1542 23.7922 92.1542 24.226V41.9418C92.1542 42.1885 91.9541 42.3886 91.7073 42.3886H87.6915Z" fill="white"/>
<path d="M141.894 42.3886L141.894 40.6014H131.282L131.282 21.0535H141.894L141.894 19.2663H131.282L131.282 13.9046H142.117L142.117 12.1619V12.0056H120.447V12.1619V14.3205V40.0737V42.3886H131.763H141.894Z" fill="white"/>
<path fill-rule="evenodd" clip-rule="evenodd" d="M163.899 23.3231C163.899 17.0985 159.483 12.0056 153.064 12.0056H145.915V42.3886H153.064V35.4817L154.963 37.6971L158.537 42.3886H163.787L156.61 33.1133C161.053 31.9076 163.899 28.3548 163.899 23.3231ZM162 23.3231C162 28.3724 158.235 31.7769 153.064 31.7769V13.7928C158.235 13.7928 162 18.2737 162 23.3231Z" fill="white" stroke="white" stroke-width="0.223404"/>
<path d="M186.422 42.3886C186.249 42.3886 186.092 42.289 186.018 42.1328L183.358 36.507C183.285 36.352 183.129 36.2527 182.958 36.2512L173.045 36.1685C172.862 36.1669 172.697 36.2769 172.628 36.4461L170.312 42.1109C170.243 42.2788 170.079 42.3886 169.898 42.3886H168.367C168.048 42.3886 167.832 42.0645 167.954 41.7703L179.963 12.8845C180.108 12.535 180.595 12.5132 180.771 12.8482L195.949 41.734C196.105 42.0315 195.89 42.3886 195.554 42.3886H186.422ZM181.65 34.2024C181.981 34.2052 182.2 33.8596 182.056 33.5615L177.887 24.9185C177.717 24.5652 177.206 24.5872 177.067 24.9537L173.803 33.5325C173.692 33.8234 173.906 34.1355 174.217 34.1381L181.65 34.2024Z" fill="white"/>
<path d="M246.92 4.45448C246.92 6.42043 245.312 8.02894 243.346 8.02894C241.38 8.02894 239.771 6.42043 239.771 4.45448C239.771 2.44384 241.38 0.835327 243.346 0.835327C245.312 0.835327 246.92 2.44384 246.92 4.45448ZM242.229 12.0055H244.016V42.3885H242.229V12.0055Z" fill="#46D8BB"/>
<path d="M227.847 12.0055C231.332 12.0055 234.696 13.2238 237.283 15.1106C237.303 15.1251 237.314 15.1483 237.314 15.1714V17.6312C237.314 17.6949 237.239 17.7267 237.193 17.6833C234.782 15.4695 231.415 14.0746 227.847 14.0746C225.66 14.0746 224.929 14.3206 222.913 14.8994C222.913 14.8994 222.913 15.6113 222.913 15.6373V38.7566C222.913 38.7856 222.913 39.2052 222.913 39.2052C223.777 39.784 225.66 40.2788 227.847 40.2788C231.358 40.2788 234.673 38.9708 237.075 36.8206C237.167 36.7367 237.314 36.8004 237.314 36.9277V39.457C237.314 39.4801 237.303 39.5033 237.283 39.5177C234.696 41.4017 231.332 42.3885 227.847 42.3885C224.779 42.3885 212.293 40.111 212.293 27.1955C212.293 14.2801 224.261 12.0055 227.847 12.0055Z" fill="#46D8BB"/>
<path d="M292.942 42.3885L292.942 40.6012H282.33L282.33 21.0534H292.942L292.942 19.2661H282.33L282.33 13.9044H293.165L293.165 12.1617V12.0055H271.495V12.1617V14.3204V40.0736V42.3885H282.811H292.942Z" fill="#46D8BB"/>
<path d="M268.144 12.0055C268.391 12.0055 268.591 12.2055 268.591 12.4523V42.2372C268.509 42.33 268.39 42.3885 268.256 42.3885H264.24C264.097 42.3885 263.962 42.3194 263.878 42.2027L250.746 23.9648C250.493 23.6127 249.937 23.792 249.937 24.2259V41.9417C249.937 42.1884 249.737 42.3885 249.49 42.3885H248.485C248.238 42.3885 248.038 42.1884 248.038 41.9417V12.4523C248.038 12.2055 248.238 12.0055 248.485 12.0055H253.168C253.313 12.0055 253.45 12.076 253.533 12.1946L265.992 29.8448C266.244 30.2009 266.804 30.023 266.804 29.5871V12.4523C266.804 12.2055 267.004 12.0055 267.251 12.0055H268.144Z" fill="#46D8BB"/>
</svg>
