<svg width="812" height="118" viewBox="0 0 812 118" fill="none" xmlns="http://www.w3.org/2000/svg">
<path fill-rule="evenodd" clip-rule="evenodd" d="M43.7324 25.7542C43.9165 25.7542 44.1005 25.7554 44.2844 25.7578C44.4682 25.7554 44.6522 25.7542 44.8363 25.7542C54.9191 25.7542 88.5687 32.1497 88.5687 68.4641C88.5687 86.7951 79.6231 97.5046 69.6536 103.616L75.9361 107.961C76.9233 105.786 79.1145 104.273 81.6591 104.273C85.1283 104.273 87.9406 107.085 87.9406 110.554C87.9406 114.023 85.1283 116.835 81.6591 116.835C80.8964 116.835 80.1655 116.7 79.4892 116.451L79.4527 116.503L79.2272 116.347C78.4193 116.008 77.6973 115.504 77.103 114.878L64.8449 106.4C59.5126 109.074 53.4362 110.654 47.125 111.071C46.2369 111.148 45.466 111.182 44.8363 111.182C44.6522 111.182 44.4683 111.181 44.2844 111.179C44.1005 111.181 43.9165 111.182 43.7324 111.182C43.1027 111.182 42.3318 111.148 41.4438 111.071C33.532 110.548 25.9893 108.198 19.819 104.156C9.49298 98.1431 0 87.3475 0 68.4641C0 32.1497 33.6497 25.7542 43.7324 25.7542ZM61.8725 98.2345V36.0328C56.5959 33.2843 50.5591 31.6658 44.2844 31.5759C38.0097 31.6658 31.9729 33.2843 26.6963 36.0328V73.9058L61.8725 98.2345ZM26.6963 80.0157L58.8651 102.264C54.3513 104.121 49.3971 105.176 44.2844 105.247C38.0092 105.159 31.9727 103.59 26.6963 100.876V80.0157Z" fill="white"/>
<path d="M125.648 116.835C111.097 116.835 99.2471 107.238 99.2471 95.4532V33.2918C99.2471 32.598 99.8095 32.0355 100.503 32.0355H124.392C125.086 32.0355 125.648 32.598 125.648 33.2918V109.505C125.648 110.198 126.21 110.761 126.904 110.761H126.998C140.799 110.761 154.524 101.649 154.524 90.4721V33.2918C154.524 32.598 155.086 32.0355 155.78 32.0355H158.293C158.987 32.0355 159.549 32.598 159.549 33.2918V90.4721C159.549 105.051 144.999 116.835 126.998 116.835H125.648Z" fill="white"/>
<path d="M190.328 10.176C190.328 15.7037 185.806 20.2263 180.278 20.2263C174.75 20.2263 170.228 15.7037 170.228 10.176C170.228 4.52266 174.75 0 180.278 0C185.806 0 190.328 4.52266 190.328 10.176ZM177.137 31.4074H182.162V116.835H177.137V31.4074Z" fill="white"/>
<path d="M246.563 116.835C246.159 116.835 245.779 116.641 245.543 116.313L208.622 65.0333C207.909 64.0435 206.346 64.5476 206.346 65.7674V115.579C206.346 116.273 205.784 116.835 205.09 116.835H202.263C201.569 116.835 201.007 116.273 201.007 115.579V32.6636C201.007 31.9698 201.569 31.4073 202.263 31.4073H215.431C215.84 31.4073 216.222 31.6057 216.458 31.9392L251.489 81.5661C252.195 82.5675 253.771 82.0674 253.771 80.8416V32.6636C253.771 31.9698 254.334 31.4073 255.027 31.4073H268.196C268.604 31.4073 268.987 31.6057 269.222 31.9392L327.751 114.855C328.338 115.687 327.743 116.835 326.724 116.835H299.327C298.923 116.835 298.544 116.641 298.308 116.313L261.386 65.0333C260.674 64.0435 259.11 64.5476 259.11 65.7674V115.579C259.11 116.273 258.548 116.835 257.854 116.835H246.563Z" fill="white"/>
<path d="M398.963 116.835L398.963 111.81H369.126L369.126 56.8473H398.963L398.963 51.8221H369.126L369.126 36.7466H399.591L399.591 31.8467V31.4073H338.661V31.8467V37.9161V110.327V116.835H370.478H398.963Z" fill="white"/>
<path fill-rule="evenodd" clip-rule="evenodd" d="M460.836 63.2287C460.836 45.7269 448.42 31.4073 430.371 31.4073H410.271V116.835H430.371V97.4151L435.71 103.644L445.761 116.835H460.522L440.342 90.756C452.835 87.3658 460.836 77.3766 460.836 63.2287ZM455.497 63.2287C455.497 77.4259 444.911 86.9984 430.371 86.9984V36.4325C444.911 36.4325 455.497 49.0315 455.497 63.2287Z" fill="white" stroke="white" stroke-width="0.628147"/>
<path d="M524.164 116.835C523.678 116.835 523.236 116.555 523.028 116.116L515.548 100.298C515.342 99.8623 514.905 99.5829 514.423 99.5789L486.551 99.3461C486.037 99.3419 485.572 99.6511 485.377 100.127L478.865 116.055C478.672 116.527 478.213 116.835 477.702 116.835H473.397C472.501 116.835 471.893 115.924 472.237 115.097L506.003 33.8785C506.411 32.8959 507.78 32.8344 508.275 33.7764L550.95 114.995C551.39 115.831 550.783 116.835 549.838 116.835H524.164ZM510.744 93.8181C511.675 93.8261 512.291 92.8544 511.887 92.016L500.165 67.7145C499.686 66.7213 498.252 66.7829 497.86 67.8135L488.683 91.9346C488.371 92.7524 488.971 93.63 489.846 93.6375L510.744 93.8181Z" fill="white"/>
<path d="M681.281 10.176C681.281 15.7037 676.759 20.2263 671.231 20.2263C665.703 20.2263 661.181 15.7037 661.181 10.176C661.181 4.52266 665.703 0 671.231 0C676.759 0 681.281 4.52266 681.281 10.176ZM668.09 31.4074H673.115V116.835H668.09V31.4074Z" fill="#230B4A"/>
<path d="M627.65 31.4072C637.45 31.4072 646.909 34.8328 654.181 40.138C654.238 40.1787 654.27 40.2438 654.27 40.3089V47.2251C654.27 47.4041 654.06 47.4936 653.93 47.3716C647.152 41.1469 637.685 37.225 627.65 37.225C621.504 37.225 619.446 37.9166 613.777 39.544C613.777 39.544 613.777 41.5456 613.777 41.6189V106.624C613.777 106.705 613.777 107.885 613.777 107.885C616.207 109.512 621.504 110.904 627.65 110.904C637.523 110.904 646.844 107.226 653.598 101.18C653.857 100.944 654.27 101.123 654.27 101.481V108.593C654.27 108.658 654.238 108.723 654.181 108.764C646.909 114.061 637.45 116.835 627.65 116.835C619.025 116.835 583.918 110.432 583.918 74.1172C583.918 37.8027 617.568 31.4072 627.65 31.4072Z" fill="#230B4A"/>
<path d="M810.68 116.835L810.68 111.81H780.843L780.843 56.8472H810.68L810.68 51.822H780.843L780.843 36.7465H811.308L811.308 31.8466V31.4072H750.378V31.8466V37.916V110.326V116.835H782.195H810.68Z" fill="#230B4A"/>
<path d="M740.955 31.4072C741.649 31.4072 742.211 31.9697 742.211 32.6635V116.41C741.981 116.671 741.644 116.835 741.269 116.835H729.978C729.574 116.835 729.194 116.641 728.958 116.313L692.037 65.0332C691.324 64.0434 689.761 64.5475 689.761 65.7673V115.579C689.761 116.273 689.199 116.835 688.505 116.835H685.678C684.984 116.835 684.422 116.273 684.422 115.579V32.6635C684.422 31.9697 684.984 31.4072 685.678 31.4072H698.846C699.255 31.4072 699.637 31.6055 699.873 31.939L734.904 81.566C735.61 82.5674 737.186 82.0673 737.186 80.8415V32.6635C737.186 31.9697 737.749 31.4072 738.443 31.4072H740.955Z" fill="#230B4A"/>
</svg>
