<svg width="308" height="190" viewBox="0 0 308 190" fill="none" xmlns="http://www.w3.org/2000/svg">
<path fill-rule="evenodd" clip-rule="evenodd" d="M2.365 174.064C1.56702 174.064 0.778098 174.096 0 174.158V159.808C1.11315 160.452 2.40554 160.82 3.784 160.82C7.96369 160.82 11.352 157.432 11.352 153.252C11.352 149.072 7.96369 145.684 3.784 145.684C2.40554 145.684 1.11315 146.053 0 146.697V129.536C1.11315 130.179 2.40554 130.548 3.784 130.548C7.96369 130.548 11.352 127.16 11.352 122.98C11.352 118.8 7.96369 115.412 3.784 115.412C2.40554 115.412 1.11315 115.781 0 116.424V99.2636C1.11315 99.9075 2.40554 100.276 3.784 100.276C7.96369 100.276 11.352 96.8877 11.352 92.708C11.352 88.5283 7.96369 85.14 3.784 85.14C2.40554 85.14 1.11315 85.5086 0 86.1525V68.9916C1.11315 69.6355 2.40554 70.004 3.784 70.004C7.96369 70.004 11.352 66.6157 11.352 62.436C11.352 58.2563 7.96369 54.868 3.784 54.868C2.40554 54.868 1.11315 55.2366 0 55.8805V38.7196C1.11315 39.3635 2.40554 39.732 3.784 39.732C7.96369 39.732 11.352 36.3437 11.352 32.164C11.352 27.9843 7.96369 24.596 3.784 24.596C2.40554 24.596 1.11315 24.9646 0 25.6085V13.1013C0.724597 13.1666 1.4584 13.2 2.2 13.2C11.6043 13.2 19.7557 7.83566 23.7613 0H288.639C292.329 7.21777 299.536 12.3386 308 13.1013V25.3949C306.981 24.8837 305.83 24.596 304.612 24.596C300.432 24.596 297.044 27.9843 297.044 32.164C297.044 36.3437 300.432 39.732 304.612 39.732C305.83 39.732 306.981 39.4443 308 38.9331V55.6669C306.981 55.1557 305.83 54.868 304.612 54.868C300.432 54.868 297.044 58.2563 297.044 62.436C297.044 66.6157 300.432 70.004 304.612 70.004C305.83 70.004 306.981 69.7163 308 69.2051V85.9389C306.981 85.4277 305.83 85.14 304.612 85.14C300.432 85.14 297.044 88.5283 297.044 92.708C297.044 96.8877 300.432 100.276 304.612 100.276C305.83 100.276 306.981 99.9883 308 99.4772V116.211C306.981 115.7 305.83 115.412 304.612 115.412C300.432 115.412 297.044 118.8 297.044 122.98C297.044 127.16 300.432 130.548 304.612 130.548C305.83 130.548 306.981 130.26 308 129.749V146.483C306.981 145.972 305.83 145.684 304.612 145.684C300.432 145.684 297.044 149.072 297.044 153.252C297.044 157.432 300.432 160.82 304.612 160.82C305.83 160.82 306.981 160.532 308 160.021V173.136C307.661 173.124 307.32 173.118 306.977 173.118C295.226 173.118 285.437 180.038 283.291 189.2H25.8C23.2233 180.512 13.7085 174.064 2.365 174.064ZM15.136 163.661C15.8362 163.607 16.5462 163.579 17.2643 163.579C27.4727 163.579 36.0354 169.183 38.3542 176.734H270.078C272.009 168.771 280.818 162.757 291.393 162.757C291.702 162.757 292.009 162.762 292.314 162.772V23.6845C284.697 23.0216 278.211 18.571 274.89 12.298H36.5194C32.9147 19.1081 25.579 23.7702 17.1158 23.7702C16.4485 23.7702 15.7881 23.7412 15.136 23.6845V163.661ZM21.0877 158.821C21.7579 158.77 22.4374 158.745 23.1247 158.745C32.8946 158.745 41.0896 163.956 43.3088 170.979H265.081C266.929 163.573 275.36 157.98 285.482 157.98C285.777 157.98 286.07 157.985 286.362 157.994V28.6427C279.073 28.0262 272.865 23.8872 269.687 18.0533H41.5527C38.1027 24.3866 31.0821 28.7224 22.9824 28.7224C22.3437 28.7224 21.7117 28.6955 21.0877 28.6427V158.821Z" fill="#8CCFC7"/>
<path fill-rule="evenodd" clip-rule="evenodd" d="M2.365 174.064C1.56702 174.064 0.778098 174.096 0 174.158V159.808C1.11315 160.452 2.40554 160.82 3.784 160.82C7.96369 160.82 11.352 157.432 11.352 153.252C11.352 149.072 7.96369 145.684 3.784 145.684C2.40554 145.684 1.11315 146.053 0 146.697V129.536C1.11315 130.179 2.40554 130.548 3.784 130.548C7.96369 130.548 11.352 127.16 11.352 122.98C11.352 118.8 7.96369 115.412 3.784 115.412C2.40554 115.412 1.11315 115.781 0 116.424V99.2636C1.11315 99.9075 2.40554 100.276 3.784 100.276C7.96369 100.276 11.352 96.8877 11.352 92.708C11.352 88.5283 7.96369 85.14 3.784 85.14C2.40554 85.14 1.11315 85.5086 0 86.1525V68.9916C1.11315 69.6355 2.40554 70.004 3.784 70.004C7.96369 70.004 11.352 66.6157 11.352 62.436C11.352 58.2563 7.96369 54.868 3.784 54.868C2.40554 54.868 1.11315 55.2366 0 55.8805V38.7196C1.11315 39.3635 2.40554 39.732 3.784 39.732C7.96369 39.732 11.352 36.3437 11.352 32.164C11.352 27.9843 7.96369 24.596 3.784 24.596C2.40554 24.596 1.11315 24.9646 0 25.6085V13.1013C0.724597 13.1666 1.4584 13.2 2.2 13.2C11.6043 13.2 19.7557 7.83566 23.7613 0H288.639C292.329 7.21777 299.536 12.3386 308 13.1013V25.3949C306.981 24.8837 305.83 24.596 304.612 24.596C300.432 24.596 297.044 27.9843 297.044 32.164C297.044 36.3437 300.432 39.732 304.612 39.732C305.83 39.732 306.981 39.4443 308 38.9331V55.6669C306.981 55.1557 305.83 54.868 304.612 54.868C300.432 54.868 297.044 58.2563 297.044 62.436C297.044 66.6157 300.432 70.004 304.612 70.004C305.83 70.004 306.981 69.7163 308 69.2051V85.9389C306.981 85.4277 305.83 85.14 304.612 85.14C300.432 85.14 297.044 88.5283 297.044 92.708C297.044 96.8877 300.432 100.276 304.612 100.276C305.83 100.276 306.981 99.9883 308 99.4772V116.211C306.981 115.7 305.83 115.412 304.612 115.412C300.432 115.412 297.044 118.8 297.044 122.98C297.044 127.16 300.432 130.548 304.612 130.548C305.83 130.548 306.981 130.26 308 129.749V146.483C306.981 145.972 305.83 145.684 304.612 145.684C300.432 145.684 297.044 149.072 297.044 153.252C297.044 157.432 300.432 160.82 304.612 160.82C305.83 160.82 306.981 160.532 308 160.021V173.136C307.661 173.124 307.32 173.118 306.977 173.118C295.226 173.118 285.437 180.038 283.291 189.2H25.8C23.2233 180.512 13.7085 174.064 2.365 174.064ZM15.136 163.661C15.8362 163.607 16.5462 163.579 17.2643 163.579C27.4727 163.579 36.0354 169.183 38.3542 176.734H270.078C272.009 168.771 280.818 162.757 291.393 162.757C291.702 162.757 292.009 162.762 292.314 162.772V23.6845C284.697 23.0216 278.211 18.571 274.89 12.298H36.5194C32.9147 19.1081 25.579 23.7702 17.1158 23.7702C16.4485 23.7702 15.7881 23.7412 15.136 23.6845V163.661ZM21.0877 158.821C21.7579 158.77 22.4374 158.745 23.1247 158.745C32.8946 158.745 41.0896 163.956 43.3088 170.979H265.081C266.929 163.573 275.36 157.98 285.482 157.98C285.777 157.98 286.07 157.985 286.362 157.994V28.6427C279.073 28.0262 272.865 23.8872 269.687 18.0533H41.5527C38.1027 24.3866 31.0821 28.7224 22.9824 28.7224C22.3437 28.7224 21.7117 28.6955 21.0877 28.6427V158.821Z" fill="url(#paint0_linear_1375_15842)" fill-opacity="0.2"/>
<defs>
<linearGradient id="paint0_linear_1375_15842" x1="25.069" y1="19.393" x2="269.137" y2="171.226" gradientUnits="userSpaceOnUse">
<stop stop-color="#D0D261"/>
<stop offset="1" stop-color="#A297E0"/>
</linearGradient>
</defs>
</svg>
